<svg xmlns="http://www.w3.org/2000/svg" width="32.895" height="32.896" viewBox="0 0 32.895 32.896"><path d="M16.45,0c-4.471,0-5.028.022-6.778.1A12.212,12.212,0,0,0,5.677.862a8.068,8.068,0,0,0-2.913,1.9,7.975,7.975,0,0,0-1.9,2.913A12.212,12.212,0,0,0,.1,9.669C.018,11.42,0,11.976,0,16.448s.022,5.028.1,6.778A12.241,12.241,0,0,0,.864,27.22a8.068,8.068,0,0,0,1.9,2.913,7.975,7.975,0,0,0,2.913,1.9,12.379,12.379,0,0,0,3.994.766c1.751.079,2.307.1,6.778.1s5.028-.022,6.778-.1a12.406,12.406,0,0,0,3.994-.766,8.068,8.068,0,0,0,2.913-1.9,7.933,7.933,0,0,0,1.9-2.913,12.378,12.378,0,0,0,.766-3.994c.079-1.751.1-2.307.1-6.778s-.022-5.028-.1-6.778a12.371,12.371,0,0,0-.766-3.994,8.068,8.068,0,0,0-1.9-2.913,7.933,7.933,0,0,0-2.913-1.9A12.241,12.241,0,0,0,23.228.1C21.477.016,20.921,0,16.45,0Zm0,2.961c4.391,0,4.915.022,6.651.1a9.1,9.1,0,0,1,3.051.569,5.129,5.129,0,0,1,1.9,1.231,5.07,5.07,0,0,1,1.226,1.891A9.1,9.1,0,0,1,29.842,9.8c.074,1.735.1,2.261.1,6.651s-.022,4.915-.1,6.651a9.358,9.358,0,0,1-.579,3.051,5.348,5.348,0,0,1-1.233,1.9,5.19,5.19,0,0,1-1.9,1.226,9.108,9.108,0,0,1-3.063.569c-1.745.074-2.259.1-6.661.1s-4.915-.022-6.662-.1a9.447,9.447,0,0,1-3.063-.579,5.161,5.161,0,0,1-1.891-1.233,4.94,4.94,0,0,1-1.231-1.9,9.2,9.2,0,0,1-.579-3.063c-.059-1.724-.086-2.259-.086-6.641s.028-4.915.086-6.661A9.209,9.209,0,0,1,3.558,6.7,4.831,4.831,0,0,1,4.789,4.8,4.906,4.906,0,0,1,6.68,3.572,9.166,9.166,0,0,1,9.727,3c1.745-.063,2.259-.085,6.655-.085Zm0,5.045a8.444,8.444,0,1,0,8.444,8.444A8.44,8.44,0,0,0,16.45,8.006Zm0,13.927a5.483,5.483,0,1,1,5.483-5.483A5.479,5.479,0,0,1,16.45,21.933ZM27.208,7.669A1.976,1.976,0,1,1,25.231,5.7a1.977,1.977,0,0,1,1.977,1.971Z" transform="translate(-0.002)"/></svg>