<svg xmlns="http://www.w3.org/2000/svg" width="39.515" height="39.428" viewBox="0 0 39.515 39.428"><g transform="translate(0 -0.341)"><path d="M13.5,99.73H5.564a.637.637,0,0,0-.637.637v25.484a.637.637,0,0,0,.637.637H13.5a.637.637,0,0,0,.637-.637V100.367A.637.637,0,0,0,13.5,99.73Z" transform="translate(-4.299 -86.72)"/><path d="M5.235.341a5.23,5.23,0,1,0,5.23,5.229A5.238,5.238,0,0,0,5.235.341Z"/><path d="M122.017,94.761a9.317,9.317,0,0,0-6.97,2.926V96.032a.637.637,0,0,0-.637-.637h-7.6a.637.637,0,0,0-.637.637v25.484a.637.637,0,0,0,.637.637h7.915a.637.637,0,0,0,.637-.637V108.907c0-4.249,1.154-5.9,4.116-5.9,3.226,0,3.482,2.654,3.482,6.123v12.39a.637.637,0,0,0,.637.637h7.918a.637.637,0,0,0,.637-.637V107.537C132.157,101.22,130.952,94.761,122.017,94.761Z" transform="translate(-92.642 -82.385)"/></g></svg>