<svg xmlns="http://www.w3.org/2000/svg" width="42.394" height="34.709" viewBox="0 0 42.394 34.709"><g transform="translate(0.002 -28.097)"><path d="M41.431,32.1a16.07,16.07,0,0,1-2.05.747A9.063,9.063,0,0,0,41.226,29.6a.684.684,0,0,0-1-.8,16.136,16.136,0,0,1-4.77,1.885,9.1,9.1,0,0,0-15.471,6.5,9.284,9.284,0,0,0,.075,1.176A23.3,23.3,0,0,1,4.068,29.889a.684.684,0,0,0-1.121.088A9.114,9.114,0,0,0,3.88,40.452a7.709,7.709,0,0,1-1.218-.544.684.684,0,0,0-1.016.582c0,.04,0,.081,0,.122A9.133,9.133,0,0,0,6.1,48.438c-.231-.023-.463-.057-.692-.1a.684.684,0,0,0-.779.88,9.1,9.1,0,0,0,6.667,6.1,16.1,16.1,0,0,1-8.606,2.456,16.465,16.465,0,0,1-1.928-.113.684.684,0,0,0-.449,1.255,24.543,24.543,0,0,0,13.272,3.89,23.611,23.611,0,0,0,18.293-8.035,25.466,25.466,0,0,0,6.339-16.6c0-.25,0-.5-.011-.753a17.692,17.692,0,0,0,4.072-4.313.684.684,0,0,0-.845-1.005Z" transform="translate(0 0)"/></g></svg>