<svg width="51" height="51" viewBox="0 0 51 51" fill="none" xmlns="http://www.w3.org/2000/svg">
<path d="M20.0773 1.94189L11.3326 2.85143L3.98688 12.2958V17.5428L9.58353 23.6992L16.0198 22.37L20.917 23.3493L19.8676 27.1271L23.2255 33.2136L21.5466 37.481L25.5101 49.0581L30.8511 48.1847L35.7483 42.658L36.168 38.8102L39.3161 36.4316L38.6864 29.5057L47.0131 18.8481L41.8346 19.5716L33.9293 5.7897L21.4765 4.9502L20.0774 1.94199L20.0773 1.94189ZM45.2133 33.797L43.7787 35.8748L42.4432 35.9242C41.2629 38.3468 41.1883 39.7113 41.0579 42.5529L42.7894 42.9983L44.9661 37.804L45.2133 33.7971V33.797Z" fill="#4169E1"/>
</svg>
