<svg width="51" height="51" viewBox="0 0 51 51" fill="none" xmlns="http://www.w3.org/2000/svg">
<g clip-path="url(#clip0_197_59)">
<path d="M50.0788 17.706C49.9241 17.4198 47.6629 13.3727 42.2198 10.0659C38.9254 3.85708 32.5208 0 25.5001 0C18.4793 0 12.0747 3.85708 8.7803 10.0667C3.33728 13.3727 1.07519 17.4206 0.921364 17.7069L0.709961 18.0968L0.921364 18.4875C1.08012 18.7812 3.45903 23.0397 9.22285 26.39C9.91875 31.2293 12.8299 35.5116 17.0999 37.9136L17.2743 38.0115V43.5968H11.5162C7.43374 43.5968 4.11298 46.9175 4.11298 51H5.75814C5.75814 47.8257 8.34186 45.2419 11.5162 45.2419H17.8476L25.5001 50.3436L33.1525 45.2419H39.4839C42.6583 45.2419 45.242 47.8257 45.242 51H46.8872C46.8872 46.9175 43.5664 43.5968 39.4839 43.5968H33.7259V38.0106L33.8994 37.9127C38.1662 35.5133 41.0814 31.2276 41.7773 26.3892C47.5411 23.0388 49.9208 18.7803 50.0788 18.4867L50.2902 18.0968L50.0788 17.706ZM25.5001 1.64516C30.9834 1.64516 36.0488 4.22806 39.2841 8.52194C35.7404 6.92202 31.2071 5.75806 25.5001 5.75806C19.793 5.75806 15.2598 6.92202 11.7161 8.52194C14.9513 4.22806 20.0168 1.64516 25.5001 1.64516ZM36.1936 18.0968C36.1936 23.993 31.3963 28.7903 25.5001 28.7903C19.6038 28.7903 14.8065 23.993 14.8065 18.0968C14.8065 12.2005 19.6038 7.40323 25.5001 7.40323C31.3963 7.40323 36.1936 12.2005 36.1936 18.0968ZM2.6093 18.0951C3.65809 16.4746 8.24315 10.2995 18.2301 8.14931C15.1635 10.3966 13.1614 14.0127 13.1614 18.0968C13.1614 22.1776 15.1611 25.7912 18.2227 28.0385C8.26701 25.8825 3.66303 19.7123 2.6093 18.0951ZM32.0807 43.9793L25.5001 48.3661L18.9194 43.9793V38.9369L20.4782 39.8137C22.009 40.6741 23.7455 41.129 25.5001 41.129C27.2546 41.129 28.9911 40.6741 30.5219 39.8129L32.0807 38.9369V43.9793ZM33.0925 36.4806L29.7158 38.38C27.1452 39.8252 23.8549 39.8244 21.2843 38.38L17.9077 36.4798C14.4438 34.5311 11.9727 31.203 11.0745 27.3714C14.7062 29.1243 19.4426 30.4355 25.5001 30.4355C31.5576 30.4355 36.2932 29.1243 39.9248 27.3722C39.0249 31.203 36.5539 34.5336 33.0925 36.4806ZM32.7709 28.0434C35.8366 25.797 37.8388 22.1809 37.8388 18.0968C37.8388 14.016 35.8391 10.4024 32.7774 8.15506C42.7331 10.311 47.3371 16.4812 48.3908 18.0984C47.3421 19.7189 42.757 25.894 32.7709 28.0434Z" fill="#FFBC00"/>
<path d="M25.5001 25.5001C29.5826 25.5001 32.9034 22.1793 32.9034 18.0968C32.9034 14.0144 29.5826 10.6936 25.5001 10.6936C21.4177 10.6936 18.0969 14.0144 18.0969 18.0968C18.0969 22.1793 21.4177 25.5001 25.5001 25.5001ZM19.8079 17.2742C19.9477 16.3011 20.3311 15.4078 20.8953 14.6552L22.0108 15.7706L23.1739 14.6074L22.0585 13.492C22.8111 12.9277 23.7045 12.5452 24.6776 12.4046V13.9839H26.3227V12.4046C27.2958 12.5444 28.1892 12.9277 28.9418 13.492L27.8264 14.6074L28.9895 15.7706L30.105 14.6552C30.6692 15.4078 31.0517 16.3011 31.1924 17.2742H29.6131V18.9194H31.1924C31.0526 19.8925 30.6692 20.7858 30.105 21.5385L28.9895 20.4231L27.8264 21.5862L28.9418 22.7016C28.1892 23.2659 27.2958 23.6492 26.3227 23.7891V22.2097H24.6776V23.7891C23.7045 23.6492 22.8111 23.2659 22.0585 22.7016L23.1739 21.5862L22.0108 20.4231L20.8953 21.5385C20.3311 20.7858 19.9477 19.8925 19.8079 18.9194H21.3872V17.2742H19.8079Z" fill="#FFBC00"/>
</g>
<defs>
<clipPath id="clip0_197_59">
<rect width="51" height="51" fill="white"/>
</clipPath>
</defs>
</svg>
