<svg width="51" height="51" viewBox="0 0 51 51" fill="none" xmlns="http://www.w3.org/2000/svg">
<g clip-path="url(#clip0_193_29)">
<path d="M50.0787 17.706C49.9241 17.4198 47.6628 13.3727 42.2198 10.0659C38.9254 3.85708 32.5207 0 25.5 0C18.4793 0 12.0747 3.85708 8.78024 10.0667C3.33722 13.3727 1.07513 17.4206 0.921303 17.7069L0.7099 18.0968L0.921303 18.4875C1.08006 18.7812 3.45896 23.0397 9.22279 26.39C9.91869 31.2293 12.8298 35.5116 17.0998 37.9136L17.2742 38.0115V43.5968H11.5161C7.43367 43.5968 4.11292 46.9175 4.11292 51H5.75808C5.75808 47.8257 8.3418 45.2419 11.5161 45.2419H17.8475L25.5 50.3436L33.1525 45.2419H39.4839C42.6582 45.2419 45.2419 47.8257 45.2419 51H46.8871C46.8871 46.9175 43.5664 43.5968 39.4839 43.5968H33.7258V38.0106L33.8994 37.9127C38.1661 35.5133 41.0813 31.2276 41.7772 26.3892C47.5411 23.0388 49.9208 18.7803 50.0787 18.4867L50.2901 18.0968L50.0787 17.706ZM25.5 1.64516C30.9833 1.64516 36.0488 4.22806 39.284 8.52194C35.7403 6.92202 31.2071 5.75806 25.5 5.75806C19.7929 5.75806 15.2597 6.92202 11.716 8.52194C14.9512 4.22806 20.0167 1.64516 25.5 1.64516ZM36.1936 18.0968C36.1936 23.993 31.3963 28.7903 25.5 28.7903C19.6038 28.7903 14.8065 23.993 14.8065 18.0968C14.8065 12.2005 19.6038 7.40323 25.5 7.40323C31.3963 7.40323 36.1936 12.2005 36.1936 18.0968ZM2.60924 18.0951C3.65803 16.4746 8.24309 10.2995 18.23 8.14931C15.1635 10.3966 13.1613 14.0127 13.1613 18.0968C13.1613 22.1776 15.161 25.7912 18.2226 28.0385C8.26695 25.8825 3.66296 19.7123 2.60924 18.0951ZM32.0807 43.9793L25.5 48.3661L18.9194 43.9793V38.9369L20.4782 39.8137C22.009 40.6741 23.7454 41.129 25.5 41.129C27.2546 41.129 28.991 40.6741 30.5219 39.8129L32.0807 38.9369V43.9793ZM33.0924 36.4806L29.7157 38.38C27.1452 39.8252 23.8549 39.8244 21.2843 38.38L17.9076 36.4798C14.4437 34.5311 11.9727 31.203 11.0744 27.3714C14.7061 29.1243 19.4425 30.4355 25.5 30.4355C31.5575 30.4355 36.2931 29.1243 39.9248 27.3722C39.0249 31.203 36.5539 34.5336 33.0924 36.4806ZM32.7708 28.0434C35.8366 25.797 37.8387 22.1809 37.8387 18.0968C37.8387 14.016 35.839 10.4024 32.7774 8.15506C42.7331 10.311 47.3371 16.4812 48.3908 18.0984C47.342 19.7189 42.7569 25.894 32.7708 28.0434Z" fill="#4169E1"/>
<path d="M25.5 25.5001C29.5825 25.5001 32.9033 22.1793 32.9033 18.0968C32.9033 14.0144 29.5825 10.6936 25.5 10.6936C21.4176 10.6936 18.0968 14.0144 18.0968 18.0968C18.0968 22.1793 21.4176 25.5001 25.5 25.5001ZM19.8078 17.2742C19.9476 16.3011 20.3309 15.4078 20.8952 14.6552L22.0106 15.7706L23.1738 14.6074L22.0584 13.492C22.811 12.9277 23.7043 12.5452 24.6774 12.4046V13.9839H26.3226V12.4046C27.2957 12.5444 28.189 12.9277 28.9417 13.492L27.8263 14.6074L28.9894 15.7706L30.1048 14.6552C30.6691 15.4078 31.0516 16.3011 31.1923 17.2742H29.6129V18.9194H31.1923C31.0524 19.8925 30.6691 20.7858 30.1048 21.5385L28.9894 20.4231L27.8263 21.5862L28.9417 22.7016C28.189 23.2659 27.2957 23.6492 26.3226 23.7891V22.2097H24.6774V23.7891C23.7043 23.6492 22.811 23.2659 22.0584 22.7016L23.1738 21.5862L22.0106 20.4231L20.8952 21.5385C20.3309 20.7858 19.9476 19.8925 19.8078 18.9194H21.3871V17.2742H19.8078Z" fill="#4169E1"/>
</g>
<defs>
<clipPath id="clip0_193_29">
<rect width="51" height="51" fill="white"/>
</clipPath>
</defs>
</svg>
