<svg width="51" height="52" viewBox="0 0 51 52" fill="none" xmlns="http://www.w3.org/2000/svg">
<path d="M50.6698 37.5013C50.0652 35.4613 48.8559 34.0333 47.2436 32.8092C47.4451 31.5853 47.4451 30.5653 47.4451 29.3412C47.4451 19.9573 41.8019 11.7972 33.3371 8.32925C33.1356 4.24925 29.7094 0.78125 25.477 0.78125C21.2446 0.78125 17.8183 4.24925 17.4152 8.32925C8.95043 11.7972 3.30723 19.9573 3.30723 29.3412C3.30723 30.5653 3.50877 31.5853 3.50877 32.8092C1.89643 33.8293 0.687169 35.4613 0.284083 37.5013C-0.320546 39.5412 0.08254 41.7852 1.09026 43.6213C2.09797 45.4572 3.91186 46.8853 5.92729 47.4972C6.53192 47.7012 7.33809 47.7012 7.94272 47.7012C9.15198 47.7012 10.3612 47.2933 11.5705 46.8853C15.3998 50.1493 20.4384 51.7812 25.477 51.7812C30.5155 51.7812 35.3526 49.9453 39.3834 46.8853C40.5927 47.4972 41.8019 47.7012 43.0112 47.7012C43.6158 47.7012 44.422 47.7012 45.0266 47.4972C47.0421 46.8853 48.8559 45.6612 49.8637 43.6213C51.0729 41.7852 51.2745 39.5412 50.6698 37.5013ZM14.5936 44.0293C14.9967 43.2132 15.3998 42.3973 15.8029 41.5812C16.4075 39.5412 16.0044 37.2972 14.9967 35.4613C13.989 33.6252 12.1751 32.1973 10.1597 31.5853C9.15197 31.3813 8.3458 31.3812 7.53963 31.3812C7.33809 30.7692 7.33809 29.9532 7.33809 29.3412C7.33809 21.9972 11.5705 15.4692 18.2214 12.4092C19.6322 15.0612 22.2523 17.1012 25.477 17.1012C28.7016 17.1012 31.3217 15.2652 32.7325 12.4092C39.3834 15.2652 43.6158 21.7932 43.6158 29.3412C43.6158 29.9532 43.6158 30.7692 43.4143 31.3812C42.6081 31.3812 41.6004 31.3813 40.7942 31.5853C38.7788 32.1973 36.9649 33.4212 35.9572 35.4613C34.9495 37.2972 34.5464 39.5412 35.151 41.5812C35.3526 42.3973 35.7557 43.2132 36.3603 44.0293C33.1356 46.4772 29.3063 47.7012 25.477 47.7012C21.6476 47.7012 17.8183 46.4772 14.5936 44.0293Z" fill="#FFBC00"/>
</svg>
