<svg xmlns="http://www.w3.org/2000/svg" viewBox="0 0 383.05 485.63"><defs><style>.cls-1{fill:#2e3192;}</style></defs><g id="Layer_2" data-name="Layer 2"><g id="Layer_1-2" data-name="Layer 1"><rect class="cls-1" x="75" y="235" width="40" height="40"/><rect class="cls-1" x="75" y="75" width="40" height="40"/><rect class="cls-1" x="75" y="155" width="40" height="40"/><rect class="cls-1" x="155" y="75" width="40" height="40"/><rect class="cls-1" x="155" y="155" width="40" height="40"/><path class="cls-1" d="M270,226.41V0H0V445H162.12A126.76,126.76,0,0,0,255,485.63c70.61,0,128.05-58.34,128.05-130.06C383.05,289,333.56,234,270,226.41ZM30,415V30H240V226.41C176.44,234,127,289,127,355.57A130.93,130.93,0,0,0,141.12,415Zm225,40.63c-54.06,0-98.05-44.89-98.05-100.06s44-100.06,98.05-100.06,98.05,44.89,98.05,100.06S309.06,455.63,255,455.63Z"/><polygon class="cls-1" points="275.26 327.58 255 291.74 234.74 327.58 195.56 336 222.37 366.21 218.09 407.06 255 390.27 291.91 407.06 287.63 366.21 314.44 336 275.26 327.58"/></g></g></svg>