<svg xmlns="http://www.w3.org/2000/svg" viewBox="0 0 766 800.87"><defs><style>.cls-1,.cls-9{isolation:isolate;}.cls-2{fill:#3f3d56;}.cls-3{fill:#e900cc;}.cls-4{fill:#2e3192;}.cls-5{fill:#2f2e41;}.cls-6{fill:#ffb8b8;}.cls-7{fill:#402312;}.cls-8{fill:#d0cde1;}.cls-9{opacity:0.1;}.cls-10{fill:#6c63ff;}.cls-11{fill:#f2f2f2;}.cls-12{fill:#d26e6e;}.cls-13{fill:#fff;}.cls-14{fill:#010101;}.cls-15,.cls-16{fill:#a45a18;}.cls-16,.cls-20,.cls-22{mix-blend-mode:screen;}.cls-17,.cls-23{mix-blend-mode:multiply;}.cls-18{fill:#47100e;}.cls-19,.cls-20{fill:#9d591a;}.cls-21,.cls-22{fill:#865520;}.cls-22,.cls-23{opacity:0.7;}</style></defs><g class="cls-1"><g id="Layer_2" data-name="Layer 2"><g id="Layer_1-2" data-name="Layer 1"><rect class="cls-2" y="766.44" width="766" height="2"/><rect class="cls-3" x="706.17" y="743.72" width="23.36" height="23.36"/><rect class="cls-3" x="102.1" y="740.27" width="23.36" height="23.36" transform="translate(-447.65 238.96) rotate(-38.98)"/><rect class="cls-2" x="382" y="91.07" width="2" height="328"/><rect class="cls-2" x="495" y="122.07" width="132" height="2"/><rect class="cls-2" x="139" y="122.07" width="132" height="2"/><path class="cls-2" d="M139.41,19l-.82-1.82c50.91-22.9,95.63-22.88,132.93.06l-1,1.7C233.77-3.65,189.68-3.63,139.41,19Z"/><path class="cls-2" d="M491.41,19l-.82-1.82c50.91-22.9,95.63-22.88,132.93.06l-1,1.7C585.77-3.65,541.68-3.63,491.41,19Z"/><circle class="cls-2" cx="205" cy="91.07" r="31"/><circle class="cls-2" cx="561" cy="91.07" r="31"/><circle class="cls-4" cx="68" cy="322.07" r="58"/><circle class="cls-4" cx="698" cy="322.07" r="58"/><path class="cls-2" d="M384.58,593.83c-4.72,0-9.63-.16-14.61-.49a233,233,0,0,1-30.57-4.19c-82.23-16.78-142.46-73.69-143.06-74.26l1.39-1.44c.59.57,60.42,57.08,142.07,73.74a230.85,230.85,0,0,0,30.3,4.15c5.45.36,10.81.53,15.93.49a205.81,205.81,0,0,0,31.84-2.66c48.3-7.88,93.53-33.35,134.45-75.7l1.43,1.39c-41.21,42.67-86.82,68.33-135.55,76.29A208.8,208.8,0,0,1,386,593.83Z"/><path class="cls-2" d="M68,381.07a68,68,0,1,1,68-68h0A68.07,68.07,0,0,1,68,381.07Zm0-134a66,66,0,1,0,66,66A66,66,0,0,0,68,247.07Z"/><path class="cls-2" d="M698,381.07a68,68,0,1,1,68-68h0A68.07,68.07,0,0,1,698,381.07Zm0-134a66,66,0,1,0,66,66A66,66,0,0,0,698,247.07Z"/><circle class="cls-2" cx="351" cy="423.07" r="9"/><circle class="cls-2" cx="415" cy="423.07" r="9"/><path class="cls-5" d="M525.43,737a41.65,41.65,0,0,1-1.31,5.62c-.64,1.81-1.63,3.47-2.22,5.3-1.87,5.8.72,12.27,4.86,16.76a27.31,27.31,0,0,0,13.33,7.91,54.54,54.54,0,0,0,11.46,1.21c10.65.36,21.58.68,31.67-2.74a55.25,55.25,0,0,0,9.2-4.18,6.84,6.84,0,0,0,2.39-1.88,6.66,6.66,0,0,0,.86-3.86c0-4.51-.94-9-.72-13.51.12-2.5.59-5,.36-7.49a13.82,13.82,0,0,0-10.56-11.89,28.46,28.46,0,0,0-8.74,0,222,222,0,0,1-22.77,1c-7.76,0-15.48-1.24-23.21-1.36-2.28,0-2.24.67-3,2.88A53,53,0,0,0,525.43,737Z"/><path class="cls-6" d="M547.46,625.51a13.45,13.45,0,0,1-2,5.59c-1.35,1.85-3.55,2.9-5,4.67-2.19,2.66-2.32,6.41-2.33,9.85,0,3.17.06,6.56,1.83,9.19a16,16,0,0,0,4.6,4.06c6.64,4.48,13.81,9,21.82,9.18,3.31.06,6.87-.8,9.05-3.3a13.55,13.55,0,0,0,2.19-3.91,51.77,51.77,0,0,0,3.68-15.8,18.78,18.78,0,0,0-.7-7.6c-1-2.71-2.94-4.94-4.24-7.51A16.66,16.66,0,0,1,574.8,620a1.12,1.12,0,0,0-.06-.72,1.06,1.06,0,0,0-.86-.35L558,617.83a34.41,34.41,0,0,1-4.41-.5c-.86-.18-3.11-1.39-3.93-1.07C548.17,616.86,547.77,623.89,547.46,625.51Z"/><path class="cls-7" d="M547.46,625.51a13.45,13.45,0,0,1-2,5.59c-1.35,1.85-3.55,2.9-5,4.67-2.19,2.66-2.32,6.41-2.33,9.85,0,3.17.06,6.56,1.83,9.19a16,16,0,0,0,4.6,4.06c6.64,4.48,13.81,9,21.82,9.18,3.31.06,6.87-.8,9.05-3.3a13.55,13.55,0,0,0,2.19-3.91,51.77,51.77,0,0,0,3.68-15.8,18.78,18.78,0,0,0-.7-7.6c-1-2.71-2.94-4.94-4.24-7.51A16.66,16.66,0,0,1,574.8,620a1.12,1.12,0,0,0-.06-.72,1.06,1.06,0,0,0-.86-.35L558,617.83a34.41,34.41,0,0,1-4.41-.5c-.86-.18-3.11-1.39-3.93-1.07C548.17,616.86,547.77,623.89,547.46,625.51Z"/><path class="cls-8" d="M550.73,656.5a14.39,14.39,0,0,0,4.09,3.27,12.77,12.77,0,0,0,5.11,1c4.19.12,8.74-.65,11.66-3.67,3.76-3.89,3.64-10.16,6.59-14.7a3.23,3.23,0,0,1,1-1,3.13,3.13,0,0,1,1.62-.38c3.72,0,7,2.38,9.9,4.69a13.06,13.06,0,0,1,3.48,3.55,12,12,0,0,1,1.17,3.59,159.54,159.54,0,0,1,2.4,21.58c.25,4,.51,8,.49,12-.06,13.17-3.12,26.13-6.17,38.95-.39,1.65-.93,3.5-2.43,4.29a6,6,0,0,1-2.12.52,262.17,262.17,0,0,1-26.25,2.19q-5.15.08-10.28-.25a5.67,5.67,0,0,1-1.73-.3,4.91,4.91,0,0,1-1.89-1.61c-4.75-6-5-14.26-5-21.9q.1-28,2-56c.11-1.54.13-3.41-1-4.62A57.75,57.75,0,0,0,550.73,656.5Z"/><path class="cls-4" d="M545.8,629.62c-.79,1.42-6.59,5-7.7,6.14-6.26,6.59-17.67,6.34-23.39,13.4a22,22,0,0,0-3.82,8.71c-1.09,4.39-1.67,9.17.15,13.31,1.75,4,5.44,6.73,7.95,10.29,2.75,3.9,4,8.64,5.17,13.27.87,3.42,1.76,6.92,1.42,10.43-.39,4-2.32,7.64-3.46,11.49s-1.34,8.42,1.3,11.44c1.93,2.22,5,3.1,7.88,3.59a89.56,89.56,0,0,0,11.22,1c3.32.15,7,.18,9.53-1.95a9.6,9.6,0,0,0,3-7,44.56,44.56,0,0,0-.78-7.81c-.35-2.69-.49-5.41-.6-8.13q-.76-18.27-.21-36.57a31.1,31.1,0,0,0-.37-7.59c-.71-3.27-2.47-6.18-4-9.18a34.79,34.79,0,0,1-3.85-18.35C545.75,629.53,548.6,624.56,545.8,629.62Z"/><path class="cls-4" d="M578.49,630.12c1.2,1.23,5.27,1.63,6.79,2.43a23.53,23.53,0,0,0,4.46,1.54,57.78,57.78,0,0,1,15.68,7.2,9.51,9.51,0,0,1,2.63,2.26,10.55,10.55,0,0,1,1.45,4.1,46.48,46.48,0,0,1,1.32,11.2c-.17,4-1.38,7.87-2.57,11.69l-4.47,14.27c-3.33,10.65-6.68,21.41-7.62,32.53a76.15,76.15,0,0,0,.69,18.47,2.17,2.17,0,0,1-.23,1.79,1.73,1.73,0,0,1-1.09.5c-2.15.34-4.24-.76-6.19-1.73a68.36,68.36,0,0,0-18.9-6.18,43.74,43.74,0,0,0,5.87-12.1,73.9,73.9,0,0,0,1.78-8.33l2.07-12a116,116,0,0,0,1.78-13.28,16.48,16.48,0,0,0-.29-5,24,24,0,0,0-1.89-4.51c-3.42-7.12-5-15.24-3.68-23,.59-3.41,1.73-6.82,1.25-10.24s0-5.85-.82-9.11C573,619.22,576.24,627.8,578.49,630.12Z"/><path class="cls-4" d="M514.65,660.41c-1.56,3.24-4.16,6-5,9.48a20.14,20.14,0,0,0-.44,5,23.32,23.32,0,0,0,.73,7.44c.5,1.54,1.3,3,1.88,4.46a16.15,16.15,0,0,1,1.06,6.6c-.15,3.12-1.21,6.15-1.3,9.27-.13,4.91,2.14,9.52,4.36,13.9a10.22,10.22,0,0,1,13.3-5.65,10.38,10.38,0,0,1,1.56.79,3.11,3.11,0,0,0,.67-2.22q.24-8.55.47-17.08c.24-8.81.47-17.74-1.56-26.31a24.83,24.83,0,0,0-5-10.73c-1.37-1.58-6-5.75-8.29-4-1,.79-.78,3-.94,4.06A16.89,16.89,0,0,1,514.65,660.41Z"/><path class="cls-4" d="M611.28,651.09a23.7,23.7,0,0,1,.8,7.16q0,7.38-.2,14.77a27.3,27.3,0,0,1-1,7.47c-.5,1.59-1.28,3.07-1.8,4.65-1.56,4.73-.71,9.86-.57,14.84a17.28,17.28,0,0,1-.41,4.81c-.82,3.08-3,5.58-4.58,8.38s-2.35,5.63-4.1,8.11-4.78,4.44-7.72,3.68c-2.22-.58-3.81-2.55-4.9-4.57a22.42,22.42,0,0,1-2.32-14.53c1.1-6.05,4.65-11.41,5.93-17.42,1.76-8.25-.91-16.76-.83-25.2a12.07,12.07,0,0,1,.53-3.91,16.14,16.14,0,0,1,3.45-5,63.67,63.67,0,0,0,4.63-6.08c.95-1.42,2.25-5.08,3.94-5.38C606,642.18,610.34,648.17,611.28,651.09Z"/><path class="cls-5" d="M495.06,733.33a22.94,22.94,0,0,0-6.39-.68,16,16,0,0,0-15.05,16.81,16.79,16.79,0,0,0,.24,2,26.74,26.74,0,0,0,2.53,6.92c1.69,3.44,3.73,6.87,6.87,9.07a26.56,26.56,0,0,0,6.06,2.89l16.52,6.22c2.43.92,4.87,1.84,7.32,2.69a143.41,143.41,0,0,0,38.23,7.6,41.48,41.48,0,0,0,11.87-.61,3.86,3.86,0,0,0,2.43-1.31,4.19,4.19,0,0,0,.54-1.79l1-7.12a5.87,5.87,0,0,0-.09-3,5.72,5.72,0,0,0-2.75-2.59c-10.86-6.24-23.55-9.69-32.69-18.25-2.16-2-4-5.22-6.58-6.58-3-1.56-6.46-2.44-9.52-3.88C508.91,738.59,502.32,735,495.06,733.33Z"/><path class="cls-9" d="M511.56,742.93c5.84,1.83,30.51,14.51,34.73,18.94-.56.2-19.79-10.57-20.37-10.75a115.27,115.27,0,0,1-15.49-5.46c-1-.46-6.51-2.64-6.26-3.9C504.45,740.33,510.52,742.6,511.56,742.93Z"/><path class="cls-7" d="M584.44,790.54a1.41,1.41,0,0,0,.93-.27,1.47,1.47,0,0,0,.29-1.07l0-9.7a29.87,29.87,0,0,0-9-2.16l-14.29-1.91c.33,0-2.24,6.15-1.84,7,.69,1.43,6,2.71,7.47,3.39C573.2,788.15,578.59,790.74,584.44,790.54Z"/><path class="cls-7" d="M539.61,779.47c-2.7.43-5.71.81-7.46,2.91-2.21,2.66-1.27,6.63-.21,9.93a3.21,3.21,0,0,0,3.66,2.7h.09c2.46.15,5.08.27,7.23-.93a32,32,0,0,0,2.81-2.09,18,18,0,0,1,5.16-2.36,52.49,52.49,0,0,1,10.37-2.14,15.75,15.75,0,0,0,4.08-.72,4.5,4.5,0,0,0,2.87-2.79c.5-1.76-.52-3.56-1.5-5.1a20.53,20.53,0,0,0-4.35-5.37c-2.66-2.07-4-.48-6.66.84A56.93,56.93,0,0,1,539.61,779.47Z"/><path class="cls-5" d="M532.56,781.9l-17.13-5.07a22.75,22.75,0,0,0-6.38-1.23A7.63,7.63,0,0,0,503.2,778c-1.33,1.55-1.71,3.69-2,5.71l-.71,4.32a21.78,21.78,0,0,0-.4,6.64,7.36,7.36,0,0,0,3.41,5.47c2.37,1.29,5.27.66,7.92.12a86.76,86.76,0,0,1,16.23-1.74c2,0,4.2,0,6-1a7.52,7.52,0,0,0,3.66-6C537.63,787.85,536.4,783,532.56,781.9Z"/><path class="cls-5" d="M591.17,777.48c2.22-.39,4.18-1.65,6.31-2.39,3-1.05,6.24-1.05,9.42-1a6,6,0,0,1,3.37.68c1.4.93,1.76,2.79,2,4.45l1.43,10a16,16,0,0,1,.12,5.68,5.34,5.34,0,0,1-3.53,4.13c-2.24.59-4.44-.84-6.56-1.78-5.28-2.35-11.43-1.75-16.94-3.51a3.79,3.79,0,0,1-2.54-1.81,4.27,4.27,0,0,1-.19-1.74c.09-3.22-.59-7.62.38-10.7C585.32,776.71,588.7,777.48,591.17,777.48Z"/><path class="cls-5" d="M627.43,729.29a29.58,29.58,0,0,1,10.48-.71c2.8.31,5.68,1.08,7.73,3,2.49,2.36,3.29,6,3.35,9.44a29.48,29.48,0,0,1-6.41,18.84,17,17,0,0,1-3.66,3.53,23.52,23.52,0,0,1-4.77,2.29l-37,14.6c-9.74,3.84-19.51,7.7-29.67,10.23a2.31,2.31,0,0,1-3.08-1.08l0-.05a76.85,76.85,0,0,1-8.11-14.84,1,1,0,0,1,.14-1.41,1.11,1.11,0,0,1,.3-.17l26.18-15a26.31,26.31,0,0,0,5.33-3.67,13.4,13.4,0,0,0,2.74-3.81c.54-1.13.59-3.81,1.28-4.64s3-.89,4.07-1.21a38.23,38.23,0,0,0,4.44-1.68c5.85-2.62,11.07-6.43,16.68-9.49A42.82,42.82,0,0,1,627.43,729.29Z"/><path class="cls-9" d="M612.58,740.53c-4.49,3.37-10.32,6.48-14.77,10-1.53,1.18-26.89,15.44-27.25,17.33,4.16.7,30.65-17.83,34.44-19.68a60.65,60.65,0,0,0,10.48-7c.85-.66,4.45-2.64,2-3.38C616.12,737.29,613.6,739.85,612.58,740.53Z"/><rect class="cls-2" x="540.35" y="635.57" width="43.09" height="52.01"/><path class="cls-7" d="M519.89,726a10.5,10.5,0,0,0,3.74,3.72,7.33,7.33,0,0,0,6.43-.17,11.33,11.33,0,0,0,4.63-4.65c2.18-3.85,2.63-8.45,2.36-12.85s-1.21-8.75-1.63-13.15c-.3-3.2-.33-6.41-.35-9.62a3.16,3.16,0,0,1,.4-1.95,3.83,3.83,0,0,1,2.15-1.07c4.39-1.3,7.31-5.42,9.4-9.5,1.39-2.72,2.61-5.7,2.34-8.75s-2.46-6.11-5.51-6.42c-2.51-.26-4.82,1.33-6.63,3.09a28.49,28.49,0,0,0-8.34,16.65c-.39,3.1-.28,6.28-1.12,9.29-1.8,6.43-7.43,10.36-10.24,16.14C514.43,713.15,516.14,720.38,519.89,726Z"/><path class="cls-7" d="M602.75,701.48A12.1,12.1,0,0,1,596,708a9.39,9.39,0,0,1-5.92.36,6.57,6.57,0,0,1-4.34-3.88,10.62,10.62,0,0,1-.49-2.91c-.28-4.33-.17-8.79,1.41-12.84.6-1.56,1.42-3,1.9-4.64a23.62,23.62,0,0,0,.72-5.67l.51-11.82a7.59,7.59,0,0,0-.17-2.56c-.52-1.71-2.12-2.83-3.58-3.85-3.54-2.46-7-5.33-8.76-9.29a6.57,6.57,0,0,1-.61-3.85c.49-2.35,2.86-3.87,5.2-4.38a11.62,11.62,0,0,1,13.83,8.87c0,.16.07.33.09.49.24,1.34.23,2.7.37,4.05.29,2.85,1.19,5.61,1.76,8.42,1.4,6.94.67,14.1,2.06,21C601.08,691.35,605.44,695.14,602.75,701.48Z"/><circle class="cls-10" cx="563" cy="654.07" r="7"/><circle class="cls-11" cx="212" cy="104.07" r="8"/><circle class="cls-11" cx="571" cy="104.07" r="8"/><ellipse class="cls-11" cx="601.52" cy="589.98" rx="8.08" ry="2.91"/><path class="cls-12" d="M596,602.3c-8.33,1.14-16.7-.21-24.79-2.18-4-1-8.09-2.37-12.24-1.86a9.94,9.94,0,0,0-5.23,2.08,10.1,10.1,0,0,0-1,1l.22-.09c.15,0,.21.18.07.24a2.11,2.11,0,0,0-.86.56,4.29,4.29,0,0,0-.72,1.67,3.18,3.18,0,0,0,.92,2.56c1.78,1.84,4.54,1.7,6.88,1.53a57.13,57.13,0,0,1,6.8-.16c2.25.09,4.5.31,6.74.59,4.5.56,9,1.42,13.46,1.93a54.14,54.14,0,0,0,13.34.19,27.94,27.94,0,0,0,3.24-.6,7.93,7.93,0,0,0,2.71-1.15c1.37-1,2.29-3.23.83-4.55,0,0,0,0,0,0l-.18.07c-8,3-16.62,3-25,2-4.43-.5-8.82-1.27-13.22-2a59.24,59.24,0,0,0-6.2-1,6.87,6.87,0,0,0-5.09,1.34.12.12,0,0,1-.17-.18,5.25,5.25,0,0,1,1.85-1.12,11.08,11.08,0,0,1,5-.22c.44.05.89.13,1.33.19s1.07.07,1.6.14c1.1.14,2.19.33,3.28.51,4.29.71,8.59,1.42,12.92,1.87,8,.82,16.47.69,24.1-2.25a16.92,16.92,0,0,0,2.67-1.21,3.15,3.15,0,0,0,1.61-1.88,1.6,1.6,0,0,0-1-2,3.9,3.9,0,0,0-2.56.62A35.77,35.77,0,0,1,596,602.3Z"/><path class="cls-7" d="M540.92,566a48.31,48.31,0,0,0-3.74,5,63.12,63.12,0,0,0-3.31,5.9,56,56,0,0,0-4.29,11.5,35.41,35.41,0,0,0-1,13,22.26,22.26,0,0,0,4,10.4,22,22,0,0,0,1.58,1.89.09.09,0,0,1,.13,0,25.62,25.62,0,0,0,9.7,5.64,52.25,52.25,0,0,0,11,2.2,102.72,102.72,0,0,0,11.63.73,47.83,47.83,0,0,0,11.06-1.22,40.06,40.06,0,0,0,5.06-1.45c.44-.17.9-.25,1.34-.43a12,12,0,0,0,1.14-.56l.25-.14a66.25,66.25,0,0,1-20.26,1.57c-4.41-.25-8.81-.79-13.2-1.28A40,40,0,0,1,540.25,616c-.16-.07,0-.29.13-.23,4.27,1.81,9,2.23,13.54,2.69,4.33.43,8.68.82,13,1a71.12,71.12,0,0,0,12.72-.48,44.13,44.13,0,0,0,10.72-2.87,36.15,36.15,0,0,0,5-2.45c1.28-.77,2.46-1.67,3.67-2.55a55.27,55.27,0,0,1-14.13-.4c-4.9-.67-9.77-1.58-14.69-2.15a66.47,66.47,0,0,0-7.33-.46c-1.24,0-2.48.07-3.73.17a14.81,14.81,0,0,1-3.82,0c-1.76-.32-3.7-1.42-4.17-3.29a3.44,3.44,0,0,1,.39-2.55s0,0,0,0c1.21-3.69,5.55-4.87,9-4.91a26.28,26.28,0,0,1,6.35.88c2.16.52,4.31,1.11,6.47,1.61,8.36,1.93,17.18,3,25.65,1.09a39,39,0,0,0,5.87-1.79c.93-.36,1.82-.82,2.75-1.18a5.49,5.49,0,0,1,1.51-.38,18.13,18.13,0,0,0-7-11.24,19.36,19.36,0,0,1-2.62.44,17.23,17.23,0,0,1-4.81-.17,15.24,15.24,0,0,1-4.58-1.37.11.11,0,0,1,.09-.2c.81.25,1.6.56,2.42.78a17.3,17.3,0,0,0,2.59.44,20.55,20.55,0,0,0,8.9-1.12c2.16-.78,5.06-2.14,5.86-4.49a4.44,4.44,0,0,1-1.26.22.13.13,0,0,1,0-.25,4.58,4.58,0,0,0,1.36-.28l.24-.1a4.08,4.08,0,0,0,1.36-1,4.26,4.26,0,0,0,.81-1.53,5.25,5.25,0,0,0,.14-.87v-.13a6.94,6.94,0,0,1-3.74,2A46.6,46.6,0,0,1,596,580a53.94,53.94,0,0,1-6.48-.55c-1.51-.23-3.22-.52-4.29-1.69a4,4,0,0,1-.53.55c-1.78,1.53-4.26,1.94-6.5,2.25a33,33,0,0,1-8.13.18,23.38,23.38,0,0,1-12.57-5.2c-.45,0-.91,0-1.35,0a8.42,8.42,0,0,1-3.89-.86,1.72,1.72,0,0,1-1.32-.86.88.88,0,0,1,.42-1.17,5,5,0,0,1,1.88-.33,25.35,25.35,0,0,0,2.72-.47c3-.68,6-1.79,9-2.76a50.92,50.92,0,0,1,9-2.23,20,20,0,0,1,9,.6,7,7,0,0,1,2.6,1.45,5.44,5.44,0,0,0-1.65-2.4,8,8,0,0,0-3.24-1.43,28.91,28.91,0,0,0-13.15.08,37.6,37.6,0,0,0-6.35,2.21c-1,.42-1.92.85-2.89,1.24a24.51,24.51,0,0,1-3.23,1,.1.1,0,0,1,0-.2,54.3,54.3,0,0,0,7.29-3,29.78,29.78,0,0,1,13.52-2.54,19.88,19.88,0,0,1,6.62,1.25l.57.26a30.08,30.08,0,0,0-5.83-4.2,24.74,24.74,0,0,0-14-3,22,22,0,0,0-6.89,1.78,24.92,24.92,0,0,0-5.93,3.87.05.05,0,0,1-.07-.08,17.33,17.33,0,0,1,6.64-4.4,23.29,23.29,0,0,1,14.29-.82A28.78,28.78,0,0,1,584,565.87a.19.19,0,0,1,0,.2,4,4,0,0,1,1.87,3.11.14.14,0,0,1-.06.12,2,2,0,0,1,.23.27,3.81,3.81,0,0,1,.69,3.38.25.25,0,0,1-.46,0h0a7.81,7.81,0,0,0-1-.48l0,.08a.08.08,0,0,1,.09,0,3.5,3.5,0,0,1,.75,1.81l.11-.1.23-.17.16-.08c1.71-1.26,3.85-1.55,5.88-2a56.11,56.11,0,0,1,7.41-1,54.47,54.47,0,0,1,6.76-.09c1.07,0,2.14.18,3.2.33a5.67,5.67,0,0,1,2.44.76,3.51,3.51,0,0,1,.36.29c.15-1.25-.73-2-1.8-2.5l-.19-.08a16.52,16.52,0,0,0-1.86-.64c-6.64-2-13.87-1.39-20.42.64a.05.05,0,1,1,0-.1,41.25,41.25,0,0,1,6.19-1.66,25.9,25.9,0,0,1,5.42-.47,31,31,0,0,1,5.53.49,24.71,24.71,0,0,1,5.09,1.38,3,3,0,0,0-1.25-1.6l-.36-.23a9.35,9.35,0,0,0-2.39-.88,21.63,21.63,0,0,0-5.07-.48c-1.61,0-3.22.06-4.82.14a28.56,28.56,0,0,0-4.71.66c-.75.17-1.48.4-2.23.59a8.59,8.59,0,0,0-2.18,1c-.09.06-.17-.09-.08-.14a13.7,13.7,0,0,1,5.17-2,46.58,46.58,0,0,1,5-.5c1.8-.1,3.6-.2,5.4-.14a15.41,15.41,0,0,1,5.16,1l.2.09a16.61,16.61,0,0,0-3.68-3.37,20.87,20.87,0,0,0-3.28-1.79l-.3-.12a21.72,21.72,0,0,0-6.95-1.59,42.45,42.45,0,0,0-13.16,1.63.07.07,0,0,1,0-.13,44.94,44.94,0,0,1,7.54-1.69A27.12,27.12,0,0,1,601,561a34.55,34.55,0,0,0-2.41-4.44,14.73,14.73,0,0,0-4.86-4.85,13.27,13.27,0,0,0-6.87-1.66,16.22,16.22,0,0,0-6.8,1.89,16.57,16.57,0,0,0-4.3,3c.37.45.72.91,1.06,1.4a26.37,26.37,0,0,1,1.39,2.35,16,16,0,0,1,1.1,2.47c0,.12-.14.2-.2.08a28.83,28.83,0,0,0-1.37-2.72,17.31,17.31,0,0,0-1.75-2.42c-.21-.25-.42-.5-.64-.74l-.1-.1a19.39,19.39,0,0,0-3.6-3.1,16.69,16.69,0,0,0-10.74-2.8,18.48,18.48,0,0,0-10,4.8,35,35,0,0,0-7.06,8.38,44.19,44.19,0,0,0-2.49,4.78,34.8,34.8,0,0,0-2,5.23.06.06,0,0,1-.11,0,36.79,36.79,0,0,1,1.81-6.18l.06-.14A.44.44,0,0,1,540.92,566ZM560,580.39a29.41,29.41,0,0,0,5.15,1.65,38.83,38.83,0,0,0,9.44.78,25.13,25.13,0,0,0,4.73-.55c1.52-.33,3-.79,4.48-1.23.06,0,.11.07,0,.1a22.64,22.64,0,0,1-5.18,1.44,31.44,31.44,0,0,1-9.58.44,34.52,34.52,0,0,1-9.14-2.55C559.92,580.44,560,580.36,560,580.39ZM547.71,607a8.53,8.53,0,0,0,1.46,3.14,4.05,4.05,0,0,0,1.43,1.06,8.74,8.74,0,0,0,.9.33,3.74,3.74,0,0,1,.8.26.11.11,0,0,1,0,.2,3.35,3.35,0,0,1-.94-.25,7.43,7.43,0,0,1-.82-.34,4.61,4.61,0,0,1-1.47-1.11,8.71,8.71,0,0,1-1.49-3.24C547.49,606.93,547.68,606.88,547.71,607Z"/><path class="cls-13" d="M586,574.77s-.06,0,0,0l.08-.09a2.83,2.83,0,0,0-.23-1.21,1.28,1.28,0,0,1-.2-.26l-.19-.3-.28-.47a13.27,13.27,0,0,0-6.39-.49c-5.12.63-10.05,2.25-15.13,3.08a42.72,42.72,0,0,1-5.77.58,21.79,21.79,0,0,0,5.85,3.34A28.63,28.63,0,0,0,578,580.16c2.14-.32,4.55-.7,6.26-2.16a4.88,4.88,0,0,0,1.74-3.27Z"/><path class="cls-13" d="M610.34,571.85a27.22,27.22,0,0,0-3-.31c-1-.06-2-.13-3.06-.12a63,63,0,0,0-6.29.36c-2.07.22-4.15.48-6.21.8a11.89,11.89,0,0,0-5.18,1.73s-.06,0-.08,0l-.13.09-.14.12a4.81,4.81,0,0,1-.89,3.13c1.31,1.43,3.66,1.42,5.44,1.62a66.12,66.12,0,0,0,6.75.44,47.67,47.67,0,0,0,6-.32,34.81,34.81,0,0,0,5.91-1.12,6.21,6.21,0,0,0,3.22-2,.4.4,0,0,1,0-.15s.05,0,.07,0h0a2.88,2.88,0,0,0,.41-1,2.6,2.6,0,0,0-.57-2.29A3.85,3.85,0,0,0,610.34,571.85Z"/><path class="cls-7" d="M573.12,572.52a44.88,44.88,0,0,1,7.08-1.17,10.61,10.61,0,0,1,6.12,1.19l.12-.24a3.73,3.73,0,0,0-1.36-3.12,8.54,8.54,0,0,0-3.91-1.66c-5.52-1.15-11.14.49-16.37,2.17-2.66.84-5.3,1.66-8,2.26-1.31.29-2.64.54-4,.7-.48.05-1.28.05-1.56.53a.57.57,0,0,0-.09.22.68.68,0,0,0,0,.14.78.78,0,0,0,.42.57,3.52,3.52,0,0,0,1,.37l0,0h0a5.79,5.79,0,0,0,1.62.52,18.45,18.45,0,0,0,3,.27h1.06C563.29,575.22,568.23,573.63,573.12,572.52Z"/><path d="M541.42,565.35a.07.07,0,0,0-.13,0l0,0h.16Z"/><path d="M611,569.57a3.07,3.07,0,0,0-1.74-2.33,16.25,16.25,0,0,0-7.89-6.12c-1.41-3.68-3.18-7.28-6.55-9.56a14.29,14.29,0,0,0-14.16-.67,17.13,17.13,0,0,0-5,4,19.13,19.13,0,0,0-2.53-2.48,17.2,17.2,0,0,0-10.58-3.8,17.39,17.39,0,0,0-10.73,3.93,35.63,35.63,0,0,0-7.78,8.38,33.75,33.75,0,0,0-2.56,4.49.49.49,0,0,1-.13.95.45.45,0,0,1-.26-.08l-.06.14a36.79,36.79,0,0,0-1.81,6.18.06.06,0,0,0,.11,0,34.8,34.8,0,0,1,2-5.23,44.19,44.19,0,0,1,2.49-4.78,35,35,0,0,1,7.06-8.38,18.48,18.48,0,0,1,10-4.8,16.69,16.69,0,0,1,10.74,2.8,19.39,19.39,0,0,1,3.6,3.1l.1.1c.22.24.43.49.64.74a17.31,17.31,0,0,1,1.75,2.42,28.83,28.83,0,0,1,1.37,2.72c.06.12.25,0,.2-.08a16,16,0,0,0-1.1-2.47,26.37,26.37,0,0,0-1.39-2.35c-.34-.49-.69-1-1.06-1.4a16.57,16.57,0,0,1,4.3-3,16.22,16.22,0,0,1,6.8-1.89,13.27,13.27,0,0,1,6.87,1.66,14.73,14.73,0,0,1,4.86,4.85A34.55,34.55,0,0,1,601,561a27.12,27.12,0,0,0-12.32-1.17,44.94,44.94,0,0,0-7.54,1.69.07.07,0,0,0,0,.13A42.45,42.45,0,0,1,594.34,560a21.72,21.72,0,0,1,6.95,1.59l.3.12a20.87,20.87,0,0,1,3.28,1.79,16.61,16.61,0,0,1,3.68,3.37l-.2-.09a15.41,15.41,0,0,0-5.16-1c-1.8-.06-3.6,0-5.4.14a46.58,46.58,0,0,0-5,.5,13.7,13.7,0,0,0-5.17,2c-.09,0,0,.2.08.14a8.59,8.59,0,0,1,2.18-1c.75-.19,1.48-.42,2.23-.59a28.56,28.56,0,0,1,4.71-.66c1.6-.08,3.21-.13,4.82-.14a21.63,21.63,0,0,1,5.07.48,9.35,9.35,0,0,1,2.39.88l.36.23a3,3,0,0,1,1.25,1.6,24.71,24.71,0,0,0-5.09-1.38,31,31,0,0,0-5.53-.49,25.9,25.9,0,0,0-5.42.47,41.25,41.25,0,0,0-6.19,1.66.05.05,0,1,0,0,.1c6.55-2,13.78-2.61,20.42-.64a16.52,16.52,0,0,1,1.86.64l.19.08c1.07.5,2,1.25,1.8,2.5a3.51,3.51,0,0,0-.36-.29,5.67,5.67,0,0,0-2.44-.76c-1.06-.15-2.13-.28-3.2-.33a54.47,54.47,0,0,0-6.76.09,56.11,56.11,0,0,0-7.41,1c-2,.42-4.17.71-5.88,2l-.16.08-.23.17-.11.1a3.5,3.5,0,0,0-.75-1.81.08.08,0,0,0-.09,0l0-.08a7.81,7.81,0,0,1,1,.48h0a.25.25,0,0,0,.46,0,3.81,3.81,0,0,0-.69-3.38,2,2,0,0,0-.23-.27.14.14,0,0,0,.06-.12,4,4,0,0,0-1.87-3.11.19.19,0,0,0,0-.2,28.78,28.78,0,0,0-12.85-7.39,23.29,23.29,0,0,0-14.29.82,17.33,17.33,0,0,0-6.64,4.4.05.05,0,0,0,.07.08,24.92,24.92,0,0,1,5.93-3.87,22,22,0,0,1,6.89-1.78,24.74,24.74,0,0,1,14,3,30.08,30.08,0,0,1,5.83,4.2l-.57-.26a19.88,19.88,0,0,0-6.62-1.25,29.78,29.78,0,0,0-13.52,2.54,54.3,54.3,0,0,1-7.29,3,.1.1,0,0,0,0,.2,24.51,24.51,0,0,0,3.23-1c1-.39,1.93-.82,2.89-1.24a37.6,37.6,0,0,1,6.35-2.21,28.91,28.91,0,0,1,13.15-.08,8,8,0,0,1,3.24,1.43,5.44,5.44,0,0,1,1.65,2.4,7,7,0,0,0-2.6-1.45,20,20,0,0,0-9-.6,50.92,50.92,0,0,0-9,2.23c-3,1-5.94,2.08-9,2.76a25.35,25.35,0,0,1-2.72.47,5,5,0,0,0-1.88.33.88.88,0,0,0-.42,1.17,1.72,1.72,0,0,0,1.32.86,8.42,8.42,0,0,0,3.89.86c.44,0,.9,0,1.35,0a23.38,23.38,0,0,0,12.57,5.2,33,33,0,0,0,8.13-.18c2.24-.31,4.72-.72,6.5-2.25a4,4,0,0,0,.53-.55c1.07,1.17,2.78,1.46,4.29,1.69A53.94,53.94,0,0,0,596,580a46.6,46.6,0,0,0,12.89-1.28,6.94,6.94,0,0,0,3.74-2v.13a5.25,5.25,0,0,1-.14.87,4.26,4.26,0,0,1-.81,1.53,4.08,4.08,0,0,1-1.36,1l-.24.1a4.58,4.58,0,0,1-1.36.28.13.13,0,0,0,0,.25,4.44,4.44,0,0,0,1.26-.22c-.8,2.35-3.7,3.71-5.86,4.49a20.55,20.55,0,0,1-8.9,1.12,17.3,17.3,0,0,1-2.59-.44c-.82-.22-1.61-.53-2.42-.78a.11.11,0,0,0-.09.2,15.24,15.24,0,0,0,4.58,1.37,17.23,17.23,0,0,0,4.81.17,19.36,19.36,0,0,0,2.62-.44,18.13,18.13,0,0,1,7,11.24,5.49,5.49,0,0,0-1.51.38c-.93.36-1.82.82-2.75,1.18A39,39,0,0,1,599,601c-8.47,1.86-17.29.84-25.65-1.09-2.16-.5-4.31-1.09-6.47-1.61a26.28,26.28,0,0,0-6.35-.88c-3.48,0-7.82,1.22-9,4.91,0,0,0,0,0,0a3.44,3.44,0,0,0-.39,2.55c.47,1.87,2.41,3,4.17,3.29a14.81,14.81,0,0,0,3.82,0c1.25-.1,2.49-.17,3.73-.17a66.47,66.47,0,0,1,7.33.46c4.92.57,9.79,1.48,14.69,2.15a55.27,55.27,0,0,0,14.13.4c-1.21.88-2.39,1.78-3.67,2.55a36.15,36.15,0,0,1-5,2.45A44.13,44.13,0,0,1,579.66,619a71.12,71.12,0,0,1-12.72.48c-4.34-.18-8.69-.57-13-1-4.57-.46-9.27-.88-13.54-2.69-.15-.06-.29.16-.13.23a40,40,0,0,0,11.82,2.77c4.39.49,8.79,1,13.2,1.28a66.25,66.25,0,0,0,20.26-1.57l-.25.14a12,12,0,0,1-1.14.56c-.44.18-.9.26-1.34.43a40.06,40.06,0,0,1-5.06,1.45,47.83,47.83,0,0,1-11.06,1.22,102.72,102.72,0,0,1-11.63-.73,52.25,52.25,0,0,1-11-2.2,25.62,25.62,0,0,1-9.7-5.64.09.09,0,0,0-.13,0,22,22,0,0,1-1.58-1.89,22.26,22.26,0,0,1-4-10.4,35.41,35.41,0,0,1,1-13,56,56,0,0,1,4.29-11.5,63.12,63.12,0,0,1,3.31-5.9,48.31,48.31,0,0,1,3.74-5,.54.54,0,0,1,0-.25c-1.26,1.4-2.45,2.87-3.58,4.37a48,48,0,0,0-3.46,5.17A51.3,51.3,0,0,0,529,587a36.34,36.34,0,0,0-1.28,13.44,24.6,24.6,0,0,0,3.86,10.9,18.4,18.4,0,0,0,9.13,7.4h.12c.53.25,1.06.5,1.61.72a43.73,43.73,0,0,0,10.82,2.67c7.69,1,15.72,1.47,23.36-.13a31.53,31.53,0,0,0,5.71-1.79c.89-.37,1.7-.87,2.58-1.27.42-.19.83-.38,1.23-.59,1.1-.3,2.2-.64,3.28-1a34,34,0,0,0,5.6-2.62,21.14,21.14,0,0,0,5-3.69,25.66,25.66,0,0,0,3.14-.63,7.72,7.72,0,0,0,3.1-1.5c1.4-1.2,2-3.63.6-5.06.67-.26,1.34-.55,2-.86a5.58,5.58,0,0,0,2-1.52c.86-1.14.79-3.1-.74-3.63a2.33,2.33,0,0,0-.79-.12,16.57,16.57,0,0,0-6.76-11.35c.56-.15,1.11-.32,1.65-.52a14,14,0,0,0,4-2.19,6,6,0,0,0,2-3,4.22,4.22,0,0,0,1.65-1.18,4.07,4.07,0,0,0,.82-1.6,4.45,4.45,0,0,0,.13-.89,2.67,2.67,0,0,0,0-.49c.08-.13.16-.26.23-.39a3.18,3.18,0,0,0-.16-3.54C613.39,571.2,612.11,570.11,611,569.57Zm-1.11,28.68a1.6,1.6,0,0,1,1,2,3.15,3.15,0,0,1-1.61,1.88,16.92,16.92,0,0,1-2.67,1.21c-7.63,2.94-16.06,3.07-24.1,2.25-4.33-.45-8.63-1.16-12.92-1.87-1.09-.18-2.18-.37-3.28-.51-.53-.07-1.07-.07-1.6-.14s-.89-.14-1.33-.19a11.08,11.08,0,0,0-5,.22,5.25,5.25,0,0,0-1.85,1.12.12.12,0,0,0,.17.18,6.87,6.87,0,0,1,5.09-1.34,59.24,59.24,0,0,1,6.2,1c4.4.7,8.79,1.47,13.22,2,8.33,1,17,1,25-2l.18-.07s0,0,0,0c1.46,1.32.54,3.56-.83,4.55a7.93,7.93,0,0,1-2.71,1.15,27.94,27.94,0,0,1-3.24.6,54.14,54.14,0,0,1-13.34-.19c-4.5-.51-9-1.37-13.46-1.93-2.24-.28-4.49-.5-6.74-.59a57.13,57.13,0,0,0-6.8.16c-2.34.17-5.1.31-6.88-1.53a3.18,3.18,0,0,1-.92-2.56,4.29,4.29,0,0,1,.72-1.67,2.11,2.11,0,0,1,.86-.56c.14-.06.08-.28-.07-.24l-.22.09a10.1,10.1,0,0,1,1-1,9.94,9.94,0,0,1,5.23-2.08c4.15-.51,8.25.89,12.24,1.86,8.09,2,16.46,3.32,24.79,2.18a35.77,35.77,0,0,0,11.29-3.43A3.9,3.9,0,0,1,609.88,598.25Zm-52.39-23h-.31a18.45,18.45,0,0,1-3-.27,5.79,5.79,0,0,1-1.62-.52h0l0,0a3.52,3.52,0,0,1-1-.37.78.78,0,0,1-.42-.57.68.68,0,0,1,0-.14.57.57,0,0,1,.09-.22c.28-.48,1.08-.48,1.56-.53,1.33-.16,2.66-.41,4-.7,2.73-.6,5.37-1.42,8-2.26,5.23-1.68,10.85-3.32,16.37-2.17a8.54,8.54,0,0,1,3.91,1.66,3.73,3.73,0,0,1,1.36,3.12l-.12.24a10.61,10.61,0,0,0-6.12-1.19,44.88,44.88,0,0,0-7.08,1.17c-4.89,1.11-9.83,2.7-14.88,2.77ZM584.27,578c-1.71,1.46-4.12,1.84-6.26,2.16a28.63,28.63,0,0,1-14.34-1.25,21.79,21.79,0,0,1-5.85-3.34,42.72,42.72,0,0,0,5.77-.58c5.08-.83,10-2.45,15.13-3.08a13.27,13.27,0,0,1,6.39.49l.28.47.19.3a1.28,1.28,0,0,0,.2.26,2.83,2.83,0,0,1,.23,1.21l-.08.09s0,.07,0,0l0,0A4.88,4.88,0,0,1,584.27,578Zm28.89-2.88a2.88,2.88,0,0,1-.41,1h0s-.07,0-.07,0a.4.4,0,0,0,0,.15,6.21,6.21,0,0,1-3.22,2,34.81,34.81,0,0,1-5.91,1.12,47.67,47.67,0,0,1-6,.32,66.12,66.12,0,0,1-6.75-.44c-1.78-.2-4.13-.19-5.44-1.62a4.81,4.81,0,0,0,.89-3.13l.14-.12.13-.09s.05,0,.08,0a11.89,11.89,0,0,1,5.18-1.73c2.06-.32,4.14-.58,6.21-.8a63,63,0,0,1,6.29-.36c1,0,2,.06,3.06.12a27.22,27.22,0,0,1,3,.31,3.85,3.85,0,0,1,2.25,1A2.6,2.6,0,0,1,613.16,575.12Z"/><path d="M569.12,583a31.44,31.44,0,0,0,9.58-.44,22.64,22.64,0,0,0,5.18-1.44c.06,0,0-.12,0-.1-1.48.44-3,.9-4.48,1.23a25.13,25.13,0,0,1-4.73.55,38.83,38.83,0,0,1-9.44-.78,29.41,29.41,0,0,1-5.15-1.65c-.06,0-.11.05,0,.08A34.52,34.52,0,0,0,569.12,583Z"/><path d="M549,610.28a4.61,4.61,0,0,0,1.47,1.11,7.43,7.43,0,0,0,.82.34,3.35,3.35,0,0,0,.94.25.11.11,0,0,0,0-.2,3.74,3.74,0,0,0-.8-.26,8.74,8.74,0,0,1-.9-.33,4.05,4.05,0,0,1-1.43-1.06,8.53,8.53,0,0,1-1.46-3.14c0-.11-.22-.06-.18,0A8.71,8.71,0,0,0,549,610.28Z"/><path class="cls-14" d="M541.09,566.23a.45.45,0,0,0,.26.08.49.49,0,0,0,.13-.95h-.22a.45.45,0,0,0-.37.42.54.54,0,0,0,0,.25A.44.44,0,0,0,541.09,566.23Z"/><path d="M574.61,577.48a10.84,10.84,0,0,0,3.55.22,9.81,9.81,0,0,0,4.15-1.09,4.83,4.83,0,0,0,2.49-3.35,1.3,1.3,0,0,0-.35-1.24,1.41,1.41,0,0,0-.7-.22,25.36,25.36,0,0,0-8.46.54c-1.41.3-2.79.66-4.18,1-.63.18-1.23.2-.81.94a5.66,5.66,0,0,0,1,1.29A7.47,7.47,0,0,0,574.61,577.48Z"/><path d="M599.72,576.81a11.12,11.12,0,0,0,3.55.23,9.92,9.92,0,0,0,4.15-1.09,4.85,4.85,0,0,0,2.49-3.36,1.31,1.31,0,0,0-.35-1.24,1.41,1.41,0,0,0-.7-.22,25.1,25.1,0,0,0-8.46.55c-1.4.29-2.79.65-4.18,1-.63.17-1.23.19-.81.94a6.13,6.13,0,0,0,1,1.29A7.36,7.36,0,0,0,599.72,576.81Z"/><path d="M594.83,572.24a15.17,15.17,0,0,1,6.52-1,1.7,1.7,0,0,1,.71.14.7.7,0,0,1,.42.55,1,1,0,0,1-.52.76C600.38,573.76,595.48,575.2,594.83,572.24Z"/><path class="cls-13" d="M573.82,573.63a1.42,1.42,0,0,0,0,.71.58.58,0,0,0,.56.37c.38,0,.51-.6.26-.88a.85.85,0,0,0-1-.09"/><path class="cls-13" d="M577.29,574.87a2,2,0,0,0,.3,1,1,1,0,0,0,.93.43.92.92,0,0,0,.44-.25,1,1,0,0,0,.18-1.18.94.94,0,0,0-1.09-.43.86.86,0,0,0-.5,1"/><path class="cls-13" d="M605,573.16a1,1,0,0,0-.45,1.1,1,1,0,0,0,1,.67,1,1,0,0,0,.77-1.28.9.9,0,0,0-1.45-.21"/><path class="cls-13" d="M599.84,572.32a.42.42,0,1,0,.75-.15.44.44,0,0,0-.71.05"/><path class="cls-15" d="M580.34,528.35a17.85,17.85,0,0,0,2.77-3.93c3,1.13,6.08-.21,9.61-2.95a13.22,13.22,0,0,1-1.64,5.76c2.77.53,7.13,1.25,10-2.41a15.67,15.67,0,0,1-.85,5.17c2.86.53,5.45,3.15,8.6,6.78,0,0-4.87-2-8.55.41a10.94,10.94,0,0,1,2.55-4.82,9.28,9.28,0,0,0-6.81,4.48,53.34,53.34,0,0,1,.79-6.34s-4.75,4.35-11.27,0a9.61,9.61,0,0,0,4.09-2.82S585.08,530.65,580.34,528.35Z"/><path class="cls-16" d="M606.88,535.53s-3.74-5.27-8.51-4.84a11.43,11.43,0,0,1,3.67,1.82,12,12,0,0,0-4.86-1,10.84,10.84,0,0,1,3.06,1.52,7.64,7.64,0,0,0-3.65-.16,3.9,3.9,0,0,1,2.15,1l1.52-.71a20.58,20.58,0,0,1,2.3-.69c-.57.89-1.47,2.5-1.47,2.5a6.33,6.33,0,0,1,2.57.74,6.82,6.82,0,0,0-1.27-1.49,9.61,9.61,0,0,1,3,1.41,11.93,11.93,0,0,0-2.21-2.63A17.67,17.67,0,0,1,606.88,535.53Z"/><path class="cls-16" d="M599.14,529.16s-5.45,2.29-10.69.43C590,531,594,531,594,531a12.08,12.08,0,0,1-6.74-.5c2,1.62,6,1.84,9.32.16A6.27,6.27,0,0,0,599.14,529.16Z"/><path class="cls-16" d="M591.24,523.68s-2.9,3.36-8.59,2.67a10.94,10.94,0,0,0,4.82.77,13.68,13.68,0,0,1-5.63.54c2.46,1.83,7.48.65,9.51-2.34a12.52,12.52,0,0,1-3.27,1.65A8.85,8.85,0,0,0,591.24,523.68Z"/><g class="cls-17"><path class="cls-15" d="M582.26,525.87c.52-.81.85-1.45.85-1.45,3,1.13,6.08-.21,9.61-2.95h0l-.15.31S590,526.84,582.26,525.87Z"/><path class="cls-15" d="M594.67,528.94a6.06,6.06,0,0,0,3.47,0c-3.41,1.9-8,.36-9.83.18l1.51-1.46a5.09,5.09,0,0,0,1-.35,1.88,1.88,0,0,0,.33-.19l0,.07c2.77.53,7.13,1.25,10-2.41a1,1,0,0,1,0,.17l-.13.24C599.15,528.35,594.67,528.94,594.67,528.94Z"/></g><path class="cls-18" d="M580.26,528.2l-.2.2.23.11a10,10,0,0,0,8.53-.22,10.81,10.81,0,0,1-1.79,1.35,6.75,6.75,0,0,1-1.48.65l-.37.11.33.22c4.71,3.17,8.5,1.85,10.34.77h0a7.62,7.62,0,0,0,.78-.51,52.66,52.66,0,0,0-.71,6l0,.53.27-.4a10.27,10.27,0,0,1,3.42-3.31,8.47,8.47,0,0,1,2.87-1.06,11,11,0,0,0-2.27,4.54l-.09.39.28-.18c3.59-2.38,8.41-.42,8.45-.4l.13-.3c-3.42-3.95-5.81-6.22-8.49-6.79a16.47,16.47,0,0,0,.78-5v-.42l-.24.29a7.4,7.4,0,0,1-2,1.78h0c-2.59,1.51-5.69,1-7.65.63a13.88,13.88,0,0,0,1.51-5.63v-.31l-.2.16a23.25,23.25,0,0,1-2.64,1.81c-2.64,1.54-4.82,1.9-6.86,1.12l-.1,0,0,.11A17.88,17.88,0,0,1,580.26,528.2Zm.36.09a18.25,18.25,0,0,0,2.55-3.67c2.05.75,4.32.37,7-1.17a23.12,23.12,0,0,0,2.45-1.66A13.13,13.13,0,0,1,591,527.1l-.2.25.27,0c2,.38,5.27,1,8-.61h0a7.44,7.44,0,0,0,1.87-1.56,15.14,15.14,0,0,1-.83,4.68l-.09.22.19,0c2.57.47,4.87,2.55,8.1,6.23-1.36-.43-4.87-1.27-7.76.41l-.05,0a11.07,11.07,0,0,1,2.41-4.34l.32-.33-.41,0a7.94,7.94,0,0,0-3.38,1.13,10.46,10.46,0,0,0-3.25,3,52.5,52.5,0,0,1,.75-5.79l.08-.46-.29.27a7.67,7.67,0,0,1-1,.71c-1.75,1-5.32,2.28-9.78-.55a8.28,8.28,0,0,0,1.18-.55,10.87,10.87,0,0,0,2.61-2.2l.71-.85-.86.56-.18.11C588.66,528,584.7,530.13,580.62,528.29Z"/><path class="cls-19" d="M588.56,553.29c-.58-8.43.28-13,3.11-16.17a66.09,66.09,0,0,0,5.17-6.62,53.34,53.34,0,0,0-.79,6.34,9.28,9.28,0,0,1,6.81-4.48,10.94,10.94,0,0,0-2.55,4.82c3.68-2.44,8.55-.41,8.55-.41s-8.58,4.23-10,12.44-3.62,15.86-10,15.71c-3.22-.08-5.61-1.71-8.06-3.82h0C583.44,562.68,589.14,561.73,588.56,553.29Z"/><path class="cls-20" d="M606.33,537.37s-5.39,3.86-7.22,8.8-1.06,8.86-4.59,13.7c2-4.28,2.78-11.32,2.78-11.32s-1.28,4.89-2.31,8.11c1.12-5.86.92-9,1.58-10.69-1.26,2.32-1.71,8.34-1.71,8.34s-.63-6.52,1.47-11.11a13.82,13.82,0,0,1,6.94-6.44,13,13,0,0,0-5.39,6.15,16.25,16.25,0,0,1,6.58-6,17.19,17.19,0,0,0-6.1,8.44A19.58,19.58,0,0,1,606.33,537.37Z"/><path class="cls-20" d="M598.51,538.08a19.71,19.71,0,0,0-4,8.74c-.67,4.79-.83,10.25-2.27,12.9.95-4,1.06-11.29,1.06-11.29s-.53,7-1.24,9.13c.27-5,.27-11,.27-11s-.66,5.6-.75,8.11c-.44-6.3.46-12.55,3.73-17.36a34.54,34.54,0,0,0-2.43,7.81,22.54,22.54,0,0,1,5.06-9.35,23.58,23.58,0,0,0-4.29,10.62A21.75,21.75,0,0,1,598.51,538.08Z"/><path class="cls-20" d="M594.06,538s-3.6,5.34-2.84,16.44a43.61,43.61,0,0,1-.38-9s-.54,2.68-.11,10.52a30.26,30.26,0,0,1-.44-12.75c.54-2.8,4.26-7.78,4.26-7.78a17.1,17.1,0,0,0-3.64,8.39A17.12,17.12,0,0,1,594.06,538Z"/><g class="cls-17"><path class="cls-19" d="M580.79,561.1c2.65,1.58,8.35.63,7.77-7.81s.28-13,3.11-16.17a65.59,65.59,0,0,0,4.82-6.12l.09.13c-1.64,4.31-5.14,6.32-6.38,11.12s-.42,10.11-.25,12.75a8.53,8.53,0,0,1-1.39,5.79c-.86,1,3.08.83,2.55-5.49a7.18,7.18,0,0,1-.78,6.28c-.85,1.33,2.08.4,3.25-3.55a15.55,15.55,0,0,0,.62-6,17.82,17.82,0,0,1-.68,7.83c-1.48,4,1.92,1.6,3.63-3.49a12,12,0,0,1,.48-1.18c-1.51,5.58-4,9.82-8.78,9.71-3.22-.08-5.61-1.71-8.06-3.82Z"/></g><path class="cls-18" d="M580.84,560.94l-.13.31c2.63,2.26,5,3.77,8.14,3.85a6.67,6.67,0,0,0,3.58-.89c4-2.32,5.58-8.87,6.6-15,1.14-6.76,7.32-10.84,9.19-11.93.43-.25.69-.38.69-.38l.37-.18-.38-.16s-4.68-1.91-8.32.21l-.05,0a11,11,0,0,1,2.41-4.34l.32-.33-.41,0a7.94,7.94,0,0,0-3.38,1.13,10.46,10.46,0,0,0-3.25,3,52.5,52.5,0,0,1,.75-5.79l.13-.72-.37.55a64.82,64.82,0,0,1-5.14,6.6c-2.87,3.18-3.75,7.75-3.16,16.33.33,4.74-1.34,6.75-2.79,7.6A4.89,4.89,0,0,1,580.84,560.94Zm.93.76a5.09,5.09,0,0,0,4-.47c1.25-.73,3.31-2.74,3-8-.59-8.44.27-12.94,3.06-16a65.26,65.26,0,0,0,4.82-6.13,51.64,51.64,0,0,0-.66,5.7l0,.53.27-.4a10.27,10.27,0,0,1,3.42-3.31,8.47,8.47,0,0,1,2.87-1.06,11,11,0,0,0-2.27,4.54l-.09.39.28-.18c3-2,6.87-1,8.07-.54l-.33.19c-1.9,1.11-8.18,5.26-9.34,12.18-1,6-2.57,12.46-6.45,14.72a6.44,6.44,0,0,1-3.47.85C586.16,564.68,584,563.51,581.77,561.7Z"/><path class="cls-21" d="M548.78,542.37c1.8-1.93,2-7.81,6.64-12.19a13.94,13.94,0,0,0-1,4.37S560,525,569,522.58a19.88,19.88,0,0,0-3.12,4,29.08,29.08,0,0,1,9.43-1.72,13.08,13.08,0,0,0,8.56-3.58,14,14,0,0,1-.8,3.18,17.85,17.85,0,0,1-2.77,3.93c4.74,2.3,9.32-.71,9.32-.71a9.61,9.61,0,0,1-4.09,2.82c6.52,4.39,11.27,0,11.27,0a66.09,66.09,0,0,1-5.17,6.62c-2.83,3.14-3.69,7.74-3.11,16.17s-5.12,9.39-7.77,7.81h0c-2.45-2.11-5-4.68-8.44-6.64-7-3.94-19.62-7-30.62,11.42C540.93,567.23,540.35,552.55,548.78,542.37Z"/><path class="cls-22" d="M591.75,533.76A19.64,19.64,0,0,0,585.63,544c-1.62,6.77-3.34,8-5.89,8.24,4.12-2.79,4.5-10.19,4.5-10.19s-1.85,8.63-6.15,9.23c3.6-3.87,3-7.75,5.22-12a17.9,17.9,0,0,1,5.72-6.44,21.08,21.08,0,0,0-4.31,7.56C587.08,536.84,589.31,534.93,591.75,533.76Z"/><path class="cls-22" d="M585.65,533.55a27.34,27.34,0,0,0-4.23,8c-1.41,4.46-3.48,6.35-6.95,6.29,4.14-1.74,5.36-6.4,5.36-6.4s-2.52,6-8.57,5.41c4.21-1.39,6.21-5.76,6.21-5.76s-4.39,5.81-9.47,4.84c3.73-1,6.2-5,6.2-5s-4.19,4.63-9.61,5c5-3.47,8-14.18,14.11-18.32a38.57,38.57,0,0,0-5.43,9.48c2.54-4.69,4.3-6,8-7.22-3.22,2-5.6,7.87-5.6,7.87a12.51,12.51,0,0,1,8.75-7.38c-4,2.14-6.65,7.61-6.65,7.61a17.55,17.55,0,0,1,6.94-6.22c-3,2.47-4.79,7.44-4.79,7.44S582.12,535.15,585.65,533.55Z"/><path class="cls-22" d="M577.38,526.45c-4.47,5.12-8.55,13-12,14.19a28.45,28.45,0,0,0,4-6.42s-4.69,6.79-8.61,9.18c3.7-4.51,4.29-7.44,4.29-7.44s-4.3,7.4-8.39,9.83a20.71,20.71,0,0,0,4.52-8.59,57.51,57.51,0,0,1-6,9.2c2-4.22,4.07-9.36,4.07-9.36a19.86,19.86,0,0,0-4.47,8.17c0-7.65,4-15.58,9.75-19.2-3.44,3.36-5.59,9.08-5.59,9.08s2.32-6.16,8.52-8.27c-3.34,2.21-5.57,7.26-5.57,7.26s4.71-6.44,11.3-8.34c-4,2.48-6.65,7.56-6.65,7.56s5.57-6,8.67-7.7a28.2,28.2,0,0,0-4.88,6.82S575.42,527.33,577.38,526.45Z"/><g class="cls-23"><path class="cls-21" d="M548.78,542.37c1.8-1.93,2-7.81,6.64-12.19a13.94,13.94,0,0,0-1,4.37s5.26-8.84,13.69-11.67l.41,0a23.35,23.35,0,0,0-13.71,17.22,8.54,8.54,0,0,1-1.08-3.95s-4.13,8-.62,10.71,6.7-4.49,15.1-6.1c-4.07,1.92-6.93,6.57-2.08,6.07s8.62,4.28,13.68,0c-1,2.58-4.82,3.78-4.82,3.78,3.65,1.36,7.38,7.89,9.71.95s1.18-7.79,4-12.13,5.46-5.65,7.55-8.32c.13-.17.27-.34.42-.5l.25-.2a66.09,66.09,0,0,1-5.17,6.62c-2.83,3.14-3.69,7.74-3.11,16.17s-5.12,9.39-7.77,7.81h0c-2.45-2.11-5-4.68-8.44-6.64-7-3.94-19.62-7-30.62,11.42C540.93,567.23,540.35,552.55,548.78,542.37Z"/></g><path class="cls-18" d="M541.41,566c.12.24.27.18.31.16h0a.51.51,0,0,0,.12-.13c3.29-5.52,7-9.5,11-11.83,7.59-4.43,14.78-2.19,19.47.46a38.51,38.51,0,0,1,6.79,5.19c.56.5,1.09,1,1.62,1.44a5.1,5.1,0,0,0,5,0c1.25-.73,3.31-2.74,3-8-.59-8.44.27-12.94,3.06-16a70.17,70.17,0,0,0,5.18-6.64l-.18-.26a7.67,7.67,0,0,1-1,.71c-1.75,1-5.32,2.28-9.78-.55a7.31,7.31,0,0,0,1.18-.55,10.87,10.87,0,0,0,2.61-2.2l.71-.85-.86.56-.18.11c-.76.45-4.72,2.53-8.8.7a18.19,18.19,0,0,0,2.6-3.77,13.8,13.8,0,0,0,.82-3.24l.07-.46-.28.28a12.83,12.83,0,0,1-2.44,1.82,12,12,0,0,1-6,1.72,29.41,29.41,0,0,0-9.06,1.59,18.85,18.85,0,0,1,2.83-3.5l.5-.49-.61.17a19.37,19.37,0,0,0-4.64,2,32.23,32.23,0,0,0-9.81,9.6,16.93,16.93,0,0,1,1-3.72l.23-.63-.43.41c-2.94,2.76-4.09,6.06-5,8.71a11,11,0,0,1-1.62,3.48C541.06,551.45,540.68,564.5,541.41,566Zm0-1.59c-.16-4.27,1.18-14.34,7.42-21.87a10.9,10.9,0,0,0,1.69-3.6,20.55,20.55,0,0,1,4.51-8.16,13,13,0,0,0-.83,3.81v.51l.24-.4a32.05,32.05,0,0,1,10-9.95,19.23,19.23,0,0,1,4-1.78,19.82,19.82,0,0,0-2.65,3.51l-.25.43.39-.16a29.53,29.53,0,0,1,9.39-1.71,12.33,12.33,0,0,0,6.15-1.75,13.44,13.44,0,0,0,2.21-1.6,12.15,12.15,0,0,1-.71,2.67,17.88,17.88,0,0,1-2.74,3.88l-.2.2.23.11a10,10,0,0,0,8.53-.22,10.81,10.81,0,0,1-1.79,1.35,6.75,6.75,0,0,1-1.48.65l-.37.11.33.22c4.71,3.17,8.5,1.85,10.34.77l.32-.19a67.89,67.89,0,0,1-4.58,5.78c-2.87,3.18-3.75,7.75-3.16,16.33.33,4.74-1.34,6.75-2.79,7.6a4.89,4.89,0,0,1-4.8,0l-1.59-1.42a38.91,38.91,0,0,0-6.85-5.22c-4.74-2.69-12-4.94-19.68-.46-4,2.35-7.77,6.36-11.09,11.92A4.63,4.63,0,0,1,541.45,564.37Z"/></g></g></g></svg>