<svg xmlns="http://www.w3.org/2000/svg" viewBox="0 0 552.94 367.92"><defs><style>.cls-1{isolation:isolate;}.cls-2{fill:#e6e7e8;}.cls-3{fill:#3f3d56;}.cls-4{fill:#6c63ff;}.cls-5{fill:#ffb6b6;}.cls-6{fill:#2e3192;}.cls-7{fill:#d200e9;}.cls-8{fill:#a0616a;}.cls-9{fill:#2f2e41;}.cls-10{fill:#d26e6e;}.cls-11{fill:#fff;}.cls-12{fill:#010101;}.cls-13{fill:#30302f;}.cls-14{fill:#e1dbd0;}.cls-15{fill:#e8e2d8;}.cls-16{fill:#c8bdb3;}.cls-17,.cls-18{fill:#a45a18;}.cls-18,.cls-22,.cls-24,.cls-27,.cls-30,.cls-32{mix-blend-mode:screen;}.cls-19,.cls-25{mix-blend-mode:multiply;}.cls-20{fill:#47100e;}.cls-21,.cls-22{fill:#9d591a;}.cls-23,.cls-24{fill:#865520;}.cls-24,.cls-25,.cls-32{opacity:0.7;}.cls-26,.cls-27{fill:#433d3d;}.cls-28{fill:#000007;}.cls-29,.cls-30{fill:#3f3c3d;}.cls-31,.cls-32{fill:#30383d;}</style></defs><g class="cls-1"><g id="Layer_2" data-name="Layer 2"><g id="Layer_1-2" data-name="Layer 1"><path class="cls-2" d="M213.78,33.24H146.69a4.18,4.18,0,0,1,0-8.35h67.09a4.18,4.18,0,0,1,0,8.35Z"/><path class="cls-2" d="M266.13,47.37H146.7a4.18,4.18,0,1,1,0-8.35H266.13a4.18,4.18,0,1,1,0,8.35Z"/><path class="cls-2" d="M266.13,61.37H146.7a4.18,4.18,0,1,1,0-8.35H266.13a4.18,4.18,0,1,1,0,8.35Z"/><path class="cls-3" d="M278.78,134v-2c-23.08,0-43.24-18.86-48.6-45.13l8.7,2.24c-4.21-4-8.46-10.66-11.1-16.11-1.55,5.85-4.46,13.21-7.84,17.92l8.23-3.9C233.65,114.37,254.67,134,278.78,134Z"/><path class="cls-4" d="M270.05,57.48a4,4,0,0,1-4,4h-52a4,4,0,0,1,0-8h52A4,4,0,0,1,270.05,57.48Z"/><path class="cls-5" d="M35.9,280.3a16.26,16.26,0,0,0-3.76-6.79l-5.86-26.73L13.5,249.91l7.32,26.78a16.27,16.27,0,0,0,.41,7.73c1.81,6.3,6.56,10.48,10.61,9.34s5.87-7.17,4.06-13.46Z"/><path class="cls-6" d="M34.14,105s-13.81-.48-21.81,8.52c-9.16,11.2-15.43,55.07-10.73,58L14.35,262l18.17-2.5L27.85,150.92l6.29-46Z"/><polygon class="cls-7" points="127.33 257.48 124.02 367.92 76.52 367.92 74.6 325.35 66.16 367.92 15.25 367.92 21.6 294.74 28.16 279.35 32.6 268.92 127.33 257.48"/><path class="cls-6" d="M89.6,86.92l-33-2-11,14c-9.5,2-18.08,4.66-24,9,1.42,41.92-1.69,96.44,11,107L21.33,294.48s4.55-3.89,12.14-2.52c2.62.48,5.79,6.39,9,6.74,24.77,2.75,64.94-.07,84.85-41.22l-7.73-59.56,2-87c-6.25-5-14-8.16-23-10l-9-14Z"/><path class="cls-5" d="M153.13,62.58A19.85,19.85,0,0,1,152,71.92l5.5,32.81-15.69,2.16-3.89-33.52a19.91,19.91,0,0,1-3-8.91c-.82-7.92,2.61-14.76,7.65-15.28s9.79,5.48,10.6,13.4Z"/><path class="cls-6" d="M101,113.42c-1.64,2.43-1.18,5.15-1.58,8.43-1.66,13.89,25,55,43.39,59.68,2.42.62,3.8,3.23,6.24,3.76h0a11.23,11.23,0,0,0,13.57-11.57l-5-94.71-21,7.17,1.34,49.17c-.13-10.18-9.48-20.56-16.57-24.87,0,0-14.35-5.92-20.36,2.94Z"/><path class="cls-8" d="M396.27,214.23h0c-6.27,5.09-14,6-17.22,2s-.77-11.34,5.5-16.43a20.12,20.12,0,0,1,8.56-4.21L420,174.36l9.69,12.8-27.49,19.56a20.23,20.23,0,0,1-5.88,7.51Z"/><path class="cls-6" d="M401.34,185.43l40-38,4-3s23-22.37,28.9-22.88a11.38,11.38,0,0,1,8.58,19.81L446.2,174.28l-15.58,14-19.37,17.4-2-4-6.66-13.6-1.28-2.62Z"/><path class="cls-8" d="M486.85,159.75l-40,12.26c6.7,1.89,9.51,42.74,3.27,44,0,0,66.37,4.72,62.75,0-4.42-5.75,1.5-44,4.32-44Z"/><path class="cls-7" d="M540.14,367.92l-3.5-42.24a319.85,319.85,0,0,0-2.55-40.93C527.8,235.9,512,210.86,512,210.86H453l-.24.25h0c-13.92,14.63-21.16,51.42-24.38,73.63-1.53,10.57-2.15,17.84-2.15,17.84l-5.77,51.28,4.17,14.05H459l-.54-3,22.09-80.16.27-1,.24,1,20.48,83.17Z"/><path class="cls-6" d="M454.24,135.38l12.46-25.17,10.51-18.28,8.49-8.66H509l2.17,8.66,13,7.21,4.6,36.07-16.37,78.27c-19.48-15.87-59.63-20.27-59.63-20.27l-6.5-18.93-4.3-22.8-.52-2.73,12.86-13.37Z"/><path class="cls-8" d="M452.74,180.91h0c-8.07-.23-14.49-4.58-14.35-9.72s6.81-9.11,14.88-8.88a20.22,20.22,0,0,1,9.24,2.39l34.18,1.4-1,16L462.1,179a20.19,20.19,0,0,1-9.36,1.87Z"/><path class="cls-6" d="M496.46,126.2l32.24,32L472.53,164l-13,18.36,78.29,2.6a11.39,11.39,0,0,0,15.17-9.84h0c.2-2.53-15.89-66.57-25.63-72.52-11.41-7-30.85,23.64-30.85,23.64l6.37-10.61-6.37,10.61Z"/><path class="cls-9" d="M477.38,102.21q.33-.1.66-.24l-.83.59Z"/><path class="cls-2" d="M311.12,198.59a4.17,4.17,0,0,1,4.17-4.17h67.09a4.18,4.18,0,0,1,0,8.35H315.29A4.18,4.18,0,0,1,311.12,198.59Z"/><path class="cls-2" d="M311.12,226.59a4.17,4.17,0,0,1,4.17-4.17h67.09a4.18,4.18,0,0,1,0,8.35H315.29A4.18,4.18,0,0,1,311.12,226.59Z"/><path class="cls-2" d="M262.94,216.89a4.17,4.17,0,0,1,0-8.34H382.38a4.17,4.17,0,1,1,0,8.34Z"/><path class="cls-3" d="M254.06,177l-8.23-3.9c3.38,4.71,6.29,12.07,7.84,17.92,2.64-5.45,6.89-12.13,11.1-16.11l-8.7,2.24c5.36-26.27,25.52-45.13,48.6-45.13v-2c-24.11,0-45.14,19.65-50.61,47Z"/><path class="cls-4" d="M291.94,217h-52a4,4,0,0,1,0-8h52a4,4,0,0,1,0,8Z"/><circle class="cls-3" cx="291.67" cy="132.66" r="15.66" transform="translate(114.01 399.32) rotate(-80.78)"/><circle class="cls-2" cx="206.67" cy="9.66" r="9.66"/><circle class="cls-2" cx="319.67" cy="176.66" r="9.66"/><path class="cls-10" d="M465.74,70.53c6.5,1.36,13.18.77,19.67-.33,3.2-.54,6.51-1.4,9.76-.77a7.85,7.85,0,0,1,4,1.93,9.2,9.2,0,0,1,.73.81l-.17-.07c-.12,0-.18.13-.06.18a1.64,1.64,0,0,1,.64.49,3.3,3.3,0,0,1,.47,1.36,2.51,2.51,0,0,1-.87,2c-1.5,1.34-3.67,1.08-5.51.81a47.94,47.94,0,0,0-5.35-.51c-1.78-.05-3.57,0-5.35.09-3.58.19-7.14.61-10.73.76a43.12,43.12,0,0,1-10.52-.6,21.66,21.66,0,0,1-2.52-.65,6.33,6.33,0,0,1-2.08-1.07c-1-.85-1.63-2.67-.4-3.63,0,0,0,0,0,0l.14.07c6.11,2.79,12.93,3.27,19.56,3,3.52-.15,7-.5,10.53-.81a45.92,45.92,0,0,1,4.95-.43,5.41,5.41,0,0,1,3.94,1.34.1.1,0,0,0,.15-.13,4.24,4.24,0,0,0-1.41-1,8.83,8.83,0,0,0-3.89-.45l-1.06.07c-.42,0-.85,0-1.27,0-.87.06-1.74.14-2.62.22-3.42.32-6.85.64-10.29.75-6.38.2-13-.38-18.88-3.13a14.37,14.37,0,0,1-2-1.11,2.46,2.46,0,0,1-1.16-1.57,1.26,1.26,0,0,1,.91-1.54,3.06,3.06,0,0,1,2,.63A28,28,0,0,0,465.74,70.53Z"/><path class="cls-8" d="M511.09,45.18a.49.49,0,0,1,0,.11,29.17,29.17,0,0,1,1.08,5,0,0,0,1,1-.09,0,27.12,27.12,0,0,0-1.28-4.23,34.73,34.73,0,0,0-1.7-3.91,27.48,27.48,0,0,0-5.09-7,14.58,14.58,0,0,0-7.65-4.35,13.15,13.15,0,0,0-8.63,1.61,16,16,0,0,0-3,2.24l-.08.07-.54.54a13.1,13.1,0,0,0-1.52,1.82,22.65,22.65,0,0,0-1.24,2.07c-.05.08-.19,0-.15-.08a13.66,13.66,0,0,1,1-1.89,20,20,0,0,1,1.24-1.77c.29-.36.59-.71.91-1a13.06,13.06,0,0,0-3.22-2.64,12.6,12.6,0,0,0-5.26-1.87,10.36,10.36,0,0,0-5.51.92,11.61,11.61,0,0,0-4.11,3.55,26.56,26.56,0,0,0-2.14,3.36,21.27,21.27,0,0,1,9.78-.22,35.14,35.14,0,0,1,5.85,1.75c.07,0,0,.12,0,.1a33.58,33.58,0,0,0-10.28-2,17.21,17.21,0,0,0-5.58.85l-.24.09A15.86,15.86,0,0,0,461,39.44a13.09,13.09,0,0,0-3.09,2.45l.16,0a11.76,11.76,0,0,1,4.13-.47c1.42.05,2.83.23,4.24.41a39.41,39.41,0,0,1,3.91.67,11.13,11.13,0,0,1,4,1.9c.07,0,0,.16-.08.11a6.87,6.87,0,0,0-1.66-.91c-.58-.19-1.14-.41-1.72-.59a22.11,22.11,0,0,0-3.68-.78c-1.26-.16-2.53-.29-3.79-.38a16.47,16.47,0,0,0-4,.08,7.69,7.69,0,0,0-1.93.56l-.3.16A2.43,2.43,0,0,0,456,43.8a19,19,0,0,1,4.09-.8,24.86,24.86,0,0,1,4.4-.08,20.27,20.27,0,0,1,4.24.68,32.25,32.25,0,0,1,4.79,1.65c.05,0,0,.1,0,.08a28,28,0,0,0-16.07-1.65,11.65,11.65,0,0,0-1.5.4l-.16.05c-.86.33-1.6.87-1.55,1.87a1.61,1.61,0,0,1,.3-.21,4.44,4.44,0,0,1,2-.46c.85-.06,1.7-.1,2.54-.08a43.38,43.38,0,0,1,5.33.45,44.07,44.07,0,0,1,5.79,1.2,11.24,11.24,0,0,1,4.52,1.88l.13.07L475,49l.08.09a2.74,2.74,0,0,1,.69-1.39.06.06,0,0,1,.07,0l0-.06a6.71,6.71,0,0,0-.78.32h0a.2.2,0,0,1-.36-.06,3,3,0,0,1,.74-2.63l.19-.2a.13.13,0,0,1,0-.09,3.16,3.16,0,0,1,1.65-2.35.13.13,0,0,1,.05-.15,22.75,22.75,0,0,1,10.55-5.11A18.42,18.42,0,0,1,499,38.83a13.67,13.67,0,0,1,5,3.84s0,.09-.06,0a19.8,19.8,0,0,0-4.46-3.38,17.18,17.18,0,0,0-5.34-1.79A19.47,19.47,0,0,0,483,39.16a23.41,23.41,0,0,0-4.83,3,4.37,4.37,0,0,1,.46-.18,15.74,15.74,0,0,1,5.29-.62,23.58,23.58,0,0,1,10.52,2.77A43.35,43.35,0,0,0,500,46.91a.08.08,0,0,1-.05.15,18.29,18.29,0,0,1-2.49-1c-.75-.36-1.48-.75-2.21-1.13a29.19,29.19,0,0,0-4.88-2.1A22.93,22.93,0,0,0,480,42.06a6.22,6.22,0,0,0-2.64.95,4.39,4.39,0,0,0-1.44,1.79,5.84,5.84,0,0,1,2.14-1,15.91,15.91,0,0,1,7.1,0,39.8,39.8,0,0,1,7,2.27c2.29.93,4.56,2,6.93,2.68.7.21,1.41.38,2.12.52a4,4,0,0,1,1.46.37.69.69,0,0,1,.27,1,1.33,1.33,0,0,1-1.09.59,6.61,6.61,0,0,1-3.11.47c-.36,0-.71,0-1.07-.07A18.41,18.41,0,0,1,487.41,55a26,26,0,0,1-6.4-.6c-1.75-.37-3.68-.83-5-2.14a3.32,3.32,0,0,1-.38-.46,5.61,5.61,0,0,1-3.48,1.09A44.08,44.08,0,0,1,467,53a36.76,36.76,0,0,1-10.09-1.74,5.56,5.56,0,0,1-2.85-1.79v.1a3.23,3.23,0,0,0,.07.69,3.19,3.19,0,0,0,.55,1.25,2.91,2.91,0,0,0,1,.9l.18.09a3.3,3.3,0,0,0,1.06.3.1.1,0,0,1,0,.2,3.35,3.35,0,0,1-1-.25c.5,1.9,2.71,3.14,4.37,3.88a16.46,16.46,0,0,0,7,1.38,13,13,0,0,0,2.06-.21c.67-.12,1.31-.32,2-.47a.08.08,0,0,1,0,.16,12.22,12.22,0,0,1-3.68.83,14.22,14.22,0,0,1-3.8-.14,16.12,16.12,0,0,1-2.05-.5,14.45,14.45,0,0,0-6.18,8.47,4.31,4.31,0,0,1,1.18.39c.71.34,1.38.74,2.1,1.08a30.67,30.67,0,0,0,4.53,1.74C470,71.28,477,71,483.72,69.93c1.74-.27,3.46-.62,5.2-.91a21,21,0,0,1,5.06-.33c2.74.22,6.09,1.4,6.84,4.37a.08.08,0,0,1,0,0,2.68,2.68,0,0,1,.16,2,4,4,0,0,1-3.47,2.36,11.25,11.25,0,0,1-3-.18c-1-.14-1.95-.27-2.94-.34a53.44,53.44,0,0,0-5.8,0c-3.91.17-7.8.62-11.7.87a44,44,0,0,1-11.17-.48c.9.76,1.78,1.53,2.75,2.21a29,29,0,0,0,3.76,2.22,35.23,35.23,0,0,0,8.29,2.86,56.18,56.18,0,0,0,10,1.1c3.44.1,6.89,0,10.32-.06,3.63-.1,7.36-.17,10.83-1.36.13,0,.22.15.09.19A31.33,31.33,0,0,1,499.48,86c-3.5.14-7,.32-10.49.26a52.39,52.39,0,0,1-15.89-2.37l.2.12a7.48,7.48,0,0,0,.86.51c.34.17.7.25,1,.41a31.34,31.34,0,0,0,3.9,1.43A38.09,38.09,0,0,0,487.76,88,83.21,83.21,0,0,0,497,88a41.61,41.61,0,0,0,8.82-1.12,20.3,20.3,0,0,0,8-3.9.07.07,0,0,1,.1,0,15.09,15.09,0,0,0,1.36-1.41,17.69,17.69,0,0,0,3.75-8,28.14,28.14,0,0,0,0-10.31A44,44,0,0,0,516.18,54a48.49,48.49,0,0,0-2.28-4.84A37.61,37.61,0,0,0,511.24,45,.33.33,0,0,1,511.09,45.18Zm-15.7,10.16a27.08,27.08,0,0,1-7.34,1.5,24.92,24.92,0,0,1-7.54-.88,18.35,18.35,0,0,1-4-1.43s0-.1,0-.08c1.15.43,2.29.88,3.47,1.23a21.18,21.18,0,0,0,3.7.7,31.2,31.2,0,0,0,7.48-.09,22,22,0,0,0,4.16-1C495.41,55.26,495.44,55.33,495.39,55.34ZM503.72,77a7,7,0,0,1-1.36,2.47,3.66,3.66,0,0,1-1.22.79,5.25,5.25,0,0,1-.67.22,2.38,2.38,0,0,1-.75.15.09.09,0,0,1,0-.17,2.8,2.8,0,0,1,.65-.15c.24-.06.49-.13.72-.21a3.21,3.21,0,0,0,1.19-.75,6.82,6.82,0,0,0,1.33-2.4A.07.07,0,0,1,503.72,77Z"/><path class="cls-11" d="M475.22,49.38s0,0,0,0l-.05-.07a2.26,2.26,0,0,1,.24-.94.65.65,0,0,0,.18-.19l.16-.23.25-.35a10.48,10.48,0,0,1,5.07,0c4,.79,7.8,2.34,11.76,3.28a32.45,32.45,0,0,0,4.51.78,17,17,0,0,1-4.8,2.31,22.69,22.69,0,0,1-11.37.17c-1.68-.36-3.56-.8-4.82-2a3.86,3.86,0,0,1-1.19-2.68Z"/><path class="cls-11" d="M456.16,45.71a21.2,21.2,0,0,1,2.39-.07c.81,0,1.61,0,2.42.07,1.66.13,3.31.35,4.94.64s3.25.61,4.85,1a9.46,9.46,0,0,1,4,1.66,0,0,0,0,0,.06,0l.1.08.11.11a3.73,3.73,0,0,0,.52,2.52c-1.11,1-3,.91-4.38,1a53,53,0,0,1-5.35,0,39,39,0,0,1-4.69-.58,28.09,28.09,0,0,1-4.6-1.22,4.88,4.88,0,0,1-2.42-1.74s0-.09,0-.13,0,0-.06,0h0a2.48,2.48,0,0,1-.26-.81,2.06,2.06,0,0,1,.57-1.77A3,3,0,0,1,456.16,45.71Z"/><path class="cls-8" d="M485.48,48.34A32.85,32.85,0,0,0,480,47a8.34,8.34,0,0,0-4.89.58c0-.06-.05-.12-.08-.19A2.91,2.91,0,0,1,476.24,45a6.76,6.76,0,0,1,3.17-1.09c4.42-.6,8.76,1,12.79,2.63,2.05.82,4.09,1.61,6.2,2.24,1,.3,2.06.57,3.1.77.37.07,1,.11,1.2.5a.82.82,0,0,1,.06.19.34.34,0,0,1,0,.1.59.59,0,0,1-.36.43,2.59,2.59,0,0,1-.79.24h0a4.63,4.63,0,0,1-1.31.31,14.41,14.41,0,0,1-2.37.05l-.24,0-.59,0C493.08,51,489.28,49.49,485.48,48.34Z"/><path d="M510.88,44.47a.07.07,0,0,1,.11,0l0,0h-.13Z"/><path d="M454.08,46.11a2.52,2.52,0,0,0-.32,2.78,3.18,3.18,0,0,0,.16.32,2.66,2.66,0,0,0,0,.39,3.44,3.44,0,0,0,.05.71,3.2,3.2,0,0,0,1.8,2.33,4.63,4.63,0,0,0,1.44,2.46,11.14,11.14,0,0,0,3,1.95,11.54,11.54,0,0,0,1.27.5,13.16,13.16,0,0,0-6,8.57,2.21,2.21,0,0,0-.63,0,1.83,1.83,0,0,0-.79,2.82,4.21,4.21,0,0,0,1.5,1.31c.5.29,1,.55,1.52.8a2.87,2.87,0,0,0,.19,4,6.14,6.14,0,0,0,2.36,1.36,20.47,20.47,0,0,0,2.44.67,16.83,16.83,0,0,0,3.7,3.19,26.69,26.69,0,0,0,4.28,2.38c.83.37,1.67.7,2.52,1,.31.18.62.36.94.53.67.37,1.28.81,2,1.15a25.13,25.13,0,0,0,4.4,1.73c5.94,1.69,12.3,1.78,18.42,1.42a34.57,34.57,0,0,0,8.68-1.5c.45-.14.88-.31,1.31-.48a.17.17,0,0,0,.1,0A14.5,14.5,0,0,0,516,81.26a19.4,19.4,0,0,0,3.66-8.39,28.8,28.8,0,0,0-.25-10.67,40.36,40.36,0,0,0-3.14-9.45,38.2,38.2,0,0,0-2.43-4.27c-.81-1.25-1.67-2.48-2.58-3.65a.43.43,0,0,1,0,.19,37.61,37.61,0,0,1,2.66,4.16A48.49,48.49,0,0,1,516.18,54a44,44,0,0,1,2.74,9.31,28.14,28.14,0,0,1,0,10.31,17.69,17.69,0,0,1-3.75,8A15.09,15.09,0,0,1,513.85,83a.07.07,0,0,0-.1,0,20.3,20.3,0,0,1-8,3.9A41.61,41.61,0,0,1,497,88a83.21,83.21,0,0,1-9.21-.08,38.09,38.09,0,0,1-8.66-1.59,31.34,31.34,0,0,1-3.9-1.43c-.34-.16-.7-.24-1-.41a7.48,7.48,0,0,1-.86-.51l-.2-.12A52.39,52.39,0,0,0,489,86.26c3.5.06,7-.12,10.49-.26A31.33,31.33,0,0,0,509,84.48c.13,0,0-.23-.09-.19-3.47,1.19-7.2,1.26-10.83,1.36-3.43.1-6.88.16-10.32.06a56.18,56.18,0,0,1-10-1.1,35.23,35.23,0,0,1-8.29-2.86,29,29,0,0,1-3.76-2.22c-1-.68-1.85-1.45-2.75-2.21a44,44,0,0,0,11.17.48c3.9-.25,7.79-.7,11.7-.87a53.44,53.44,0,0,1,5.8,0c1,.07,2,.2,2.94.34a11.25,11.25,0,0,0,3,.18A4,4,0,0,0,501,75.14a2.68,2.68,0,0,0-.16-2,.08.08,0,0,0,0,0c-.75-3-4.1-4.15-6.84-4.37a21,21,0,0,0-5.06.33c-1.74.29-3.46.64-5.2.91-6.7,1-13.71,1.35-20.28-.59a30.67,30.67,0,0,1-4.53-1.74c-.72-.34-1.39-.74-2.1-1.08a4.31,4.31,0,0,0-1.18-.39,14.45,14.45,0,0,1,6.18-8.47,16.12,16.12,0,0,0,2.05.5,14.22,14.22,0,0,0,3.8.14,12.22,12.22,0,0,0,3.68-.83.08.08,0,0,0,0-.16c-.65.15-1.29.35-2,.47a13,13,0,0,1-2.06.21,16.46,16.46,0,0,1-7-1.38c-1.66-.74-3.87-2-4.37-3.88a3.35,3.35,0,0,0,1,.25.1.1,0,0,0,0-.2,3.3,3.3,0,0,1-1.06-.3l-.18-.09a2.91,2.91,0,0,1-1-.9,3.19,3.19,0,0,1-.55-1.25,3.23,3.23,0,0,1-.07-.69v-.1a5.56,5.56,0,0,0,2.85,1.79A36.76,36.76,0,0,0,467,53a44.08,44.08,0,0,0,5.14-.07,5.61,5.61,0,0,0,3.48-1.09,3.32,3.32,0,0,0,.38.46c1.32,1.31,3.25,1.77,5,2.14a26,26,0,0,0,6.4.6,18.41,18.41,0,0,0,10.21-3.4c.36,0,.71.06,1.07.07a6.61,6.61,0,0,0,3.11-.47,1.33,1.33,0,0,0,1.09-.59.69.69,0,0,0-.27-1,4,4,0,0,0-1.46-.37c-.71-.14-1.42-.31-2.12-.52-2.37-.71-4.64-1.75-6.93-2.68a39.8,39.8,0,0,0-7-2.27,15.91,15.91,0,0,0-7.1,0,5.84,5.84,0,0,0-2.14,1A4.39,4.39,0,0,1,477.33,43a6.22,6.22,0,0,1,2.64-.95,22.93,22.93,0,0,1,10.37.81,29.19,29.19,0,0,1,4.88,2.1c.73.38,1.46.77,2.21,1.13a18.29,18.29,0,0,0,2.49,1,.08.08,0,0,0,.05-.15,43.35,43.35,0,0,1-5.58-2.79,23.58,23.58,0,0,0-10.52-2.77,15.74,15.74,0,0,0-5.29.62,4.37,4.37,0,0,0-.46.18,23.41,23.41,0,0,1,4.83-3,19.47,19.47,0,0,1,11.2-1.61,17.18,17.18,0,0,1,5.34,1.79A19.8,19.8,0,0,1,504,42.72s.09,0,.06,0a13.67,13.67,0,0,0-5-3.84,18.42,18.42,0,0,0-11.21-1.46,22.75,22.75,0,0,0-10.55,5.11.13.13,0,0,0-.05.15A3.16,3.16,0,0,0,475.55,45a.13.13,0,0,0,0,.09l-.19.2a3,3,0,0,0-.74,2.63A.2.2,0,0,0,475,48h0a6.71,6.71,0,0,1,.78-.32l0,.06a.06.06,0,0,0-.07,0,2.74,2.74,0,0,0-.69,1.39L475,49l-.17-.15-.13-.07a11.24,11.24,0,0,0-4.52-1.88,44.07,44.07,0,0,0-5.79-1.2,43.38,43.38,0,0,0-5.33-.45c-.84,0-1.69,0-2.54.08a4.44,4.44,0,0,0-2,.46,1.61,1.61,0,0,0-.3.21c0-1,.69-1.54,1.55-1.87l.16-.05a11.65,11.65,0,0,1,1.5-.4,28,28,0,0,1,16.07,1.65c.05,0,.08-.06,0-.08a32.25,32.25,0,0,0-4.79-1.65,20.27,20.27,0,0,0-4.24-.68,24.86,24.86,0,0,0-4.4.08,19,19,0,0,0-4.09.8,2.43,2.43,0,0,1,1.08-1.2l.3-.16a7.69,7.69,0,0,1,1.93-.56,16.47,16.47,0,0,1,4-.08c1.26.09,2.53.22,3.79.38a22.11,22.11,0,0,1,3.68.78c.58.18,1.14.4,1.72.59a6.87,6.87,0,0,1,1.66.91c.07,0,.15-.06.08-.11a11.13,11.13,0,0,0-4-1.9,39.41,39.41,0,0,0-3.91-.67c-1.41-.18-2.82-.36-4.24-.41a11.76,11.76,0,0,0-4.13.47l-.16,0A13.09,13.09,0,0,1,461,39.44a15.86,15.86,0,0,1,2.69-1.22l.24-.09a17.21,17.21,0,0,1,5.58-.85,33.58,33.58,0,0,1,10.28,2c.06,0,.1-.08,0-.1a35.14,35.14,0,0,0-5.85-1.75,21.27,21.27,0,0,0-9.78.22,26.56,26.56,0,0,1,2.14-3.36,11.61,11.61,0,0,1,4.11-3.55,10.36,10.36,0,0,1,5.51-.92,12.6,12.6,0,0,1,5.26,1.87,13.06,13.06,0,0,1,3.22,2.64c-.32.33-.62.68-.91,1a20,20,0,0,0-1.24,1.77,13.66,13.66,0,0,0-1,1.89c0,.09.1.16.15.08a22.65,22.65,0,0,1,1.24-2.07,13.1,13.1,0,0,1,1.52-1.82l.54-.54.08-.07a16,16,0,0,1,3-2.24,13.15,13.15,0,0,1,8.63-1.61,14.58,14.58,0,0,1,7.65,4.35,27.48,27.48,0,0,1,5.09,7,34.73,34.73,0,0,1,1.7,3.91,27.12,27.12,0,0,1,1.28,4.23,0,0,0,1,0,.09,0,29.17,29.17,0,0,0-1.08-5,.49.49,0,0,0,0-.11.33.33,0,0,1-.21,0,.38.38,0,0,1,0-.75,28.39,28.39,0,0,0-1.77-3.69,28,28,0,0,0-5.67-7A13.77,13.77,0,0,0,495.16,30a13.56,13.56,0,0,0-8.55,2.41,14.75,14.75,0,0,0-2.14,1.81,13.64,13.64,0,0,0-3.71-3.4,11.33,11.33,0,0,0-11.2-.27c-2.79,1.61-4.39,4.35-5.71,7.18a12.84,12.84,0,0,0-6.57,4.37,2.46,2.46,0,0,0-1.5,1.75C454.87,44.24,453.8,45,454.08,46.11ZM457,67.19a28,28,0,0,0,8.71,3.34c6.5,1.36,13.18.77,19.67-.33,3.2-.54,6.51-1.4,9.76-.77a7.85,7.85,0,0,1,4,1.93,9.2,9.2,0,0,1,.73.81l-.17-.07c-.12,0-.18.13-.06.18a1.64,1.64,0,0,1,.64.49,3.3,3.3,0,0,1,.47,1.36,2.51,2.51,0,0,1-.87,2c-1.5,1.34-3.67,1.08-5.51.81a47.94,47.94,0,0,0-5.35-.51c-1.78-.05-3.57,0-5.35.09-3.58.19-7.14.61-10.73.76a43.12,43.12,0,0,1-10.52-.6,21.66,21.66,0,0,1-2.52-.65,6.33,6.33,0,0,1-2.08-1.07c-1-.85-1.63-2.67-.4-3.63,0,0,0,0,0,0l.14.07c6.11,2.79,12.93,3.27,19.56,3,3.52-.15,7-.5,10.53-.81a45.92,45.92,0,0,1,4.95-.43,5.41,5.41,0,0,1,3.94,1.34.1.1,0,0,0,.15-.13,4.24,4.24,0,0,0-1.41-1,8.83,8.83,0,0,0-3.89-.45l-1.06.07c-.42,0-.85,0-1.27,0-.87.06-1.74.14-2.62.22-3.42.32-6.85.64-10.29.75-6.38.2-13-.38-18.88-3.13a14.37,14.37,0,0,1-2-1.11,2.46,2.46,0,0,1-1.16-1.57,1.26,1.26,0,0,1,.91-1.54A3.06,3.06,0,0,1,457,67.19Zm40-15.83c-4-.34-7.78-1.87-11.58-3A32.85,32.85,0,0,0,480,47a8.34,8.34,0,0,0-4.89.58c0-.06-.05-.12-.08-.19A2.91,2.91,0,0,1,476.24,45a6.76,6.76,0,0,1,3.17-1.09c4.42-.6,8.76,1,12.79,2.63,2.05.82,4.09,1.61,6.2,2.24,1,.3,2.06.57,3.1.77.37.07,1,.11,1.2.5a.82.82,0,0,1,.06.19.34.34,0,0,1,0,.1.59.59,0,0,1-.36.43,2.59,2.59,0,0,1-.79.24h0a4.63,4.63,0,0,1-1.31.31,14.41,14.41,0,0,1-2.37.05l-.24,0Zm-21.87-2,0,0s0,0,0,0l-.05-.07a2.26,2.26,0,0,1,.24-.94.65.65,0,0,0,.18-.19l.16-.23.25-.35a10.48,10.48,0,0,1,5.07,0c4,.79,7.8,2.34,11.76,3.28a32.45,32.45,0,0,0,4.51.78,17,17,0,0,1-4.8,2.31,22.69,22.69,0,0,1-11.37.17c-1.68-.36-3.56-.8-4.82-2A3.86,3.86,0,0,1,475.19,49.35Zm-20.86-3a3,3,0,0,1,1.83-.65,21.2,21.2,0,0,1,2.39-.07c.81,0,1.61,0,2.42.07,1.66.13,3.31.35,4.94.64s3.25.61,4.85,1a9.46,9.46,0,0,1,4,1.66,0,0,0,0,0,.06,0l.1.08.11.11a3.73,3.73,0,0,0,.52,2.52c-1.11,1-3,.91-4.38,1a53,53,0,0,1-5.35,0,39,39,0,0,1-4.69-.58,28.09,28.09,0,0,1-4.6-1.22,4.88,4.88,0,0,1-2.42-1.74s0-.09,0-.13,0,0-.06,0h0a2.48,2.48,0,0,1-.26-.81A2.06,2.06,0,0,1,454.33,46.36Z"/><path d="M488.05,56.84a24.92,24.92,0,0,1-7.54-.88,18.35,18.35,0,0,1-4-1.43s0-.1,0-.08c1.15.43,2.29.88,3.47,1.23a21.18,21.18,0,0,0,3.7.7,31.2,31.2,0,0,0,7.48-.09,22,22,0,0,0,4.16-1c.05,0,.08.06,0,.07A27.08,27.08,0,0,1,488.05,56.84Z"/><path d="M502.36,79.47a3.66,3.66,0,0,1-1.22.79,5.25,5.25,0,0,1-.67.22,2.38,2.38,0,0,1-.75.15.09.09,0,0,1,0-.17,2.8,2.8,0,0,1,.65-.15c.24-.06.49-.13.72-.21a3.21,3.21,0,0,0,1.19-.75,6.82,6.82,0,0,0,1.33-2.4.07.07,0,0,1,.14,0A7,7,0,0,1,502.36,79.47Z"/><path class="cls-12" d="M511.09,45.18a.33.33,0,0,1-.21,0,.38.38,0,0,1,0-.75H511a.36.36,0,0,1,.27.35.43.43,0,0,1,0,.19A.33.33,0,0,1,511.09,45.18Z"/><path d="M484,52.16a8.55,8.55,0,0,1-2.81,0A7.81,7.81,0,0,1,478,51.05a3.81,3.81,0,0,1-1.78-2.79,1,1,0,0,1,.34-1,1.22,1.22,0,0,1,.57-.13,20.22,20.22,0,0,1,6.64.9c1.09.31,2.17.68,3.24,1,.49.17,1,.23.59.79a5.13,5.13,0,0,1-.9,1A5.83,5.83,0,0,1,484,52.16Z"/><path d="M464.26,50.22a8.55,8.55,0,0,1-2.81,0,7.86,7.86,0,0,1-3.21-1.09,3.8,3.8,0,0,1-1.77-2.79,1,1,0,0,1,.34-1,1.18,1.18,0,0,1,.56-.13,20.28,20.28,0,0,1,6.65.9c1.09.32,2.16.68,3.23,1,.49.17,1,.23.59.79a4.54,4.54,0,0,1-.9,1A5.73,5.73,0,0,1,464.26,50.22Z"/><path d="M468.37,46.89a12.1,12.1,0,0,0-5.08-1.2,1.58,1.58,0,0,0-.57.08.54.54,0,0,0-.35.41.77.77,0,0,0,.36.62C463.92,47.78,467.69,49.19,468.37,46.89Z"/><path class="cls-11" d="M484.87,49.17a1.18,1.18,0,0,1-.08.56.46.46,0,0,1-.47.26c-.29-.05-.37-.5-.15-.71a.69.69,0,0,1,.83,0"/><path class="cls-11" d="M482.06,50a1.58,1.58,0,0,1-.29.8A.76.76,0,0,1,481,51a.61.61,0,0,1-.33-.21.81.81,0,0,1-.08-1,.73.73,0,0,1,.88-.27.67.67,0,0,1,.34.85"/><path class="cls-11" d="M460.31,47.05a.74.74,0,1,1-1.05.31.72.72,0,0,1,1.16-.09"/><path class="cls-11" d="M464.42,46.67a.32.32,0,1,1,0-.08"/><path class="cls-13" d="M508.71,32.36l-.34-.28a37,37,0,0,0-4.1-3.3A37.62,37.62,0,0,0,474.1,23l-.2,0h-.28a.91.91,0,0,1,0-.17,2.25,2.25,0,0,1,.94-1.53l.11-.08a4.58,4.58,0,0,1,1.5-.62l.62-.32.29-.08a31.12,31.12,0,0,1,7.29-1.21,30.37,30.37,0,0,1,14.67,3.07,33.1,33.1,0,0,1,7.93,5.5l.52.49q.69.68,1.35,1.38l.51.56a2.2,2.2,0,0,0,.2.23A6.93,6.93,0,0,1,510,31c.23.45.51,1.07.16,1.54S509.09,32.66,508.71,32.36Z"/><path class="cls-14" d="M504.56,25.2a31.07,31.07,0,0,0-13.26-6.1,29.78,29.78,0,0,0-12.15.23,27.42,27.42,0,0,1,4-1.15A24.23,24.23,0,0,1,498.31,20a25.07,25.07,0,0,1,9.74,8.29l.18.26-.37-.39A33.27,33.27,0,0,0,504.56,25.2Z"/><path class="cls-15" d="M464.7,31.44q2.57-1.67,5.08-3.39l.06,0a2,2,0,0,0,.49.21q1.2-.33,2.43-.6a39.11,39.11,0,0,1,6.9-.87,38.15,38.15,0,0,1,24.65,7.88c.33.4.74.77,1.1,1.14l1.39,1.45c.42.44.82.91,1.26,1.32a2.39,2.39,0,0,0,1.18.7,1.39,1.39,0,0,0,.86-.1,21.41,21.41,0,0,1,3.34,5.49c1.17,2.38,2.34,4.76,3.54,7.12,2.13,4.19,4.61,8.5,5.06,13.26a26,26,0,0,1-.81,7.39,17.57,17.57,0,0,0-.1,6.89,15.24,15.24,0,0,0,2.62,5.9A33.37,33.37,0,0,0,528.56,90a15,15,0,0,1,4.06,5.06,7.76,7.76,0,0,1,.66,3.38,5.58,5.58,0,0,0-2.7-3.74,7.72,7.72,0,0,0-3.7-.73c-1.41,0-2.82.09-4.23,0a14.06,14.06,0,0,1-7.55-2.37,9,9,0,0,1-3.59-6c-.85-5.45,1.87-10.7,1.21-16.15-.56-4.73-3.42-8.74-5.38-13a21.52,21.52,0,0,1-2.09-7.31c0-.12,0-.23,0-.35a20.92,20.92,0,0,1,0-2.24,20.07,20.07,0,0,1,.35-2.79c.11-.53.24-1.06.4-1.58s.23-.76.36-1.14a.07.07,0,1,0-.13,0c-.09.24-.17.48-.25.72a9.16,9.16,0,0,0-.31-1.76,5.37,5.37,0,0,0-6-4.15c-3.16.24-5.67,2.27-8.42,3.61a10,10,0,0,1-4.2,1.14,6.51,6.51,0,0,1-1.85-.22,4.69,4.69,0,0,1-1.91-1.77,8.37,8.37,0,0,1-.65-1.75c-.29-1-.93-2.16-2.11-2.08S478.85,36,478.67,37a7.17,7.17,0,0,1-.68,2.49,1.18,1.18,0,0,0,.12-.33c0-.09-.13-.12-.15,0-.26,1.15-1.76,1.27-2.58.69a7,7,0,0,1-1.89-3,4,4,0,0,0-1.8-2.08,2.13,2.13,0,0,0-2.19.24c-.82.74-.36,1.87-.48,2.81a2,2,0,0,1-2,1.55h-.28a4.62,4.62,0,0,1-2.61-1.45c-.3-.28-.58-.58-.86-.87a4.59,4.59,0,0,0-2.91-2H460a3.52,3.52,0,0,0-.56,0c.68-.44,1.35-.91,2-1.35Z"/><path class="cls-13" d="M509.79,38.87h0a1,1,0,0,1-.72-.1,2.76,2.76,0,0,1-.69-.53l-.27-.26-.37-.36-.78-.77-1.35-1.33-.59-.62a5.2,5.2,0,0,0-.81-.69h-.07c-.49-.37-1-.74-1.49-1.09a37.66,37.66,0,0,0-29.75-5.85l-.29.06c-.64.16-1.29.32-1.93.51l-.22,0-.17-.07a1.33,1.33,0,0,1-.31-.18,1.35,1.35,0,0,1-.29-1.49,3.75,3.75,0,0,1,1.26-1.66,3.67,3.67,0,0,1,.56-.38,4.93,4.93,0,0,1,2.25-.65l.21,0a.14.14,0,0,0,.11,0l.23,0,.68-.14a39.14,39.14,0,0,1,6.37-.76,38.13,38.13,0,0,1,23.2,6.82,5.37,5.37,0,0,0,.57.5l.7.6c.49.43,1,.87,1.48,1.28s.84.74,1.29,1.07a2.89,2.89,0,0,0,.64.37c.56.53,1.09,1.07,1.61,1.63a3.2,3.2,0,0,1,.41,1.3c.1,1-.28,2.39-1.3,2.77Z"/><path class="cls-14" d="M509.54,33.21h0Z"/><path d="M500.35,48.11s0,0,0,0S500.37,48.11,500.35,48.11Z"/><path d="M463.25,37.54c1.29,1.33,3.16,2.87,5.08,1.79a2.19,2.19,0,0,0,1.07-2.23,2.78,2.78,0,0,1,.18-1.69,1.41,1.41,0,0,1,1.12-.55c2.24-.08,2.66,2.92,3.69,4.32a2.48,2.48,0,0,0,2.16,1.14,1.54,1.54,0,0,0,.31,0,.11.11,0,0,0,.12.08c1.32-.18,1.67-1.65,1.86-2.74a4.13,4.13,0,0,1,.63-1.84,1.31,1.31,0,0,1,1.59-.52c1.22.55,1.21,2.18,1.71,3.23a4.57,4.57,0,0,0,.83,1.21,5.08,5.08,0,0,0,1.25,1A6.25,6.25,0,0,0,487,41a8.72,8.72,0,0,0,1-.06,10.52,10.52,0,0,0,3.52-1.09c2.75-1.34,5.31-3.43,8.5-3.55a5.15,5.15,0,0,1,3.95,1.38,6.27,6.27,0,0,1,1.61,3.67,10.15,10.15,0,0,1,.08,1.45s0,.08,0,.12a19,19,0,0,0-.61,6c0,.63.09,1.25.18,1.87,0,.08,0,.15,0,.23a23.56,23.56,0,0,0,2.28,6.66l.18.36.46.89c2,3.87,4.31,7.74,4.33,12.22,0,5.29-2.5,10.55-1,15.83a9.27,9.27,0,0,0,4.09,5.41,15.3,15.3,0,0,0,7.48,2c1.41.06,2.81,0,4.22,0a6.37,6.37,0,0,1,3.71,1,5.25,5.25,0,0,1,2.1,4.5,4.25,4.25,0,0,1-.2,1.11.17.17,0,0,0,.14.23h0a4.4,4.4,0,0,0,.31-.56,4.79,4.79,0,0,0,.31-.79,7.85,7.85,0,0,0-.89-5.81,18.44,18.44,0,0,0-4.36-4.92,24.06,24.06,0,0,1-4.73-5,14.88,14.88,0,0,1-2.18-6.29,24.89,24.89,0,0,1,.76-7.38,21.59,21.59,0,0,0,.46-3.76,16.34,16.34,0,0,0-.35-3.49,29.53,29.53,0,0,0-2.37-6.68c-1.08-2.3-2.27-4.57-3.46-6.83s-2.4-4.63-3.65-6.92a15.1,15.1,0,0,0-2.55-3.61,2.49,2.49,0,0,0,1-1,3.69,3.69,0,0,0-1.5-4.9c.86-.06,1.07-1,.85-1.71a6.48,6.48,0,0,0-1.45-2.27l-.19-.17a23.2,23.2,0,0,0-4.83-5.85,24.31,24.31,0,0,0-14-6,25.16,25.16,0,0,0-8.11.65,23.64,23.64,0,0,0-3.85,1.32,24.38,24.38,0,0,0-2.22,1.13l-.45.27,0,0a4,4,0,0,0-1,.47,2.54,2.54,0,0,0-1.22,2v0a4.88,4.88,0,0,0-.94.18,5,5,0,0,0-2.05,1.22,3.36,3.36,0,0,0-1.12,2.21,1.6,1.6,0,0,0,.44,1.12q-2.56,1.62-5.1,3.29l-3.19,2.11c-1,.67-2.11,1.31-3.1,2a1.5,1.5,0,0,0-.75,1,5.89,5.89,0,0,0-1.22,2.3,17.07,17.07,0,0,0-.42,3.49c0,.51,0,1-.05,1.53a1,1,0,0,1,.39,0c0-.76.06-1.52.11-2.27a10.31,10.31,0,0,1,.66-3.52A4.14,4.14,0,0,1,459,35.46a3,3,0,0,1,.75-.19,2.73,2.73,0,0,1,.49.06A6.89,6.89,0,0,1,463.25,37.54Zm45-9-.37-.39a33.27,33.27,0,0,0-3.3-3,31.07,31.07,0,0,0-13.26-6.1,29.78,29.78,0,0,0-12.15.23,27.42,27.42,0,0,1,4-1.15A24.23,24.23,0,0,1,498.31,20a25.07,25.07,0,0,1,9.74,8.29Zm.48,3.8-.34-.28a37,37,0,0,0-4.1-3.3A37.62,37.62,0,0,0,474.1,23l-.2,0h-.28a.91.91,0,0,1,0-.17,2.25,2.25,0,0,1,.94-1.53l.11-.08a4.58,4.58,0,0,1,1.5-.62l.62-.32.29-.08a31.12,31.12,0,0,1,7.29-1.21,30.37,30.37,0,0,1,14.67,3.07,33.1,33.1,0,0,1,7.93,5.5l.52.49q.69.68,1.35,1.38l.51.56a2.2,2.2,0,0,0,.2.23A6.93,6.93,0,0,1,510,31c.23.45.51,1.07.16,1.54S509.09,32.66,508.71,32.36Zm1.21,6.47-.13,0h0a1,1,0,0,1-.72-.1,2.76,2.76,0,0,1-.69-.53l-.27-.26-.37-.36-.78-.77-1.35-1.33-.59-.62a5.2,5.2,0,0,0-.81-.69h-.07c-.49-.37-1-.74-1.49-1.09a37.66,37.66,0,0,0-29.75-5.85l-.29.06c-.64.16-1.29.32-1.93.51l-.22,0-.17-.07a1.33,1.33,0,0,1-.31-.18,1.35,1.35,0,0,1-.29-1.49,3.75,3.75,0,0,1,1.26-1.66,3.67,3.67,0,0,1,.56-.38,4.93,4.93,0,0,1,2.25-.65l.21,0a.14.14,0,0,0,.11,0l.23,0,.68-.14a39.14,39.14,0,0,1,6.37-.76,38.13,38.13,0,0,1,23.2,6.82,5.37,5.37,0,0,0,.57.5l.7.6c.49.43,1,.87,1.48,1.28s.84.74,1.29,1.07a2.89,2.89,0,0,0,.64.37c.56.53,1.09,1.07,1.61,1.63a3.2,3.2,0,0,1,.41,1.3C511.32,37,510.94,38.45,509.92,38.83Zm-45.81-1c-.3-.28-.58-.58-.86-.87a4.59,4.59,0,0,0-2.91-2H460a3.52,3.52,0,0,0-.56,0c.68-.44,1.35-.91,2-1.35l3.2-2.09q2.57-1.67,5.08-3.39l.06,0a2,2,0,0,0,.49.21q1.2-.33,2.43-.6a39.11,39.11,0,0,1,6.9-.87,38.15,38.15,0,0,1,24.65,7.88c.33.4.74.77,1.1,1.14l1.39,1.45c.42.44.82.91,1.26,1.32a2.39,2.39,0,0,0,1.18.7,1.39,1.39,0,0,0,.86-.1,21.41,21.41,0,0,1,3.34,5.49c1.17,2.38,2.34,4.76,3.54,7.12,2.13,4.19,4.61,8.5,5.06,13.26a26,26,0,0,1-.81,7.39,17.57,17.57,0,0,0-.1,6.89,15.24,15.24,0,0,0,2.62,5.9A33.37,33.37,0,0,0,528.56,90a15,15,0,0,1,4.06,5.06,7.76,7.76,0,0,1,.66,3.38,5.58,5.58,0,0,0-2.7-3.74,7.72,7.72,0,0,0-3.7-.73c-1.41,0-2.82.09-4.23,0a14.06,14.06,0,0,1-7.55-2.37,9,9,0,0,1-3.59-6c-.85-5.45,1.87-10.7,1.21-16.15-.56-4.73-3.42-8.74-5.38-13a21.52,21.52,0,0,1-2.09-7.31c0-.12,0-.23,0-.35a20.92,20.92,0,0,1,0-2.24,20.07,20.07,0,0,1,.35-2.79c.11-.53.24-1.06.4-1.58s.23-.76.36-1.14a.07.07,0,1,0-.13,0c-.09.24-.17.48-.25.72a9.16,9.16,0,0,0-.31-1.76,5.37,5.37,0,0,0-6-4.15c-3.16.24-5.67,2.27-8.42,3.61a10,10,0,0,1-4.2,1.14,6.51,6.51,0,0,1-1.85-.22,4.69,4.69,0,0,1-1.91-1.77,8.37,8.37,0,0,1-.65-1.75c-.29-1-.93-2.16-2.11-2.08S478.85,36,478.67,37a7.17,7.17,0,0,1-.68,2.49,1.18,1.18,0,0,0,.12-.33c0-.09-.13-.12-.15,0-.26,1.15-1.76,1.27-2.58.69a7,7,0,0,1-1.89-3,4,4,0,0,0-1.8-2.08,2.13,2.13,0,0,0-2.19.24c-.82.74-.36,1.87-.48,2.81a2,2,0,0,1-2,1.55h-.28A4.62,4.62,0,0,1,464.11,37.85Z"/><path d="M456.45,63.72c-.38-3.28-.62-6.59-.76-9.9a4.47,4.47,0,0,0,.42.45q.22,4.48.76,8.94A.94.94,0,0,0,456.45,63.72Z"/><path d="M458.68,76.91l-.15-.68a3.17,3.17,0,0,0,.62.41c.5,2.25,1,4.48,1.44,6.74.86,4.72,1.15,9.78-.67,14.32a14.53,14.53,0,0,1-.72,1.55c-.15.29-.56,0-.41-.28,2.33-4.43,2.27-9.65,1.48-14.47C459.85,82,459.24,79.44,458.68,76.91Z"/><path d="M509.54,33.21l0,0h0Z"/><path class="cls-16" d="M459.44,35.27A3.3,3.3,0,0,0,457.2,37a7.84,7.84,0,0,0-.85,2.77,30.58,30.58,0,0,0-.38,3.45,2.1,2.1,0,0,1,.78-.67,5.56,5.56,0,0,0,.74-.34,2.9,2.9,0,0,0,.48-.51,13.47,13.47,0,0,1,2.91-2.45,6,6,0,0,1,1.9-1,6.15,6.15,0,0,1,1.55,0c-.23-.59-1.07-1.09-1.54-1.51C461.86,35.91,460.79,35.07,459.44,35.27Z"/><path class="cls-16" d="M456.55,62.94a18.26,18.26,0,0,1,2.66-3.42,6.23,6.23,0,0,1,2.53-1.89c-.33.1-1.41-.52-1.73-.66a9.19,9.19,0,0,1-1.76-1c-1.17-.84-1.41-1.89-2.13-3-.43,1.13-.15,3-.14,4.18A27.47,27.47,0,0,0,456.55,62.94Z"/><path class="cls-16" d="M459.8,80.58A50.38,50.38,0,0,1,461,88a27.29,27.29,0,0,1-1,8.81c.95-.72,1.15-2.11,2-2.89.43-.36,1-.57,1.38-1s.64-1,1.1-1.29A12.14,12.14,0,0,1,466,91a6.17,6.17,0,0,0,1.15-1.08c1.52-1.57,3.83-2.24,5.23-3.92a4,4,0,0,1,.89-1c.32-.19.77-.35.78-.73s-.39-.53-.72-.64a36.45,36.45,0,0,1-6.88-3.13,12.3,12.3,0,0,1-3.63-2.93,2.18,2.18,0,0,0-.43-.48,2,2,0,0,0-.8-.29,10.91,10.91,0,0,1-3.69-1.67C459.49,76.27,459.43,78.82,459.8,80.58Z"/><path class="cls-10" d="M104.13,74.5c-7.24,1-14.52-.18-21.55-1.89-3.47-.85-7-2.06-10.65-1.62a8.7,8.7,0,0,0-4.55,1.81,9.66,9.66,0,0,0-.86.83l.19-.07c.13,0,.18.16.06.2a2,2,0,0,0-.75.49,3.84,3.84,0,0,0-.63,1.45,2.82,2.82,0,0,0,.81,2.23c1.54,1.6,3.94,1.48,6,1.33a50.65,50.65,0,0,1,5.91-.14c2,.08,3.91.27,5.86.51,3.91.49,7.79,1.24,11.7,1.68a47.41,47.41,0,0,0,11.6.17,27.39,27.39,0,0,0,2.82-.52,6.73,6.73,0,0,0,2.35-1c1.19-.86,2-2.8.72-4l0,0L113,76C106,78.6,98.52,78.6,91.27,77.77c-3.85-.44-7.67-1.11-11.49-1.72a51.85,51.85,0,0,0-5.4-.86A6,6,0,0,0,70,76.36a.11.11,0,0,1-.15-.16,4.61,4.61,0,0,1,1.62-1,9.6,9.6,0,0,1,4.3-.2l1.16.17c.46.06.93.06,1.39.12,1,.13,1.9.29,2.86.44,3.73.62,7.46,1.24,11.22,1.63,7,.72,14.32.6,21-2a15.23,15.23,0,0,0,2.33-1.05A2.74,2.74,0,0,0,117,72.75a1.39,1.39,0,0,0-.87-1.77,3.43,3.43,0,0,0-2.23.54A30.73,30.73,0,0,1,104.13,74.5Z"/><path class="cls-5" d="M56.22,43A40.32,40.32,0,0,0,53,47.31a56.07,56.07,0,0,0-2.88,5.13,48.35,48.35,0,0,0-3.73,10,30.81,30.81,0,0,0-.85,11.31,19.4,19.4,0,0,0,3.49,9,17.76,17.76,0,0,0,1.37,1.64.09.09,0,0,1,.12,0,22.35,22.35,0,0,0,8.43,4.9,45.19,45.19,0,0,0,9.58,1.91,89.81,89.81,0,0,0,10.11.63,41,41,0,0,0,9.62-1.06,35.59,35.59,0,0,0,4.4-1.26c.38-.15.78-.21,1.16-.37a9.1,9.1,0,0,0,1-.49l.22-.12a57.84,57.84,0,0,1-17.61,1.36c-3.84-.21-7.66-.68-11.48-1.11a34.56,34.56,0,0,1-10.28-2.41c-.13-.06,0-.25.12-.19,3.71,1.57,7.8,1.93,11.77,2.33,3.76.38,7.54.71,11.32.87A61.93,61.93,0,0,0,89.9,89a39,39,0,0,0,9.32-2.5,31.84,31.84,0,0,0,4.3-2.13c1.12-.67,2.14-1.45,3.19-2.22a47.21,47.21,0,0,1-12.28-.35c-4.27-.58-8.5-1.37-12.77-1.86a54.33,54.33,0,0,0-6.37-.4c-1.09,0-2.17.06-3.25.14a12.72,12.72,0,0,1-3.32,0,4.39,4.39,0,0,1-3.63-2.86,3,3,0,0,1,.34-2.22s0,0,0,0c1-3.21,4.82-4.24,7.85-4.27a23.46,23.46,0,0,1,5.52.76c1.88.45,3.74,1,5.63,1.41,7.27,1.67,14.93,2.56,22.3.94a34.87,34.87,0,0,0,5.1-1.55c.81-.32,1.58-.71,2.39-1a4.57,4.57,0,0,1,1.32-.33,15.84,15.84,0,0,0-6.11-9.77,17.93,17.93,0,0,1-2.29.38,15,15,0,0,1-4.18-.15,13.17,13.17,0,0,1-4-1.19c-.09-.05,0-.2.08-.17.7.22,1.39.49,2.1.67a13.17,13.17,0,0,0,2.26.38,17.89,17.89,0,0,0,7.74-1c1.87-.68,4.39-1.87,5.09-3.91a4,4,0,0,1-1.1.19.11.11,0,0,1,0-.22,3.6,3.6,0,0,0,1.18-.24l.21-.09a3.47,3.47,0,0,0,1.18-.9,3.61,3.61,0,0,0,.71-1.34,3.09,3.09,0,0,0,.12-.75.37.37,0,0,0,0-.11A6,6,0,0,1,115.32,54a40.27,40.27,0,0,1-11.21,1.12,46.47,46.47,0,0,1-5.64-.48,6.08,6.08,0,0,1-3.72-1.47,3.51,3.51,0,0,1-.46.48c-1.55,1.33-3.7,1.69-5.65,2a28.84,28.84,0,0,1-7.07.15,20.3,20.3,0,0,1-10.93-4.52c-.4,0-.79,0-1.18,0a7,7,0,0,1-3.37-.75,1.48,1.48,0,0,1-1.16-.74.77.77,0,0,1,.37-1,4.52,4.52,0,0,1,1.63-.29,23.44,23.44,0,0,0,2.37-.4c2.65-.6,5.23-1.56,7.82-2.4A43.93,43.93,0,0,1,85,43.71a17.39,17.39,0,0,1,7.79.51A6.23,6.23,0,0,1,95,45.49a4.67,4.67,0,0,0-1.43-2.08,6.78,6.78,0,0,0-2.82-1.25,25.12,25.12,0,0,0-11.44.07,32.39,32.39,0,0,0-5.51,1.92c-.84.37-1.67.74-2.52,1.07a18.82,18.82,0,0,1-2.8.86.09.09,0,0,1,0-.17,47.81,47.81,0,0,0,6.34-2.62,25.81,25.81,0,0,1,11.76-2.21,17.05,17.05,0,0,1,5.75,1.09,3.6,3.6,0,0,1,.49.23,26.29,26.29,0,0,0-5.06-3.66A21.51,21.51,0,0,0,75.55,36.1a19.18,19.18,0,0,0-6,1.55A21.15,21.15,0,0,0,64.4,41a0,0,0,0,1-.07-.07,15.18,15.18,0,0,1,5.78-3.82,20.22,20.22,0,0,1,12.42-.71A24.93,24.93,0,0,1,93.7,42.83a.14.14,0,0,1,0,.17,3.5,3.5,0,0,1,1.63,2.7.13.13,0,0,1-.05.11l.19.23a3.34,3.34,0,0,1,.61,3,.22.22,0,0,1-.41,0h0a7.18,7.18,0,0,0-.83-.42l0,.07a.07.07,0,0,1,.08,0,3.07,3.07,0,0,1,.65,1.57l.09-.08c.07-.05.13-.11.2-.15l.14-.07c1.49-1.09,3.35-1.35,5.12-1.72a49.78,49.78,0,0,1,6.44-.85,46.16,46.16,0,0,1,5.88-.08c.93.05,1.86.15,2.78.28a5.11,5.11,0,0,1,2.12.66,2.66,2.66,0,0,1,.31.26c.13-1.09-.64-1.74-1.56-2.17l-.16-.08c-.55-.23-1.14-.4-1.62-.55a30.88,30.88,0,0,0-17.76.55c-.06,0-.08-.07,0-.09A38.22,38.22,0,0,1,103,44.72a23.24,23.24,0,0,1,4.71-.41,26.81,26.81,0,0,1,4.81.44A20.51,20.51,0,0,1,116.9,46a2.64,2.64,0,0,0-1.08-1.4l-.32-.2a8.46,8.46,0,0,0-2.08-.77,19.14,19.14,0,0,0-4.4-.41q-2.1,0-4.2.12a24.57,24.57,0,0,0-4.09.58c-.65.14-1.29.34-1.93.51a7,7,0,0,0-1.9.87.08.08,0,0,1-.08-.13,12.25,12.25,0,0,1,4.5-1.77c1.44-.23,2.9-.35,4.35-.44s3.12-.17,4.68-.12a13.69,13.69,0,0,1,4.49.84l.18.08a14.2,14.2,0,0,0-3.21-2.93A17.87,17.87,0,0,0,109,39.22l-.27-.11a18.91,18.91,0,0,0-6-1.38,36.89,36.89,0,0,0-11.44,1.42.06.06,0,0,1,0-.11,38.87,38.87,0,0,1,6.56-1.47,23.59,23.59,0,0,1,10.71,1,29.73,29.73,0,0,0-2.09-3.85,12.83,12.83,0,0,0-4.23-4.22,11.43,11.43,0,0,0-6-1.44,14,14,0,0,0-5.92,1.64,14.71,14.71,0,0,0-3.74,2.64,13.43,13.43,0,0,1,.92,1.22,22,22,0,0,1,1.22,2,15.32,15.32,0,0,1,1,2.15.1.1,0,0,1-.18.07,26.05,26.05,0,0,0-1.19-2.36,15.13,15.13,0,0,0-1.53-2.11c-.18-.22-.36-.43-.55-.64l-.09-.09A16.67,16.67,0,0,0,83,30.94a14.53,14.53,0,0,0-9.34-2.44,16.07,16.07,0,0,0-8.74,4.17A30.62,30.62,0,0,0,58.74,40a35.62,35.62,0,0,0-2.16,4.16,29.36,29.36,0,0,0-1.75,4.54c0,.06-.11,0-.09,0a32.38,32.38,0,0,1,1.57-5.37.61.61,0,0,0,0-.12A.42.42,0,0,1,56.22,43ZM72.83,55.45a25.15,25.15,0,0,0,4.48,1.44,33.68,33.68,0,0,0,8.2.68,22,22,0,0,0,4.12-.48c1.32-.29,2.6-.68,3.9-1.07a0,0,0,0,1,0,.09,20,20,0,0,1-4.49,1.25,27.48,27.48,0,0,1-8.34.38,30.08,30.08,0,0,1-7.94-2.22C72.74,55.5,72.78,55.43,72.83,55.45ZM62.12,78.58a7.31,7.31,0,0,0,1.27,2.74,3.39,3.39,0,0,0,1.24.91,6.16,6.16,0,0,0,.78.29,3.35,3.35,0,0,1,.7.22.1.1,0,0,1,0,.18,2.86,2.86,0,0,1-.81-.22,7.33,7.33,0,0,1-.72-.3,3.85,3.85,0,0,1-1.27-1A7.68,7.68,0,0,1,62,78.63.08.08,0,0,1,62.12,78.58Z"/><path class="cls-11" d="M95.39,50.57s-.06,0,0,0l.07-.08a2.42,2.42,0,0,0-.2-1.05,1,1,0,0,1-.18-.22l-.16-.27-.24-.4a11.49,11.49,0,0,0-5.56-.43c-4.45.55-8.74,2-13.16,2.68a38,38,0,0,1-5,.51A19,19,0,0,0,76,54.17a24.88,24.88,0,0,0,12.46,1.08c1.87-.27,4-.6,5.44-1.88a4.21,4.21,0,0,0,1.52-2.84Z"/><path class="cls-11" d="M116.58,48a25.36,25.36,0,0,0-2.61-.27c-.89,0-1.78-.11-2.67-.11a52.8,52.8,0,0,0-5.47.32q-2.7.28-5.39.69a10.41,10.41,0,0,0-4.51,1.51.07.07,0,0,1-.07,0l-.11.07a.69.69,0,0,1-.13.11,4.12,4.12,0,0,1-.77,2.73C96,54.3,98,54.29,99.58,54.46a54.91,54.91,0,0,0,5.87.38,40.92,40.92,0,0,0,5.19-.27,29.89,29.89,0,0,0,5.14-1,5.34,5.34,0,0,0,2.8-1.72.59.59,0,0,1,0-.13,0,0,0,0,1,.07,0h0a2.33,2.33,0,0,0,.35-.86,2.28,2.28,0,0,0-.49-2A3.36,3.36,0,0,0,116.58,48Z"/><path class="cls-5" d="M84.22,48.61a37.57,37.57,0,0,1,6.15-1,9.15,9.15,0,0,1,5.32,1l.1-.21a3.19,3.19,0,0,0-1.18-2.71,7.37,7.37,0,0,0-3.4-1.44c-4.8-1-9.68.42-14.23,1.88-2.31.73-4.61,1.44-7,2-1.14.25-2.3.46-3.46.6-.41.05-1.11.05-1.35.46a.47.47,0,0,0-.08.2.22.22,0,0,0,0,.11.63.63,0,0,0,.36.5,3,3,0,0,0,.85.33h0a5.39,5.39,0,0,0,1.41.45,16,16,0,0,0,2.59.23h.92C75.67,51,80,49.58,84.22,48.61Z"/><path d="M56.65,42.38a.07.07,0,0,0-.12,0l0,0h.14Z"/><path d="M117.14,46.05a2.69,2.69,0,0,0-1.51-2,14.15,14.15,0,0,0-6.86-5.32c-1.23-3.2-2.77-6.33-5.7-8.32a12.46,12.46,0,0,0-12.31-.58,15,15,0,0,0-4.34,3.44,16,16,0,0,0-2.2-2.15A14.91,14.91,0,0,0,75,27.78a15.14,15.14,0,0,0-9.33,3.42,30.8,30.8,0,0,0-6.76,7.28,29,29,0,0,0-2.23,3.91.42.42,0,1,1-.34.75.61.61,0,0,1,0,.12,32.38,32.38,0,0,0-1.57,5.37c0,.06.08.09.09,0a29.36,29.36,0,0,1,1.75-4.54A35.62,35.62,0,0,1,58.74,40a30.62,30.62,0,0,1,6.13-7.29,16.07,16.07,0,0,1,8.74-4.17A14.53,14.53,0,0,1,83,30.94a16.67,16.67,0,0,1,3.12,2.69l.09.09c.19.21.37.42.55.64a15.13,15.13,0,0,1,1.53,2.11,26.05,26.05,0,0,1,1.19,2.36.1.1,0,0,0,.18-.07,15.32,15.32,0,0,0-1-2.15,22,22,0,0,0-1.22-2,13.43,13.43,0,0,0-.92-1.22,14.71,14.71,0,0,1,3.74-2.64,14,14,0,0,1,5.92-1.64,11.43,11.43,0,0,1,6,1.44,12.83,12.83,0,0,1,4.23,4.22,29.73,29.73,0,0,1,2.09,3.85,23.59,23.59,0,0,0-10.71-1A38.87,38.87,0,0,0,91.19,39a.06.06,0,0,0,0,.11,36.89,36.89,0,0,1,11.44-1.42,18.91,18.91,0,0,1,6,1.38l.27.11a17.87,17.87,0,0,1,2.84,1.56A14.2,14.2,0,0,1,115,43.71l-.18-.08a13.69,13.69,0,0,0-4.49-.84c-1.56,0-3.13,0-4.68.12s-2.91.21-4.35.44a12.25,12.25,0,0,0-4.5,1.77.08.08,0,0,0,.08.13,7,7,0,0,1,1.9-.87c.64-.17,1.28-.37,1.93-.51a24.57,24.57,0,0,1,4.09-.58q2.1-.1,4.2-.12a19.14,19.14,0,0,1,4.4.41,8.46,8.46,0,0,1,2.08.77l.32.2A2.64,2.64,0,0,1,116.9,46a20.51,20.51,0,0,0-4.42-1.2,26.81,26.81,0,0,0-4.81-.44,23.24,23.24,0,0,0-4.71.41,38.22,38.22,0,0,0-5.39,1.44s0,.11,0,.09a30.88,30.88,0,0,1,17.76-.55c.48.15,1.07.32,1.62.55l.16.08c.92.43,1.69,1.08,1.56,2.17a2.66,2.66,0,0,0-.31-.26,5.11,5.11,0,0,0-2.12-.66c-.92-.13-1.85-.23-2.78-.28a46.16,46.16,0,0,0-5.88.08,49.78,49.78,0,0,0-6.44.85c-1.77.37-3.63.63-5.12,1.72l-.14.07c-.07,0-.13.1-.2.15l-.09.08A3.07,3.07,0,0,0,95,48.68a.07.07,0,0,0-.08,0l0-.07a7.18,7.18,0,0,1,.83.42h0a.22.22,0,0,0,.41,0,3.34,3.34,0,0,0-.61-3l-.19-.23a.13.13,0,0,0,.05-.11A3.5,3.5,0,0,0,93.74,43a.14.14,0,0,0,0-.17,24.93,24.93,0,0,0-11.17-6.42,20.22,20.22,0,0,0-12.42.71,15.18,15.18,0,0,0-5.78,3.82,0,0,0,0,0,.07.07,21.15,21.15,0,0,1,5.15-3.36,19.18,19.18,0,0,1,6-1.55,21.51,21.51,0,0,1,12.16,2.64,26.29,26.29,0,0,1,5.06,3.66,3.6,3.6,0,0,0-.49-.23,17.05,17.05,0,0,0-5.75-1.09,25.81,25.81,0,0,0-11.76,2.21,47.81,47.81,0,0,1-6.34,2.62.09.09,0,0,0,0,.17,18.82,18.82,0,0,0,2.8-.86c.85-.33,1.68-.7,2.52-1.07a32.39,32.39,0,0,1,5.51-1.92,25.12,25.12,0,0,1,11.44-.07,6.78,6.78,0,0,1,2.82,1.25A4.67,4.67,0,0,1,95,45.49a6.23,6.23,0,0,0-2.26-1.27A17.39,17.39,0,0,0,85,43.71a43.93,43.93,0,0,0-7.83,1.94c-2.59.84-5.17,1.8-7.82,2.4a23.44,23.44,0,0,1-2.37.4,4.52,4.52,0,0,0-1.63.29.77.77,0,0,0-.37,1,1.48,1.48,0,0,0,1.16.74,7,7,0,0,0,3.37.75c.39,0,.78,0,1.18,0a20.3,20.3,0,0,0,10.93,4.52,28.84,28.84,0,0,0,7.07-.15c2-.27,4.1-.63,5.65-2a3.51,3.51,0,0,0,.46-.48,6.08,6.08,0,0,0,3.72,1.47,46.47,46.47,0,0,0,5.64.48A40.27,40.27,0,0,0,115.32,54a6,6,0,0,0,3.26-1.74.37.37,0,0,1,0,.11,3.09,3.09,0,0,1-.12.75,3.61,3.61,0,0,1-.71,1.34,3.47,3.47,0,0,1-1.18.9l-.21.09a3.6,3.6,0,0,1-1.18.24.11.11,0,0,0,0,.22,4,4,0,0,0,1.1-.19c-.7,2-3.22,3.23-5.09,3.91a17.89,17.89,0,0,1-7.74,1,13.17,13.17,0,0,1-2.26-.38c-.71-.18-1.4-.45-2.1-.67-.1,0-.17.12-.08.17a13.17,13.17,0,0,0,4,1.19,15,15,0,0,0,4.18.15,17.93,17.93,0,0,0,2.29-.38,15.84,15.84,0,0,1,6.11,9.77,4.57,4.57,0,0,0-1.32.33c-.81.32-1.58.71-2.39,1a34.87,34.87,0,0,1-5.1,1.55c-7.37,1.62-15,.73-22.3-.94-1.89-.44-3.75-1-5.63-1.41a23.46,23.46,0,0,0-5.52-.76c-3,0-6.8,1.06-7.85,4.27,0,0,0,0,0,0a3,3,0,0,0-.34,2.22,4.39,4.39,0,0,0,3.63,2.86,12.72,12.72,0,0,0,3.32,0c1.08-.08,2.16-.14,3.25-.14a54.33,54.33,0,0,1,6.37.4c4.27.49,8.5,1.28,12.77,1.86a47.21,47.21,0,0,0,12.28.35c-1,.77-2.07,1.55-3.19,2.22a31.84,31.84,0,0,1-4.3,2.13A39,39,0,0,1,89.9,89a61.93,61.93,0,0,1-11.06.41c-3.78-.16-7.56-.49-11.32-.87-4-.4-8.06-.76-11.77-2.33-.13-.06-.25.13-.12.19a34.56,34.56,0,0,0,10.28,2.41c3.82.43,7.64.9,11.48,1.11A57.84,57.84,0,0,0,95,88.58l-.22.12a9.1,9.1,0,0,1-1,.49c-.38.16-.78.22-1.16.37a35.59,35.59,0,0,1-4.4,1.26,41,41,0,0,1-9.62,1.06,89.81,89.81,0,0,1-10.11-.63,45.19,45.19,0,0,1-9.58-1.91,22.35,22.35,0,0,1-8.43-4.9.09.09,0,0,0-.12,0A17.76,17.76,0,0,1,49,82.79a19.4,19.4,0,0,1-3.49-9,30.81,30.81,0,0,1,.85-11.31,48.35,48.35,0,0,1,3.73-10A56.07,56.07,0,0,1,53,47.31,40.32,40.32,0,0,1,56.22,43a.41.41,0,0,1,0-.22c-1.1,1.22-2.13,2.5-3.11,3.81a38.64,38.64,0,0,0-3,4.49,44.16,44.16,0,0,0-4.18,10.13,31.36,31.36,0,0,0-1.12,11.68,21.45,21.45,0,0,0,3.36,9.48,16,16,0,0,0,7.93,6.43.22.22,0,0,0,.11,0c.46.22.93.43,1.4.63A38.12,38.12,0,0,0,67,91.72c6.68.87,13.67,1.28,20.31-.12a27.7,27.7,0,0,0,5-1.55c.78-.32,1.48-.76,2.25-1.1l1.07-.52c1-.26,1.91-.56,2.85-.89a30,30,0,0,0,4.87-2.28,18.54,18.54,0,0,0,4.31-3.21,22.72,22.72,0,0,0,2.73-.54A6.93,6.93,0,0,0,113,80.2c1.21-1,1.71-3.16.52-4.4.58-.23,1.16-.47,1.73-.75A4.86,4.86,0,0,0,117,73.73c.75-1,.69-2.69-.64-3.16a2.35,2.35,0,0,0-.69-.1,14.45,14.45,0,0,0-5.88-9.87c.48-.13,1-.28,1.43-.45a12.21,12.21,0,0,0,3.47-1.9,5.11,5.11,0,0,0,1.78-2.59,3.76,3.76,0,0,0,1.44-1,3.51,3.51,0,0,0,.71-1.4,3.34,3.34,0,0,0,.12-.77,3.16,3.16,0,0,0,0-.43,3.79,3.79,0,0,0,.2-.34,2.76,2.76,0,0,0-.13-3.07C119.22,47.47,118.11,46.52,117.14,46.05Zm-1,24.93a1.39,1.39,0,0,1,.87,1.77,2.74,2.74,0,0,1-1.39,1.63,15.23,15.23,0,0,1-2.33,1.05c-6.64,2.56-14,2.68-21,2-3.76-.39-7.49-1-11.22-1.63-1-.15-1.91-.31-2.86-.44-.46-.06-.93-.06-1.39-.12L75.73,75a9.6,9.6,0,0,0-4.3.2,4.61,4.61,0,0,0-1.62,1,.11.11,0,0,0,.15.16,6,6,0,0,1,4.42-1.17,51.85,51.85,0,0,1,5.4.86c3.82.61,7.64,1.28,11.49,1.72C98.52,78.6,106,78.6,113,76l.16-.06,0,0c1.28,1.15.47,3.09-.72,4a6.73,6.73,0,0,1-2.35,1,27.39,27.39,0,0,1-2.82.52,47.41,47.41,0,0,1-11.6-.17c-3.91-.44-7.79-1.19-11.7-1.68-2-.24-3.9-.43-5.86-.51a50.65,50.65,0,0,0-5.91.14c-2,.15-4.44.27-6-1.33a2.82,2.82,0,0,1-.81-2.23A3.84,3.84,0,0,1,66,74.25a2,2,0,0,1,.75-.49c.12,0,.07-.24-.06-.2l-.19.07a9.66,9.66,0,0,1,.86-.83A8.7,8.7,0,0,1,71.93,71c3.62-.44,7.18.77,10.65,1.62,7,1.71,14.31,2.88,21.55,1.89a30.73,30.73,0,0,0,9.81-3A3.43,3.43,0,0,1,116.17,71ZM70.62,51h-.27a16,16,0,0,1-2.59-.23,5.39,5.39,0,0,1-1.41-.45h0a3,3,0,0,1-.85-.33.63.63,0,0,1-.36-.5.22.22,0,0,1,0-.11.47.47,0,0,1,.08-.2c.24-.41.94-.41,1.35-.46,1.16-.14,2.32-.35,3.46-.6,2.37-.53,4.67-1.24,7-2,4.55-1.46,9.43-2.88,14.23-1.88a7.37,7.37,0,0,1,3.4,1.44,3.19,3.19,0,0,1,1.18,2.71l-.1.21a9.15,9.15,0,0,0-5.32-1,37.57,37.57,0,0,0-6.15,1c-4.26,1-8.55,2.35-13,2.41ZM93.9,53.37c-1.48,1.28-3.57,1.61-5.44,1.88A24.88,24.88,0,0,1,76,54.17a19,19,0,0,1-5.09-2.9,38,38,0,0,0,5-.51c4.42-.72,8.71-2.13,13.16-2.68a11.49,11.49,0,0,1,5.56.43l.24.4.16.27a1,1,0,0,0,.18.22,2.42,2.42,0,0,1,.2,1.05l-.07.08s0,.06,0,0l0,0A4.21,4.21,0,0,1,93.9,53.37ZM119,50.87a2.33,2.33,0,0,1-.35.86h0a0,0,0,0,0-.07,0,.59.59,0,0,0,0,.13,5.34,5.34,0,0,1-2.8,1.72,29.89,29.89,0,0,1-5.14,1,40.92,40.92,0,0,1-5.19.27,54.91,54.91,0,0,1-5.87-.38c-1.54-.17-3.59-.16-4.73-1.4a4.12,4.12,0,0,0,.77-2.73.69.69,0,0,0,.13-.11l.11-.07a.07.07,0,0,0,.07,0,10.41,10.41,0,0,1,4.51-1.51q2.69-.4,5.39-.69a52.8,52.8,0,0,1,5.47-.32c.89,0,1.78.06,2.67.11a25.36,25.36,0,0,1,2.61.27,3.36,3.36,0,0,1,2,.85A2.28,2.28,0,0,1,119,50.87Z"/><path d="M80.73,57.74a27.48,27.48,0,0,0,8.34-.38,20,20,0,0,0,4.49-1.25,0,0,0,0,0,0-.09c-1.3.39-2.58.78-3.9,1.07a22,22,0,0,1-4.12.48,33.68,33.68,0,0,1-8.2-.68,25.15,25.15,0,0,1-4.48-1.44s-.09,0,0,.07A30.08,30.08,0,0,0,80.73,57.74Z"/><path d="M63.26,81.44a3.85,3.85,0,0,0,1.27,1,7.33,7.33,0,0,0,.72.3,2.86,2.86,0,0,0,.81.22.1.1,0,0,0,0-.18,3.35,3.35,0,0,0-.7-.22,6.16,6.16,0,0,1-.78-.29,3.39,3.39,0,0,1-1.24-.91,7.31,7.31,0,0,1-1.27-2.74.08.08,0,0,0-.16,0A7.68,7.68,0,0,0,63.26,81.44Z"/><path class="cls-12" d="M56.36,43.14a.42.42,0,1,0,.34-.75h-.19a.38.38,0,0,0-.32.36.41.41,0,0,0,0,.22A.42.42,0,0,0,56.36,43.14Z"/><path d="M85.5,52.92a9.73,9.73,0,0,0,3.09.2,8.65,8.65,0,0,0,3.61-.95,4.2,4.2,0,0,0,2.17-2.91,1.15,1.15,0,0,0-.31-1.09,1.37,1.37,0,0,0-.6-.19,22,22,0,0,0-7.36.48c-1.22.25-2.43.57-3.64.89-.55.15-1.06.17-.7.82a5.14,5.14,0,0,0,.91,1.12A6.31,6.31,0,0,0,85.5,52.92Z"/><path d="M107.34,52.34a9.65,9.65,0,0,0,3.08.2,8.65,8.65,0,0,0,3.61-.95,4.2,4.2,0,0,0,2.17-2.91,1.15,1.15,0,0,0-.3-1.08,1.34,1.34,0,0,0-.61-.2,22,22,0,0,0-7.36.48c-1.22.25-2.43.57-3.63.89-.55.15-1.07.18-.71.82a5.14,5.14,0,0,0,.91,1.12A6.29,6.29,0,0,0,107.34,52.34Z"/><path d="M103.09,48.37a13.22,13.22,0,0,1,5.67-.92,1.47,1.47,0,0,1,.62.13.62.62,0,0,1,.36.48c0,.27-.23.49-.45.65C107.91,49.69,103.66,50.94,103.09,48.37Z"/><path class="cls-11" d="M84.82,49.57a1.09,1.09,0,0,0,.05.62.5.5,0,0,0,.48.33.48.48,0,0,0,.23-.77.76.76,0,0,0-.91-.08"/><path class="cls-11" d="M87.84,50.65a1.75,1.75,0,0,0,.26.9.81.81,0,0,0,.81.37.84.84,0,0,0,.38-.21.9.9,0,0,0,.16-1,.81.81,0,0,0-1-.37.75.75,0,0,0-.44.91"/><path class="cls-11" d="M111.92,49.17a.83.83,0,0,0-.39.95.81.81,0,1,0,1.52-.53.79.79,0,0,0-1.26-.18"/><path class="cls-11" d="M107.44,48.43a.4.4,0,0,0,.43.46.39.39,0,0,0,.23-.58.38.38,0,0,0-.62,0"/><path class="cls-17" d="M90.49,10.21A15.55,15.55,0,0,0,92.9,6.79c2.57,1,5.29-.18,8.35-2.56a11.32,11.32,0,0,1-1.42,5c2.41.46,6.2,1.09,8.72-2.1a13.74,13.74,0,0,1-.74,4.5c2.49.46,4.74,2.74,7.48,5.9,0,0-4.24-1.77-7.44.35a9.42,9.42,0,0,1,2.22-4.18,8.08,8.08,0,0,0-5.92,3.89,47.22,47.22,0,0,1,.68-5.51s-4.12,3.78-9.79,0a8.37,8.37,0,0,0,3.55-2.45S94.61,12.21,90.49,10.21Z"/><path class="cls-18" d="M113.56,16.45s-3.24-4.58-7.39-4.2a9.87,9.87,0,0,1,3.19,1.57,10.44,10.44,0,0,0-4.23-.85,9.61,9.61,0,0,1,2.66,1.32,6.74,6.74,0,0,0-3.17-.14,3.46,3.46,0,0,1,1.87.9l1.32-.62a18.43,18.43,0,0,1,2-.6c-.5.78-1.28,2.18-1.28,2.18a5.39,5.39,0,0,1,2.23.64,6,6,0,0,0-1.1-1.3,8.46,8.46,0,0,1,2.6,1.23,10.52,10.52,0,0,0-1.92-2.29A15.59,15.59,0,0,1,113.56,16.45Z"/><path class="cls-18" d="M106.83,10.91s-4.74,2-9.29.38c1.34,1.21,4.83,1.26,4.83,1.26a10.46,10.46,0,0,1-5.86-.44c1.78,1.41,5.22,1.6,8.11.14A5.54,5.54,0,0,0,106.83,10.91Z"/><path class="cls-18" d="M100,6.15A8.62,8.62,0,0,1,92.5,8.46a9.48,9.48,0,0,0,4.19.68,12,12,0,0,1-4.89.47c2.14,1.59,6.49.57,8.26-2A10.69,10.69,0,0,1,97.21,9,7.64,7.64,0,0,0,100,6.15Z"/><g class="cls-19"><path class="cls-17" d="M92.16,8.05c.45-.7.74-1.26.74-1.26,2.57,1,5.29-.18,8.35-2.56h0l-.13.27S98.84,8.89,92.16,8.05Z"/><path class="cls-17" d="M102.94,10.72a5.33,5.33,0,0,0,3,0c-3,1.65-6.94.31-8.55.15l1.31-1.27a4.09,4.09,0,0,0,.85-.3l.29-.17a.21.21,0,0,0,0,.06c2.41.46,6.2,1.09,8.72-2.1,0,.06,0,.11,0,.16l-.12.2C106.84,10.21,102.94,10.72,102.94,10.72Z"/></g><path class="cls-20" d="M90.42,10.08l-.18.17.21.1a8.62,8.62,0,0,0,7.41-.2,8.79,8.79,0,0,1-1.56,1.18,5.73,5.73,0,0,1-1.29.56l-.32.1.3.19c4.09,2.76,7.38,1.61,9,.67h0a6.13,6.13,0,0,0,.68-.45,45.17,45.17,0,0,0-.61,5.18l0,.46.23-.35a9,9,0,0,1,3-2.88,7.45,7.45,0,0,1,2.5-.92,9.55,9.55,0,0,0-2,3.95l-.08.34.24-.16c3.13-2.07,7.31-.36,7.35-.34l.12-.27c-3-3.43-5.06-5.4-7.39-5.9a14.08,14.08,0,0,0,.68-4.37V6.77l-.21.25a6.27,6.27,0,0,1-1.75,1.55h0c-2.26,1.31-4.95.87-6.65.55a12.32,12.32,0,0,0,1.31-4.89V4l-.18.14A20.72,20.72,0,0,1,98.9,5.67c-2.3,1.34-4.2,1.65-6,1l-.08,0,0,.09A15.41,15.41,0,0,1,90.42,10.08Zm.31.08A16.41,16.41,0,0,0,93,7c1.78.64,3.76.31,6-1a19.72,19.72,0,0,0,2.13-1.45,11.35,11.35,0,0,1-1.38,4.62l-.16.22.23,0c1.71.33,4.58.88,7-.53h0a6.31,6.31,0,0,0,1.62-1.36,13.11,13.11,0,0,1-.72,4.07l-.07.2.16,0c2.24.41,4.23,2.22,7,5.42-1.18-.38-4.23-1.11-6.74.36l0,0a9.45,9.45,0,0,1,2.09-3.77l.28-.29h-.36a7,7,0,0,0-2.94,1,9.1,9.1,0,0,0-2.82,2.62,48.1,48.1,0,0,1,.64-5l.08-.4-.26.23a5.84,5.84,0,0,1-.88.62c-1.53.89-4.63,2-8.5-.48a6.23,6.23,0,0,0,1-.48A8.93,8.93,0,0,0,98.67,9.7L99.29,9l-.75.49-.15.1C97.72,9.93,94.28,11.75,90.73,10.16Z"/><path class="cls-21" d="M97.64,31.89c-.51-7.33.24-11.33,2.7-14.06a57.13,57.13,0,0,0,4.49-5.75,47.22,47.22,0,0,0-.68,5.51,8.08,8.08,0,0,1,5.92-3.89,9.42,9.42,0,0,0-2.22,4.18c3.2-2.12,7.44-.35,7.44-.35s-7.46,3.67-8.66,10.82S103.47,42.14,97.89,42c-2.8-.06-4.88-1.49-7-3.32h0C93.19,40.05,98.14,39.23,97.64,31.89Z"/><path class="cls-22" d="M113.09,18.05s-4.69,3.35-6.28,7.65-.92,7.71-4,11.92c1.71-3.73,2.41-9.85,2.41-9.85s-1.11,4.25-2,7.05c1-5.09.81-7.8,1.38-9.29-1.09,2-1.49,7.25-1.49,7.25s-.54-5.67,1.28-9.66a12,12,0,0,1,6-5.6,11.31,11.31,0,0,0-4.69,5.35,14.16,14.16,0,0,1,5.72-5.2,15,15,0,0,0-5.3,7.34A17,17,0,0,1,113.09,18.05Z"/><path class="cls-22" d="M106.29,18.67a17.07,17.07,0,0,0-3.49,7.6c-.59,4.16-.72,8.91-2,11.21a61,61,0,0,0,.92-9.81,57.5,57.5,0,0,1-1.08,7.93c.23-4.37.24-9.56.24-9.56s-.58,4.87-.66,7.06c-.38-5.49.4-10.92,3.24-15.11a30.44,30.44,0,0,0-2.11,6.8,19.55,19.55,0,0,1,4.4-8.13,20.57,20.57,0,0,0-3.73,9.23A18.92,18.92,0,0,1,106.29,18.67Z"/><path class="cls-22" d="M102.42,18.62S99.28,23.26,100,32.91a37.55,37.55,0,0,1-.33-7.82s-.47,2.33-.1,9.14a26.4,26.4,0,0,1-.38-11.08c.47-2.44,3.7-6.77,3.7-6.77a14.91,14.91,0,0,0-3.16,7.29A15,15,0,0,1,102.42,18.62Z"/><g class="cls-19"><path class="cls-21" d="M90.88,38.68c2.31,1.37,7.26.55,6.76-6.79s.24-11.33,2.7-14.06a55.12,55.12,0,0,0,4.19-5.32l.08.11c-1.43,3.76-4.47,5.5-5.55,9.67s-.37,8.79-.21,11.09a7.46,7.46,0,0,1-1.21,5c-.75.88,2.68.71,2.21-4.78a6.26,6.26,0,0,1-.68,5.46c-.74,1.16,1.81.35,2.83-3.09a13.72,13.72,0,0,0,.54-5.19,15.41,15.41,0,0,1-.6,6.8c-1.28,3.48,1.68,1.4,3.16-3a8.28,8.28,0,0,1,.42-1c-1.31,4.85-3.46,8.53-7.63,8.43-2.8-.06-4.88-1.49-7-3.32Z"/></g><path class="cls-20" d="M90.93,38.54l-.12.27c2.29,2,4.37,3.28,7.08,3.35a5.76,5.76,0,0,0,3.11-.77c3.47-2,4.85-7.71,5.74-13,1-5.88,6.37-9.43,8-10.38l.6-.33.32-.15-.33-.14s-4.07-1.66-7.23.19l0,0a9.45,9.45,0,0,1,2.09-3.77l.28-.29h-.36a7,7,0,0,0-2.94,1,9.1,9.1,0,0,0-2.82,2.62,48.1,48.1,0,0,1,.64-5l.12-.62-.32.48a59.43,59.43,0,0,1-4.47,5.73c-2.49,2.76-3.26,6.74-2.75,14.2.29,4.12-1.16,5.87-2.42,6.6A4.23,4.23,0,0,1,90.93,38.54Zm.8.66a4.43,4.43,0,0,0,3.46-.4c1.09-.64,2.88-2.39,2.56-6.92-.5-7.34.24-11.24,2.67-13.93a56.47,56.47,0,0,0,4.19-5.33,45.48,45.48,0,0,0-.57,5l0,.46.23-.35a9,9,0,0,1,3-2.88,7.45,7.45,0,0,1,2.5-.92,9.55,9.55,0,0,0-2,3.95l-.08.34.24-.16c2.62-1.73,6-.82,7-.46l-.28.16c-1.65,1-7.12,4.57-8.13,10.59-.88,5.23-2.23,10.83-5.6,12.8a5.6,5.6,0,0,1-3,.74A10,10,0,0,1,91.73,39.2Z"/><path class="cls-23" d="M63.05,22.39c1.56-1.67,1.72-6.79,5.77-10.59a12.13,12.13,0,0,0-.91,3.8S72.84,7.32,80.66,5.19A17.21,17.21,0,0,0,78,8.64a25.15,25.15,0,0,1,8.19-1.5A11.4,11.4,0,0,0,93.59,4a12.31,12.31,0,0,1-.69,2.76,15.55,15.55,0,0,1-2.41,3.42c4.12,2,8.1-.62,8.1-.62A8.37,8.37,0,0,1,95,12c5.67,3.82,9.79,0,9.79,0a57.13,57.13,0,0,1-4.49,5.75c-2.46,2.73-3.21,6.73-2.7,14.06s-4.45,8.16-6.76,6.79h0a45.1,45.1,0,0,0-7.34-5.77c-6.05-3.43-17.06-6.07-26.62,9.93C56.22,44,55.72,31.25,63.05,22.39Z"/><path class="cls-24" d="M100.41,14.91a17.09,17.09,0,0,0-5.32,8.94c-1.41,5.88-2.91,7-5.12,7.16,3.58-2.42,3.91-8.86,3.91-8.86s-1.61,7.5-5.34,8c3.13-3.35,2.63-6.73,4.53-10.41a15.6,15.6,0,0,1,5-5.6,18.32,18.32,0,0,0-3.74,6.57A15.06,15.06,0,0,1,100.41,14.91Z"/><path class="cls-24" d="M95.11,14.73a23.52,23.52,0,0,0-3.68,6.91c-1.23,3.88-3,5.52-6,5.47,3.59-1.51,4.66-5.57,4.66-5.57s-2.2,5.18-7.46,4.71a10.19,10.19,0,0,0,5.4-5s-3.81,5.05-8.23,4.21c3.25-.84,5.39-4.36,5.39-4.36s-3.64,4-8.35,4.32c4.37-3,7-12.33,12.26-15.92a33.75,33.75,0,0,0-4.72,8.23c2.21-4.07,3.74-5.26,6.92-6.27-2.8,1.76-4.87,6.85-4.87,6.85A10.9,10.9,0,0,1,94,11.88c-3.47,1.85-5.78,6.62-5.78,6.62a15.27,15.27,0,0,1,6-5.42c-2.61,2.16-4.16,6.48-4.16,6.48A12.94,12.94,0,0,1,95.11,14.73Z"/><path class="cls-24" d="M87.91,8.55C84,13,80.48,19.86,77.46,20.89A24.78,24.78,0,0,0,81,15.31s-4.08,5.9-7.48,8c3.21-3.92,3.72-6.46,3.72-6.46s-3.73,6.43-7.3,8.54a18,18,0,0,0,3.94-7.47,50.34,50.34,0,0,1-5.25,8c1.75-3.67,3.54-8.14,3.54-8.14a17.23,17.23,0,0,0-3.89,7.11c0-6.65,3.47-13.55,8.47-16.7-3,2.92-4.86,7.9-4.86,7.9s2-5.36,7.41-7.19c-2.9,1.91-4.84,6.31-4.84,6.31s4.1-5.6,9.83-7.25c-3.51,2.16-5.78,6.57-5.78,6.57S83.3,9.33,86,7.82a24.34,24.34,0,0,0-4.24,5.93S86.21,9.32,87.91,8.55Z"/><g class="cls-25"><path class="cls-23" d="M63.05,22.39c1.56-1.67,1.72-6.79,5.77-10.59a12.13,12.13,0,0,0-.91,3.8s4.57-7.68,11.9-10.15l.36,0a20.31,20.31,0,0,0-11.92,15A7.44,7.44,0,0,1,67.31,17s-3.59,7-.54,9.31,5.82-3.9,13.13-5.3c-3.54,1.67-6,5.71-1.81,5.28S85.58,30,90,26.35c-.86,2.25-4.19,3.29-4.19,3.29,3.18,1.18,6.42,6.86,8.44.83s1-6.78,3.46-10.55,4.74-4.92,6.56-7.24c.12-.15.24-.29.37-.43a1.82,1.82,0,0,0,.21-.17,57.13,57.13,0,0,1-4.49,5.75c-2.46,2.73-3.21,6.73-2.7,14.06s-4.45,8.16-6.76,6.79h0a45.1,45.1,0,0,0-7.34-5.77c-6.05-3.43-17.06-6.07-26.62,9.93C56.22,44,55.72,31.25,63.05,22.39Z"/></g><path class="cls-20" d="M56.64,42.91c.11.21.23.16.27.14h0a.31.31,0,0,0,.1-.12c2.87-4.79,6.09-8.25,9.56-10.28,6.6-3.85,12.85-1.91,16.93.4a33.75,33.75,0,0,1,5.91,4.51c.48.44.94.85,1.4,1.25a4.45,4.45,0,0,0,4.38,0c1.09-.64,2.88-2.39,2.56-6.92-.5-7.34.24-11.24,2.67-13.93a59.33,59.33,0,0,0,4.5-5.77l-.16-.23a5.84,5.84,0,0,1-.88.62c-1.53.89-4.63,2-8.5-.48a6.23,6.23,0,0,0,1-.48A8.93,8.93,0,0,0,98.67,9.7L99.29,9l-.75.49-.15.1c-.67.38-4.11,2.2-7.66.61A15.63,15.63,0,0,0,93,6.87a11.84,11.84,0,0,0,.72-2.81l.05-.4-.24.25A11.12,11.12,0,0,1,91.4,5.49,10.69,10.69,0,0,1,86.15,7a25.62,25.62,0,0,0-7.88,1.37,17.39,17.39,0,0,1,2.46-3l.44-.42L80.64,5a17,17,0,0,0-4,1.72,28,28,0,0,0-8.53,8.35,14.52,14.52,0,0,1,.86-3.24l.2-.55-.37.35a17.46,17.46,0,0,0-4.37,7.58,9.38,9.38,0,0,1-1.41,3C56.34,30.29,56,41.64,56.64,42.91Zm0-1.39c-.13-3.71,1-12.46,6.46-19a9.73,9.73,0,0,0,1.47-3.13,17.69,17.69,0,0,1,3.92-7.09,11.57,11.57,0,0,0-.73,3.31V16l.2-.35A28,28,0,0,1,76.7,7a17.43,17.43,0,0,1,3.47-1.55,18.27,18.27,0,0,0-2.31,3l-.21.38L78,8.78a25.54,25.54,0,0,1,8.16-1.49,10.7,10.7,0,0,0,5.34-1.52,12.12,12.12,0,0,0,1.93-1.39A10,10,0,0,1,92.8,6.7a15.41,15.41,0,0,1-2.38,3.38l-.18.17.21.1a8.62,8.62,0,0,0,7.41-.2,8.79,8.79,0,0,1-1.56,1.18,5.73,5.73,0,0,1-1.29.56l-.32.1.3.19c4.09,2.76,7.38,1.61,9,.67a1.89,1.89,0,0,0,.28-.17,54.29,54.29,0,0,1-4,5c-2.49,2.76-3.26,6.74-2.75,14.2.29,4.12-1.16,5.87-2.42,6.6a4.23,4.23,0,0,1-4.17,0l-1.39-1.23a34.24,34.24,0,0,0-6-4.54c-4.12-2.34-10.44-4.3-17.11-.4-3.51,2-6.76,5.53-9.65,10.36A4.18,4.18,0,0,1,56.67,41.52Z"/><path class="cls-26" d="M90.49,10.21A15.55,15.55,0,0,0,92.9,6.79c2.57,1,5.29-.18,8.35-2.56a11.32,11.32,0,0,1-1.42,5c2.41.46,6.2,1.09,8.72-2.1a13.74,13.74,0,0,1-.74,4.5c2.49.46,4.74,2.74,7.48,5.9,0,0-4.24-1.77-7.44.35a9.42,9.42,0,0,1,2.22-4.18,8.08,8.08,0,0,0-5.92,3.89,47.22,47.22,0,0,1,.68-5.51s-4.12,3.78-9.79,0a8.37,8.37,0,0,0,3.55-2.45S94.61,12.21,90.49,10.21Z"/><path class="cls-27" d="M113.56,16.45s-3.24-4.58-7.39-4.2a9.87,9.87,0,0,1,3.19,1.57,10.44,10.44,0,0,0-4.23-.85,9.61,9.61,0,0,1,2.66,1.32,6.74,6.74,0,0,0-3.17-.14,3.46,3.46,0,0,1,1.87.9l1.32-.62a18.43,18.43,0,0,1,2-.6c-.5.78-1.28,2.18-1.28,2.18a5.39,5.39,0,0,1,2.23.64,6,6,0,0,0-1.1-1.3,8.46,8.46,0,0,1,2.6,1.23,10.52,10.52,0,0,0-1.92-2.29A15.59,15.59,0,0,1,113.56,16.45Z"/><path class="cls-27" d="M106.83,10.91s-4.74,2-9.29.38c1.34,1.21,4.83,1.26,4.83,1.26a10.46,10.46,0,0,1-5.86-.44c1.78,1.41,5.22,1.6,8.11.14A5.54,5.54,0,0,0,106.83,10.91Z"/><path class="cls-27" d="M100,6.15A8.62,8.62,0,0,1,92.5,8.46a9.48,9.48,0,0,0,4.19.68,12,12,0,0,1-4.89.47c2.14,1.59,6.49.57,8.26-2A10.69,10.69,0,0,1,97.21,9,7.64,7.64,0,0,0,100,6.15Z"/><g class="cls-19"><path class="cls-26" d="M92.16,8.05c.45-.7.74-1.26.74-1.26,2.57,1,5.29-.18,8.35-2.56h0l-.13.27S98.84,8.89,92.16,8.05Z"/><path class="cls-26" d="M102.94,10.72a5.33,5.33,0,0,0,3,0c-3,1.65-6.94.31-8.55.15l1.31-1.27a4.09,4.09,0,0,0,.85-.3l.29-.17a.21.21,0,0,0,0,.06c2.41.46,6.2,1.09,8.72-2.1,0,.06,0,.11,0,.16l-.12.2C106.84,10.21,102.94,10.72,102.94,10.72Z"/></g><path class="cls-28" d="M90.42,10.08l-.18.17.21.1a8.62,8.62,0,0,0,7.41-.2,8.79,8.79,0,0,1-1.56,1.18,5.73,5.73,0,0,1-1.29.56l-.32.1.3.19c4.09,2.76,7.38,1.61,9,.67h0a6.13,6.13,0,0,0,.68-.45,45.17,45.17,0,0,0-.61,5.18l0,.46.23-.35a9,9,0,0,1,3-2.88,7.45,7.45,0,0,1,2.5-.92,9.55,9.55,0,0,0-2,3.95l-.08.34.24-.16c3.13-2.07,7.31-.36,7.35-.34l.12-.27c-3-3.43-5.06-5.4-7.39-5.9a14.08,14.08,0,0,0,.68-4.37V6.77l-.21.25a6.27,6.27,0,0,1-1.75,1.55h0c-2.26,1.31-4.95.87-6.65.55a12.32,12.32,0,0,0,1.31-4.89V4l-.18.14A20.72,20.72,0,0,1,98.9,5.67c-2.3,1.34-4.2,1.65-6,1l-.08,0,0,.09A15.41,15.41,0,0,1,90.42,10.08Zm.31.08A16.41,16.41,0,0,0,93,7c1.78.64,3.76.31,6-1a19.72,19.72,0,0,0,2.13-1.45,11.35,11.35,0,0,1-1.38,4.62l-.16.22.23,0c1.71.33,4.58.88,7-.53h0a6.31,6.31,0,0,0,1.62-1.36,13.11,13.11,0,0,1-.72,4.07l-.07.2.16,0c2.24.41,4.23,2.22,7,5.42-1.18-.38-4.23-1.11-6.74.36l0,0a9.45,9.45,0,0,1,2.09-3.77l.28-.29h-.36a7,7,0,0,0-2.94,1,9.1,9.1,0,0,0-2.82,2.62,48.1,48.1,0,0,1,.64-5l.08-.4-.26.23a5.84,5.84,0,0,1-.88.62c-1.53.89-4.63,2-8.5-.48a6.23,6.23,0,0,0,1-.48A8.93,8.93,0,0,0,98.67,9.7L99.29,9l-.75.49-.15.1C97.72,9.93,94.28,11.75,90.73,10.16Z"/><path class="cls-29" d="M97.64,31.89c-.51-7.33.24-11.33,2.7-14.06a57.13,57.13,0,0,0,4.49-5.75,47.22,47.22,0,0,0-.68,5.51,8.08,8.08,0,0,1,5.92-3.89,9.42,9.42,0,0,0-2.22,4.18c3.2-2.12,7.44-.35,7.44-.35s-7.46,3.67-8.66,10.82S103.47,42.14,97.89,42c-2.8-.06-4.88-1.49-7-3.32h0C93.19,40.05,98.14,39.23,97.64,31.89Z"/><path class="cls-30" d="M113.09,18.05s-4.69,3.35-6.28,7.65-.92,7.71-4,11.92c1.71-3.73,2.41-9.85,2.41-9.85s-1.11,4.25-2,7.05c1-5.09.81-7.8,1.38-9.29-1.09,2-1.49,7.25-1.49,7.25s-.54-5.67,1.28-9.66a12,12,0,0,1,6-5.6,11.31,11.31,0,0,0-4.69,5.35,14.16,14.16,0,0,1,5.72-5.2,15,15,0,0,0-5.3,7.34A17,17,0,0,1,113.09,18.05Z"/><path class="cls-30" d="M106.29,18.67a17.07,17.07,0,0,0-3.49,7.6c-.59,4.16-.72,8.91-2,11.21a61,61,0,0,0,.92-9.81,57.5,57.5,0,0,1-1.08,7.93c.23-4.37.24-9.56.24-9.56s-.58,4.87-.66,7.06c-.38-5.49.4-10.92,3.24-15.11a30.44,30.44,0,0,0-2.11,6.8,19.55,19.55,0,0,1,4.4-8.13,20.57,20.57,0,0,0-3.73,9.23A18.92,18.92,0,0,1,106.29,18.67Z"/><path class="cls-30" d="M102.42,18.62S99.28,23.26,100,32.91a37.55,37.55,0,0,1-.33-7.82s-.47,2.33-.1,9.14a26.4,26.4,0,0,1-.38-11.08c.47-2.44,3.7-6.77,3.7-6.77a14.91,14.91,0,0,0-3.16,7.29A15,15,0,0,1,102.42,18.62Z"/><g class="cls-19"><path class="cls-29" d="M90.88,38.68c2.31,1.37,7.26.55,6.76-6.79s.24-11.33,2.7-14.06a55.12,55.12,0,0,0,4.19-5.32l.08.11c-1.43,3.76-4.47,5.5-5.55,9.67s-.37,8.79-.21,11.09a7.46,7.46,0,0,1-1.21,5c-.75.88,2.68.71,2.21-4.78a6.26,6.26,0,0,1-.68,5.46c-.74,1.16,1.81.35,2.83-3.09a13.72,13.72,0,0,0,.54-5.19,15.41,15.41,0,0,1-.6,6.8c-1.28,3.48,1.68,1.4,3.16-3a8.28,8.28,0,0,1,.42-1c-1.31,4.85-3.46,8.53-7.63,8.43-2.8-.06-4.88-1.49-7-3.32Z"/></g><path class="cls-28" d="M90.93,38.54l-.12.27c2.29,2,4.37,3.28,7.08,3.35a5.76,5.76,0,0,0,3.11-.77c3.47-2,4.85-7.71,5.74-13,1-5.88,6.37-9.43,8-10.38l.6-.33.32-.15-.33-.14s-4.07-1.66-7.23.19l0,0a9.45,9.45,0,0,1,2.09-3.77l.28-.29h-.36a7,7,0,0,0-2.94,1,9.1,9.1,0,0,0-2.82,2.62,48.1,48.1,0,0,1,.64-5l.12-.62-.32.48a59.43,59.43,0,0,1-4.47,5.73c-2.49,2.76-3.26,6.74-2.75,14.2.29,4.12-1.16,5.87-2.42,6.6A4.23,4.23,0,0,1,90.93,38.54Zm.8.66a4.43,4.43,0,0,0,3.46-.4c1.09-.64,2.88-2.39,2.56-6.92-.5-7.34.24-11.24,2.67-13.93a56.47,56.47,0,0,0,4.19-5.33,45.48,45.48,0,0,0-.57,5l0,.46.23-.35a9,9,0,0,1,3-2.88,7.45,7.45,0,0,1,2.5-.92,9.55,9.55,0,0,0-2,3.95l-.08.34.24-.16c2.62-1.73,6-.82,7-.46l-.28.16c-1.65,1-7.12,4.57-8.13,10.59-.88,5.23-2.23,10.83-5.6,12.8a5.6,5.6,0,0,1-3,.74A10,10,0,0,1,91.73,39.2Z"/><path class="cls-31" d="M63.05,22.39c1.56-1.67,1.72-6.79,5.77-10.59a12.13,12.13,0,0,0-.91,3.8S72.84,7.32,80.66,5.19A17.21,17.21,0,0,0,78,8.64a25.15,25.15,0,0,1,8.19-1.5A11.4,11.4,0,0,0,93.59,4a12.31,12.31,0,0,1-.69,2.76,15.55,15.55,0,0,1-2.41,3.42c4.12,2,8.1-.62,8.1-.62A8.37,8.37,0,0,1,95,12c5.67,3.82,9.79,0,9.79,0a57.13,57.13,0,0,1-4.49,5.75c-2.46,2.73-3.21,6.73-2.7,14.06s-4.45,8.16-6.76,6.79h0a45.1,45.1,0,0,0-7.34-5.77c-6.05-3.43-17.06-6.07-26.62,9.93C56.22,44,55.72,31.25,63.05,22.39Z"/><path class="cls-32" d="M100.41,14.91a17.09,17.09,0,0,0-5.32,8.94c-1.41,5.88-2.91,7-5.12,7.16,3.58-2.42,3.91-8.86,3.91-8.86s-1.61,7.5-5.34,8c3.13-3.35,2.63-6.73,4.53-10.41a15.6,15.6,0,0,1,5-5.6,18.32,18.32,0,0,0-3.74,6.57A15.06,15.06,0,0,1,100.41,14.91Z"/><path class="cls-32" d="M95.11,14.73a23.52,23.52,0,0,0-3.68,6.91c-1.23,3.88-3,5.52-6,5.47,3.59-1.51,4.66-5.57,4.66-5.57s-2.2,5.18-7.46,4.71a10.19,10.19,0,0,0,5.4-5s-3.81,5.05-8.23,4.21c3.25-.84,5.39-4.36,5.39-4.36s-3.64,4-8.35,4.32c4.37-3,7-12.33,12.26-15.92a33.75,33.75,0,0,0-4.72,8.23c2.21-4.07,3.74-5.26,6.92-6.27-2.8,1.76-4.87,6.85-4.87,6.85A10.9,10.9,0,0,1,94,11.88c-3.47,1.85-5.78,6.62-5.78,6.62a15.27,15.27,0,0,1,6-5.42c-2.61,2.16-4.16,6.48-4.16,6.48A12.94,12.94,0,0,1,95.11,14.73Z"/><path class="cls-32" d="M87.91,8.55C84,13,80.48,19.86,77.46,20.89A24.78,24.78,0,0,0,81,15.31s-4.08,5.9-7.48,8c3.21-3.92,3.72-6.46,3.72-6.46s-3.73,6.43-7.3,8.54a18,18,0,0,0,3.94-7.47,50.34,50.34,0,0,1-5.25,8c1.75-3.67,3.54-8.14,3.54-8.14a17.23,17.23,0,0,0-3.89,7.11c0-6.65,3.47-13.55,8.47-16.7-3,2.92-4.86,7.9-4.86,7.9s2-5.36,7.41-7.19c-2.9,1.91-4.84,6.31-4.84,6.31s4.1-5.6,9.83-7.25c-3.51,2.16-5.78,6.57-5.78,6.57S83.3,9.33,86,7.82a24.34,24.34,0,0,0-4.24,5.93S86.21,9.32,87.91,8.55Z"/><g class="cls-25"><path class="cls-31" d="M63.05,22.39c1.56-1.67,1.72-6.79,5.77-10.59a12.13,12.13,0,0,0-.91,3.8s4.57-7.68,11.9-10.15l.36,0a20.31,20.31,0,0,0-11.92,15A7.44,7.44,0,0,1,67.31,17s-3.59,7-.54,9.31,5.82-3.9,13.13-5.3c-3.54,1.67-6,5.71-1.81,5.28S85.58,30,90,26.35c-.86,2.25-4.19,3.29-4.19,3.29,3.18,1.18,6.42,6.86,8.44.83s1-6.78,3.46-10.55,4.74-4.92,6.56-7.24c.12-.15.24-.29.37-.43a1.82,1.82,0,0,0,.21-.17,57.13,57.13,0,0,1-4.49,5.75c-2.46,2.73-3.21,6.73-2.7,14.06s-4.45,8.16-6.76,6.79h0a45.1,45.1,0,0,0-7.34-5.77c-6.05-3.43-17.06-6.07-26.62,9.93C56.22,44,55.72,31.25,63.05,22.39Z"/></g><path class="cls-28" d="M56.64,42.91c.11.21.23.16.27.14h0a.31.31,0,0,0,.1-.12c2.87-4.79,6.09-8.25,9.56-10.28,6.6-3.85,12.85-1.91,16.93.4a33.75,33.75,0,0,1,5.91,4.51c.48.44.94.85,1.4,1.25a4.45,4.45,0,0,0,4.38,0c1.09-.64,2.88-2.39,2.56-6.92-.5-7.34.24-11.24,2.67-13.93a59.33,59.33,0,0,0,4.5-5.77l-.16-.23a5.84,5.84,0,0,1-.88.62c-1.53.89-4.63,2-8.5-.48a6.23,6.23,0,0,0,1-.48A8.93,8.93,0,0,0,98.67,9.7L99.29,9l-.75.49-.15.1c-.67.38-4.11,2.2-7.66.61A15.63,15.63,0,0,0,93,6.87a11.84,11.84,0,0,0,.72-2.81l.05-.4-.24.25A11.12,11.12,0,0,1,91.4,5.49,10.69,10.69,0,0,1,86.15,7a25.62,25.62,0,0,0-7.88,1.37,17.39,17.39,0,0,1,2.46-3l.44-.42L80.64,5a17,17,0,0,0-4,1.72,28,28,0,0,0-8.53,8.35,14.52,14.52,0,0,1,.86-3.24l.2-.55-.37.35a17.46,17.46,0,0,0-4.37,7.58,9.38,9.38,0,0,1-1.41,3C56.34,30.29,56,41.64,56.64,42.91Zm0-1.39c-.13-3.71,1-12.46,6.46-19a9.73,9.73,0,0,0,1.47-3.13,17.69,17.69,0,0,1,3.92-7.09,11.57,11.57,0,0,0-.73,3.31V16l.2-.35A28,28,0,0,1,76.7,7a17.43,17.43,0,0,1,3.47-1.55,18.27,18.27,0,0,0-2.31,3l-.21.38L78,8.78a25.54,25.54,0,0,1,8.16-1.49,10.7,10.7,0,0,0,5.34-1.52,12.12,12.12,0,0,0,1.93-1.39A10,10,0,0,1,92.8,6.7a15.41,15.41,0,0,1-2.38,3.38l-.18.17.21.1a8.62,8.62,0,0,0,7.41-.2,8.79,8.79,0,0,1-1.56,1.18,5.73,5.73,0,0,1-1.29.56l-.32.1.3.19c4.09,2.76,7.38,1.61,9,.67a1.89,1.89,0,0,0,.28-.17,54.29,54.29,0,0,1-4,5c-2.49,2.76-3.26,6.74-2.75,14.2.29,4.12-1.16,5.87-2.42,6.6a4.23,4.23,0,0,1-4.17,0l-1.39-1.23a34.24,34.24,0,0,0-6-4.54c-4.12-2.34-10.44-4.3-17.11-.4-3.51,2-6.76,5.53-9.65,10.36A4.18,4.18,0,0,1,56.67,41.52Z"/></g></g></g></svg>