<svg xmlns="http://www.w3.org/2000/svg" width="75.467" height="67" viewBox="0 0 75.467 67"><g transform="translate(0 -15.606)"><path d="M27.7,34.228A6.844,6.844,0,0,1,22.97,22.459l-1.585-1.49a1.524,1.524,0,0,0-2.072.079L.445,39.946a1.524,1.524,0,0,0-.13,2l6.941,7.927a1.549,1.549,0,0,1,.283.617A21.153,21.153,0,0,0,8.949,54.6L9.6,53.95a6.026,6.026,0,0,1,8.524,0l.021.021.02.02A5.982,5.982,0,0,1,19.74,56.8a6.017,6.017,0,0,1,7.24.965l.025.025.01.01a6.014,6.014,0,0,1,1.366,6.411,5.978,5.978,0,0,1,3.448,1.7l.03.03a5.986,5.986,0,0,1,1.611,2.94L47.152,82.568a3.818,3.818,0,0,0,2.691,1.12,3.521,3.521,0,0,0,2.2-.757,3.639,3.639,0,0,0,.321-5.419l-13.24-13.24a1.747,1.747,0,0,1,0-2.471,1.773,1.773,0,0,1,2.508,0l16.84,16.84a3.82,3.82,0,0,0,2.691,1.12A3.523,3.523,0,0,0,63.36,79a3.639,3.639,0,0,0,.321-5.419L46.762,56.666a1.771,1.771,0,0,1,0-2.5h0a1.749,1.749,0,0,1,2.474,0L62.4,67.322a3.82,3.82,0,0,0,2.691,1.12,3.521,3.521,0,0,0,2.2-.757,3.639,3.639,0,0,0,.321-5.419L39.722,34.381Z" transform="translate(0 -3.639)" fill="#2e3192"/><path d="M129.1,242.646a3.618,3.618,0,0,0,2.852-1.38,3.7,3.7,0,0,0-.363-4.89l-1.161-1.161a6,6,0,0,1-1.741,3.823l-1.51,1.51a6.092,6.092,0,0,1-.924.759l.28.28A3.619,3.619,0,0,0,129.1,242.646Z" transform="translate(-92.005 -160.04)" fill="#2e3192"/><path d="M120.991,16.054a1.524,1.524,0,0,0-2.072-.079l-1.26.719-.007,0-25.086,3.45a3.593,3.593,0,1,0,0,7.187l13.379.17s20.734,20.744,25.343,25.353c3.623-4.616,6.854-9.443,7.771-13.65a1.552,1.552,0,0,1,.283-.616l.649-1.634a1.524,1.524,0,0,0-.13-2Z" transform="translate(-64.838)" fill="#2e3192"/><path d="M33.739,155.966a2.772,2.772,0,0,0,3.92,0l2.168-2.168a2.771,2.771,0,0,0,0-3.92l-.029-.029a2.771,2.771,0,0,0-3.92,0l-2.168,2.168a2.772,2.772,0,0,0,0,3.92Z" transform="translate(-23.975 -97.238)" fill="#2e3192"/><path d="M57.445,173.833a2.764,2.764,0,0,0,1.96-.812l5.13-5.13a2.772,2.772,0,0,0,0-3.92l-.029-.029a2.772,2.772,0,0,0-3.921,0l-5.13,5.13a2.772,2.772,0,0,0,0,3.92l.029.029A2.763,2.763,0,0,0,57.445,173.833Z" transform="translate(-39.822 -107.508)" fill="#2e3192"/><path d="M80.015,201.238a2.772,2.772,0,0,0,3.92,0l3.32-3.32a2.773,2.773,0,0,0,0-3.92l-.029-.029a2.773,2.773,0,0,0-3.92,0l-3.32,3.32a2.772,2.772,0,0,0,0,3.92Z" transform="translate(-57.698 -129.39)" fill="#2e3192"/><path d="M108.376,229.543l1.51-1.51a2.773,2.773,0,0,0,0-3.92l-.029-.029a2.773,2.773,0,0,0-3.921,0l-1.51,1.51a2.772,2.772,0,0,0,0,3.92l.029.029a2.772,2.772,0,0,0,3.92,0Z" transform="translate(-75.509 -151.336)" fill="#2e3192"/></g></svg>