<svg xmlns="http://www.w3.org/2000/svg" xmlns:xlink="http://www.w3.org/1999/xlink" width="246.533" height="44.351" viewBox="0 0 246.533 44.351"><defs><style>.a{fill:#fff;}.b{fill:url(#a);}</style><linearGradient id="a" x1="0.5" y1="1" x2="0.5" gradientUnits="objectBoundingBox"><stop offset="0" stop-color="#2e3192"/><stop offset="0.34" stop-color="#2d2f8f"/><stop offset="0.6" stop-color="#292985"/><stop offset="0.83" stop-color="#221f75"/><stop offset="1" stop-color="#1b1464"/></linearGradient></defs><path class="a" d="M184.46,37.25h11.109c7.116,0,12.871,2.547,12.871,10.42,0,7.6-5.8,10.965-12.657,10.965h-4.015V69.606H184.46ZM195.352,52.8c4.021,0,5.924-1.79,5.924-5.158s-2.167-4.6-6.129-4.6h-3.371V52.8Z" transform="translate(-127.93 -25.834)"/><path class="a" d="M269.77,78.895c0-5.185,4.128-8,13.864-9.022-.144-2.145-1.226-3.558-3.892-3.558-2.066,0-4.125.87-6.515,2.225l-2.593-4.79a20.123,20.123,0,0,1,10.515-3.239c6.295,0,9.779,3.595,9.779,11.14V85.723h-5.951l-.524-2.522h-.181a10.81,10.81,0,0,1-7.162,3.117A7.1,7.1,0,0,1,269.77,78.895Zm13.861-.325v-4.29c-5.185.7-6.877,2.182-6.877,4.045,0,1.584,1.091,2.36,2.823,2.36C281.232,80.675,282.341,79.86,283.631,78.57Z" transform="translate(-187.096 -41.966)"/><path class="a" d="M358.8,61.1h5.948l.527,3.117h.181c2.072-1.989,4.554-3.711,7.91-3.711,5.354,0,7.637,3.776,7.637,9.929V85.723h-7.294V71.386c0-3.543-.953-4.652-3.065-4.652-1.839,0-2.954.852-4.557,2.393V85.735H358.8Z" transform="translate(-248.842 -41.966)"/><path class="a" d="M447,63.323V53.382H443.63V47.939l3.769-.282.855-6.537h6.031v6.537h5.9v5.725h-5.893v9.856c0,2.789,1.266,3.91,3.187,3.91a7.26,7.26,0,0,0,2.341-.469l1.149,5.3a17.389,17.389,0,0,1-5.47.892C449.419,72.869,447,69.029,447,63.323Z" transform="translate(-307.675 -28.518)"/><path class="a" d="M513.406,29.35H520.7v8.492l-.325,4.459a11.1,11.1,0,0,1,7.6-3.4c5.351,0,7.634,3.776,7.634,9.929V64.112h-7.294V49.776c0-3.543-.95-4.652-3.065-4.652-1.839,0-2.951.852-4.557,2.393V64.124H513.4Z" transform="translate(-356.063 -20.355)"/><path class="a" d="M602.18,78.895c0-5.185,4.128-8,13.864-9.022-.147-2.145-1.226-3.558-3.9-3.558-2.065,0-4.125.87-6.512,2.225l-2.593-4.79a20.115,20.115,0,0,1,10.515-3.239c6.292,0,9.779,3.595,9.779,11.14V85.723h-5.951l-.527-2.522h-.181a10.81,10.81,0,0,1-7.162,3.117A7.094,7.094,0,0,1,602.18,78.895Zm13.864-.325v-4.29c-5.188.7-6.88,2.182-6.88,4.045,0,1.584,1.091,2.36,2.826,2.36C613.639,80.675,614.748,79.86,616.044,78.57Z" transform="translate(-417.635 -41.966)"/><path class="a" d="M691.2,61.063h5.951l.524,4.29h.181c1.793-3.285,4.483-4.9,6.993-4.9a6.841,6.841,0,0,1,2.939.5l-1.226,6.295a10.076,10.076,0,0,0-2.657-.4c-1.854,0-4.107,1.2-5.421,4.554V85.663H691.2Z" transform="translate(-479.374 -41.924)"/><path class="a" d="M751.231,63.323V53.382H747.86V47.939l3.769-.282.87-6.537h6.031v6.537h5.9v5.725h-5.909v9.856c0,2.789,1.269,3.91,3.187,3.91a7.26,7.26,0,0,0,2.341-.469l1.149,5.3a17.388,17.388,0,0,1-5.47.892C753.649,72.869,751.231,69.029,751.231,63.323Z" transform="translate(-518.67 -28.518)"/><path class="b" d="M36.619,32.034a12.861,12.861,0,0,1-7.848,3.448A12.739,12.739,0,0,1,21,33.131a15.236,15.236,0,0,1-6.295-9.194,13.515,13.515,0,0,0,7.355,4.211,13.932,13.932,0,0,0,10.686-2.534,11.44,11.44,0,0,1-6.31.9,11.128,11.128,0,0,1-5.909-2.795c-1.247-1.158-2.967-2.758-2.8-5.011a5.642,5.642,0,0,1,2.495-3.923l-.288-3.641a1.676,1.676,0,0,1,.346.052,2.715,2.715,0,0,1,1.637,1.532,2.731,2.731,0,0,1,1.695-1.388,2.694,2.694,0,0,1,1.983.26s1.33.521-.65,4.346a4.811,4.811,0,0,0,.334,1.1,4.628,4.628,0,0,0,.987,1.471,3.868,3.868,0,0,0,5.418.162l-2.608-.864A4.227,4.227,0,0,1,30.119,12.8a4.037,4.037,0,0,1,3.175-.644s3.328.411,3.953,3.065l-2.17,2,2.43-.334.975.736s2.249-.956,2.378-1.085c0,0,.677-1.82.27-2.1l-1.811-3.132s-.549-2.366-.662-2.724A6.742,6.742,0,0,0,36.493,5.8s-2.531-2.087-3.1-2.372L30.094,0a16.71,16.71,0,0,0-.254,3.543s.129.386-.227.389A24.517,24.517,0,0,0,22.565,1.4a24.983,24.983,0,0,0-11.109.4,10.726,10.726,0,0,1,9.825,3.463,16.32,16.32,0,0,0-16.1,3.1A16.431,16.431,0,0,0,0,19.92a11.788,11.788,0,0,1,5.6-7.3,11.465,11.465,0,0,1,7.125-1.226,12.835,12.835,0,0,0-4.269,2.093,14.014,14.014,0,0,0-4.9,7.432A17.267,17.267,0,0,0,4.87,33.386l.074.141a19.691,19.691,0,0,0,13.984,10.04,18.942,18.942,0,0,0,4.355.141,19.991,19.991,0,0,0,7.257-1.781,17.818,17.818,0,0,0,10.576-16.8A15.161,15.161,0,0,1,36.619,32.034Zm.552-23,.644,1.413-1.342.211-1.4-3.592Z"/></svg>