<svg xmlns="http://www.w3.org/2000/svg" xmlns:xlink="http://www.w3.org/1999/xlink" width="208" height="37.419" viewBox="0 0 208 37.419"><defs><style>.a{fill:url(#a);}</style><linearGradient id="a" x1="0.5" y1="1" x2="0.5" gradientUnits="objectBoundingBox"><stop offset="0" stop-color="#2e3192"/><stop offset="0.34" stop-color="#2d2f8f"/><stop offset="0.6" stop-color="#292985"/><stop offset="0.83" stop-color="#221f75"/><stop offset="1" stop-color="#1b1464"/></linearGradient></defs><path d="M184.46,37.25h9.373c6,0,10.86,2.149,10.86,8.791,0,6.412-4.9,9.251-10.679,9.251h-3.361v9.257H184.46Zm9.189,13.122c3.392,0,5-1.51,5-4.352s-1.828-3.878-5.171-3.878h-2.844v8.23Z" transform="translate(-136.766 -27.619)"/><path d="M269.78,76.021c0-4.375,3.48-6.746,11.695-7.612-.122-1.81-1.034-3-3.284-3a11.441,11.441,0,0,0-5.5,1.877l-2.187-4.041a16.978,16.978,0,0,1,8.871-2.733c5.311,0,8.251,3.033,8.251,9.4V81.782H282.61l-.445-2.128h-.153a9.109,9.109,0,0,1-6.043,2.63A5.985,5.985,0,0,1,269.78,76.021Zm11.692-.274v-3.62c-4.375.592-5.8,1.841-5.8,3.413,0,1.337.92,1.994,2.381,1.994A4.71,4.71,0,0,0,281.472,75.747Z" transform="translate(-200.025 -44.864)"/><path d="M358.8,61.012h5.019l.445,2.63h.153a9.516,9.516,0,0,1,6.673-3.131c4.517,0,6.443,3.188,6.443,8.377V81.782h-6.154v-12.1c0-2.989-.8-3.925-2.586-3.925-1.551,0-2.493.719-3.845,2.019V81.792H358.8Z" transform="translate(-266.028 -44.864)"/><path d="M446.474,59.853V51.465H443.63V46.873l3.18-.238.721-5.515h5.089v5.515h4.98v4.83h-4.972V59.78c0,2.353,1.068,3.3,2.689,3.3a6.205,6.205,0,0,0,1.975-.393l.97,4.468a14.671,14.671,0,0,1-4.615.752C448.514,67.907,446.474,64.667,446.474,59.853Z" transform="translate(-328.924 -30.488)"/><path d="M513.405,29.35h6.154v7.165l-.274,3.762a9.361,9.361,0,0,1,6.412-2.87c4.515,0,6.441,3.188,6.441,8.377V58.679h-6.154v-12.1c0-2.989-.8-3.925-2.586-3.925-1.551,0-2.49.719-3.845,2.019V58.689H513.4Z" transform="translate(-380.654 -21.761)"/><path d="M602.18,76.021c0-4.375,3.483-6.746,11.7-7.612-.124-1.81-1.034-3-3.286-3a11.423,11.423,0,0,0-5.494,1.877l-2.187-4.041a16.971,16.971,0,0,1,8.871-2.733c5.308,0,8.251,3.033,8.251,9.4V81.782H615.01l-.445-2.128h-.153a9.108,9.108,0,0,1-6.043,2.63A5.986,5.986,0,0,1,602.18,76.021Zm11.7-.274v-3.62c-4.377.592-5.8,1.841-5.8,3.413,0,1.337.92,1.994,2.384,1.994A4.723,4.723,0,0,0,613.877,75.747Z" transform="translate(-446.479 -44.864)"/><path d="M691.2,60.967h5.021l.442,3.62h.153c1.513-2.772,3.783-4.137,5.9-4.137a5.772,5.772,0,0,1,2.48.419l-1.034,5.311a8.5,8.5,0,0,0-2.239-.334c-1.567,0-3.467,1.008-4.577,3.84V81.722H691.2Z" transform="translate(-512.482 -44.82)"/><path d="M750.7,59.853V51.465H747.86V46.873l3.183-.238.732-5.515h5.089v5.515h4.98v4.83h-4.985V59.78c0,2.353,1.07,3.3,2.689,3.3a6.205,6.205,0,0,0,1.975-.393l.97,4.468a14.671,14.671,0,0,1-4.615.752C752.744,67.907,750.7,64.667,750.7,59.853Z" transform="translate(-554.492 -30.488)"/><path class="a" d="M30.9,27.027a10.851,10.851,0,0,1-6.622,2.909,10.748,10.748,0,0,1-6.552-1.983A12.854,12.854,0,0,1,12.411,20.2a11.4,11.4,0,0,0,6.205,3.553,11.754,11.754,0,0,0,9.016-2.138,9.652,9.652,0,0,1-5.324.758,9.388,9.388,0,0,1-4.985-2.358c-1.052-.977-2.5-2.327-2.363-4.227a4.76,4.76,0,0,1,2.1-3.31L16.822,9.4a1.414,1.414,0,0,1,.292.044,2.29,2.29,0,0,1,1.381,1.293,2.3,2.3,0,0,1,1.43-1.171,2.273,2.273,0,0,1,1.673.22s1.122.44-.548,3.666a4.059,4.059,0,0,0,.282.926,3.9,3.9,0,0,0,.833,1.241,3.263,3.263,0,0,0,4.571.137l-2.2-.729a3.567,3.567,0,0,1,.877-4.227,3.406,3.406,0,0,1,2.679-.543s2.808.346,3.335,2.586l-1.831,1.688,2.05-.282.822.621s1.9-.807,2.006-.915c0,0,.571-1.536.228-1.774L33.173,9.538s-.463-2-.558-2.3A5.688,5.688,0,0,0,30.79,4.892s-2.136-1.761-2.617-2L25.391,0a14.1,14.1,0,0,0-.215,2.989s.109.326-.191.328a20.685,20.685,0,0,0-5.947-2.133,21.078,21.078,0,0,0-9.373.334A9.05,9.05,0,0,1,17.955,4.44,13.769,13.769,0,0,0,4.372,7.051,13.863,13.863,0,0,0,0,16.807a9.945,9.945,0,0,1,4.724-6.162,9.673,9.673,0,0,1,6.012-1.034,10.829,10.829,0,0,0-3.6,1.766A11.823,11.823,0,0,0,3,17.647,14.568,14.568,0,0,0,4.109,28.168l.062.119a16.614,16.614,0,0,0,11.8,8.47,15.982,15.982,0,0,0,3.674.119,16.866,16.866,0,0,0,6.123-1.5A15.033,15.033,0,0,0,34.689,21.2,12.791,12.791,0,0,1,30.9,27.027ZM31.361,7.62,31.9,8.812l-1.133.178L29.59,5.96Z"/></svg>