<svg xmlns="http://www.w3.org/2000/svg" xmlns:xlink="http://www.w3.org/1999/xlink" width="438.479" height="137.5" viewBox="0 0 438.479 137.5"><defs><linearGradient id="a" x1="0.5" y1="1" x2="0.5" gradientUnits="objectBoundingBox"><stop offset="0" stop-color="#2e3192"/><stop offset="0.34" stop-color="#2d2f8f"/><stop offset="0.6" stop-color="#292985"/><stop offset="0.83" stop-color="#221f75"/><stop offset="1" stop-color="#1b1464"/></linearGradient></defs><g transform="translate(-1305.521 -5220.5)"><text transform="translate(1470 5350)" fill="#fff" font-size="30" font-family="SourceSansPro-Bold, Source Sans Pro" font-weight="700" letter-spacing="0.05em"><tspan x="0" y="0">NFT MARKETPLACE</tspan></text><g transform="translate(1305.521 5220.5)"><path d="M184.46,37.25h19.714c12.628,0,22.841,4.519,22.841,18.49,0,13.487-10.3,19.458-22.46,19.458H197.43V94.667H184.46Zm19.328,27.6c7.135,0,10.512-3.176,10.512-9.153s-3.845-8.157-10.876-8.157h-5.982v17.31Z" transform="translate(-84.146 -16.993)" fill="#fff"/><path d="M269.77,93.134c0-9.2,7.325-14.188,24.6-16.01-.256-3.807-2.175-6.314-6.907-6.314-3.665,0-7.32,1.544-11.562,3.948l-4.6-8.5c5.547-3.388,11.79-5.748,18.659-5.748,11.17,0,17.353,6.379,17.353,19.768V105.25H296.755l-.93-4.476H295.5c-3.676,3.23-7.8,5.531-12.709,5.531C274.828,106.305,269.77,100.476,269.77,93.134Zm24.6-.576V84.944c-9.2,1.245-12.2,3.872-12.2,7.178,0,2.812,1.936,4.187,5.009,4.187C290.109,96.294,292.078,94.847,294.367,92.558Z" transform="translate(-123.063 -27.603)" fill="#fff"/><path d="M358.8,61.565h10.556l.935,5.531h.321c3.676-3.529,8.081-6.586,14.036-6.586,9.5,0,13.552,6.7,13.552,17.62v27.12H385.257V79.81c0-6.287-1.691-8.255-5.438-8.255-3.263,0-5.243,1.512-8.087,4.247v29.47H358.8Z" transform="translate(-163.676 -27.603)" fill="#fff"/><path d="M449.612,80.52V62.878H443.63V53.22l6.689-.5,1.517-11.6h10.7v11.6h10.474V62.878H462.555V80.368c0,4.949,2.246,6.939,5.656,6.939a12.883,12.883,0,0,0,4.155-.832l2.039,9.4A30.857,30.857,0,0,1,464.7,97.46C453.9,97.46,449.612,90.646,449.612,80.52Z" transform="translate(-202.374 -18.758)" fill="#fff"/><path d="M513.411,29.35h12.943V44.419l-.577,7.913c3.263-2.98,7.527-6.036,13.487-6.036,9.5,0,13.547,6.7,13.547,17.62v27.12H539.868V65.6c0-6.287-1.686-8.255-5.438-8.255-3.263,0-5.237,1.512-8.087,4.247v29.47H513.4Z" transform="translate(-234.201 -13.389)" fill="#fff"/><path d="M602.18,93.134c0-9.2,7.325-14.188,24.6-16.01-.261-3.807-2.175-6.314-6.912-6.314-3.665,0-7.32,1.544-11.556,3.948l-4.6-8.5c5.542-3.388,11.79-5.748,18.659-5.748,11.165,0,17.353,6.379,17.353,19.768V105.25H629.164l-.935-4.476h-.321c-3.676,3.23-7.8,5.531-12.709,5.531C607.232,106.305,602.18,100.476,602.18,93.134Zm24.6-.576V84.944c-9.207,1.245-12.209,3.872-12.209,7.178,0,2.812,1.936,4.187,5.014,4.187C622.514,96.294,624.482,94.847,626.783,92.558Z" transform="translate(-274.7 -27.603)" fill="#fff"/><path d="M691.2,61.538h10.561l.93,7.614h.321c3.181-5.83,7.956-8.7,12.41-8.7a12.139,12.139,0,0,1,5.215.881L718.462,72.5a17.88,17.88,0,0,0-4.715-.707c-3.29,0-7.287,2.126-9.62,8.081V105.19H691.2Z" transform="translate(-315.309 -27.576)" fill="#fff"/><path d="M753.842,80.52V62.878H747.86V53.22l6.689-.5,1.545-11.6h10.7v11.6H777.27V62.878H766.785V80.368c0,4.949,2.251,6.939,5.656,6.939a12.882,12.882,0,0,0,4.155-.832l2.039,9.4a30.857,30.857,0,0,1-9.707,1.583C758.133,97.46,753.842,90.646,753.842,80.52Z" transform="translate(-341.156 -18.758)" fill="#fff"/><path d="M64.981,56.846c-2.056,1.778-6.792,5.759-13.927,6.118a22.607,22.607,0,0,1-13.78-4.171A27.036,27.036,0,0,1,26.1,42.478,23.983,23.983,0,0,0,39.155,49.95c10.066,1.963,17.7-3.551,18.963-4.5a20.3,20.3,0,0,1-11.2,1.593,19.746,19.746,0,0,1-10.485-4.96c-2.213-2.056-5.264-4.894-4.971-8.892s3.7-6.45,4.427-6.961l-.511-6.461a2.975,2.975,0,0,1,.615.092,4.817,4.817,0,0,1,2.9,2.719,4.845,4.845,0,0,1,3.007-2.464,4.78,4.78,0,0,1,3.519.462s2.36.925-1.153,7.711a8.538,8.538,0,0,0,.593,1.947,8.212,8.212,0,0,0,1.751,2.61,6.863,6.863,0,0,0,9.615.288L51.6,31.607c-1.425-3.35-.582-7.015,1.844-8.892a7.164,7.164,0,0,1,5.634-1.142s5.906.729,7.015,5.438l-3.85,3.551,4.313-.593,1.729,1.305s3.992-1.7,4.22-1.925c0,0,1.2-3.23.479-3.731l-3.214-5.558s-.973-4.2-1.175-4.835a11.964,11.964,0,0,0-3.839-4.938s-4.492-3.7-5.5-4.209L53.4,0s-.832,5.4-.451,6.287c0,0,.228.685-.4.691A43.506,43.506,0,0,0,40.042,2.491a44.332,44.332,0,0,0-19.714.7A19.034,19.034,0,0,1,37.763,9.337,28.96,28.96,0,0,0,9.2,14.83C.5,22.65.049,33.358,0,35.349A20.918,20.918,0,0,1,9.936,22.389,20.344,20.344,0,0,1,22.58,20.214,22.775,22.775,0,0,0,15,23.928,24.868,24.868,0,0,0,6.3,37.116C3.083,47.895,7.6,57.237,8.641,59.244l.131.25A34.943,34.943,0,0,0,33.587,77.31a33.614,33.614,0,0,0,7.728.25A35.474,35.474,0,0,0,54.192,74.4,31.618,31.618,0,0,0,72.959,44.594,26.9,26.9,0,0,1,64.981,56.846Zm.979-40.819L67.1,18.534l-2.382.375-2.485-6.374Z" fill="url(#a)"/></g></g></svg>