<svg width="230" height="60" viewBox="0 0 230 60" fill="none" xmlns="http://www.w3.org/2000/svg">
<rect y="14" width="13.9625" height="13.9625" rx="5" fill="#4169E1"/>
<rect y="30.0957" width="13.9625" height="13.9625" rx="5" fill="#4169E1"/>
<rect x="16.6777" y="14" width="13.9625" height="13.9625" rx="5" fill="#4169E1"/>
<rect x="16.6777" y="30.0957" width="13.9625" height="13.9625" rx="5" fill="#4169E1"/>
<path d="M67.52 25.2C67.52 26.9067 67.12 28.4667 66.32 29.88C65.5467 31.2667 64.36 32.3867 62.76 33.24C61.1867 34.0667 59.2533 34.48 56.96 34.48H53.08V44H45.24V15.8H56.96C59.2267 15.8 61.1467 16.2 62.72 17C64.32 17.8 65.52 18.9067 66.32 20.32C67.12 21.7333 67.52 23.36 67.52 25.2ZM56.2 28.24C58.4133 28.24 59.52 27.2267 59.52 25.2C59.52 23.1467 58.4133 22.12 56.2 22.12H53.08V28.24H56.2ZM69.3897 32.76C69.3897 30.44 69.803 28.4133 70.6297 26.68C71.483 24.9467 72.6297 23.6133 74.0697 22.68C75.5364 21.7467 77.163 21.28 78.9497 21.28C80.4964 21.28 81.8297 21.5867 82.9497 22.2C84.0697 22.8133 84.9364 23.64 85.5497 24.68V21.56H93.3897V44H85.5497V40.88C84.9364 41.92 84.0564 42.7467 82.9097 43.36C81.7897 43.9733 80.4697 44.28 78.9497 44.28C77.163 44.28 75.5364 43.8133 74.0697 42.88C72.6297 41.9467 71.483 40.6133 70.6297 38.88C69.803 37.12 69.3897 35.08 69.3897 32.76ZM85.5497 32.76C85.5497 31.32 85.1497 30.1867 84.3497 29.36C83.5764 28.5333 82.6164 28.12 81.4697 28.12C80.2964 28.12 79.323 28.5333 78.5497 29.36C77.7764 30.16 77.3897 31.2933 77.3897 32.76C77.3897 34.2 77.7764 35.3467 78.5497 36.2C79.323 37.0267 80.2964 37.44 81.4697 37.44C82.6164 37.44 83.5764 37.0267 84.3497 36.2C85.1497 35.3733 85.5497 34.2267 85.5497 32.76ZM112.537 21.36C115.124 21.36 117.177 22.2267 118.697 23.96C120.217 25.6667 120.977 27.9867 120.977 30.92V44H113.137V31.96C113.137 30.68 112.804 29.68 112.137 28.96C111.471 28.2133 110.577 27.84 109.457 27.84C108.284 27.84 107.364 28.2133 106.697 28.96C106.031 29.68 105.697 30.68 105.697 31.96V44H97.8572V21.56H105.697V24.76C106.391 23.7467 107.324 22.9333 108.497 22.32C109.671 21.68 111.017 21.36 112.537 21.36ZM138.519 37.32V44H135.119C129.386 44 126.519 41.16 126.519 35.48V28.08H123.759V21.56H126.519V16.12H134.399V21.56H138.479V28.08H134.399V35.6C134.399 36.2133 134.532 36.6533 134.799 36.92C135.092 37.1867 135.572 37.32 136.239 37.32H138.519ZM156.875 21.36C159.435 21.36 161.462 22.2267 162.955 23.96C164.475 25.6667 165.235 27.9867 165.235 30.92V44H157.395V31.96C157.395 30.68 157.062 29.68 156.395 28.96C155.728 28.2133 154.835 27.84 153.715 27.84C152.542 27.84 151.622 28.2133 150.955 28.96C150.288 29.68 149.955 30.68 149.955 31.96V44H142.115V14.4H149.955V24.76C150.648 23.7467 151.582 22.9333 152.755 22.32C153.955 21.68 155.328 21.36 156.875 21.36ZM168.257 32.76C168.257 30.44 168.67 28.4133 169.497 26.68C170.35 24.9467 171.497 23.6133 172.937 22.68C174.404 21.7467 176.03 21.28 177.817 21.28C179.364 21.28 180.697 21.5867 181.817 22.2C182.937 22.8133 183.804 23.64 184.417 24.68V21.56H192.257V44H184.417V40.88C183.804 41.92 182.924 42.7467 181.777 43.36C180.657 43.9733 179.337 44.28 177.817 44.28C176.03 44.28 174.404 43.8133 172.937 42.88C171.497 41.9467 170.35 40.6133 169.497 38.88C168.67 37.12 168.257 35.08 168.257 32.76ZM184.417 32.76C184.417 31.32 184.017 30.1867 183.217 29.36C182.444 28.5333 181.484 28.12 180.337 28.12C179.164 28.12 178.19 28.5333 177.417 29.36C176.644 30.16 176.257 31.2933 176.257 32.76C176.257 34.2 176.644 35.3467 177.417 36.2C178.19 37.0267 179.164 37.44 180.337 37.44C181.484 37.44 182.444 37.0267 183.217 36.2C184.017 35.3733 184.417 34.2267 184.417 32.76ZM204.564 25.52C205.444 24.24 206.511 23.2267 207.764 22.48C209.018 21.7333 210.364 21.36 211.804 21.36V29.72H209.604C207.898 29.72 206.631 30.0533 205.804 30.72C204.978 31.3867 204.564 32.5467 204.564 34.2V44H196.724V21.56H204.564V25.52ZM227.855 37.32V44H224.455C218.722 44 215.855 41.16 215.855 35.48V28.08H213.095V21.56H215.855V16.12H223.735V21.56H227.815V28.08H223.735V35.6C223.735 36.2133 223.868 36.6533 224.135 36.92C224.428 37.1867 224.908 37.32 225.575 37.32H227.855Z" fill="url(#paint0_linear_55_47)"/>
<defs>
<linearGradient id="paint0_linear_55_47" x1="25" y1="22.5" x2="248.5" y2="60" gradientUnits="userSpaceOnUse">
<stop offset="0.078125" stop-color="#4169E1"/>
<stop offset="0.453923" stop-color="#2C37AB" stop-opacity="0.9165"/>
<stop offset="0.974096" stop-color="#19097A" stop-opacity="0.84"/>
</linearGradient>
</defs>
</svg>
