<svg width="30" height="30" viewBox="0 0 30 30" fill="none" xmlns="http://www.w3.org/2000/svg">
<g clip-path="url(#clip0_102_29)">
<path d="M15 7.32065C10.7656 7.32065 7.32056 10.7656 7.32056 15.0001C7.32056 19.2345 10.7656 22.6795 15 22.6795C19.2345 22.6795 22.6794 19.2345 22.6794 15.0001C22.6794 10.7656 19.2344 7.32065 15 7.32065Z" fill="#FFBC00"/>
<path d="M13.4408 5.74892H16.5591C16.8057 5.74892 17.0177 5.64593 17.1406 5.46642C17.2635 5.28691 17.2827 5.05206 17.1935 4.82201L15.4778 0.404766C15.3411 0.0526099 15.1198 6.10352e-05 14.9999 6.10352e-05C14.8801 6.10352e-05 14.6588 0.0526589 14.5221 0.404717L12.8064 4.82206C12.7171 5.05206 12.7364 5.28687 12.8593 5.46642C12.9822 5.64598 13.1942 5.74892 13.4408 5.74892Z" fill="#FFBC00"/>
<path d="M16.559 24.2511H13.4408C13.1941 24.2511 12.9821 24.3541 12.8593 24.5336C12.7364 24.7132 12.7171 24.948 12.8064 25.178L14.522 29.5954C14.6587 29.9474 14.8801 30 14.9999 30C15.1197 30 15.3411 29.9474 15.4778 29.5954L17.1934 25.178C17.2827 24.9481 17.2635 24.7133 17.1405 24.5336C17.0176 24.3541 16.8057 24.2511 16.559 24.2511Z" fill="#FFBC00"/>
<path d="M6.25183 9.35412C6.37007 9.6226 6.59634 9.78285 6.85713 9.78285C7.03575 9.78285 7.21286 9.70402 7.35585 9.56098L9.5608 7.35608C9.73521 7.18167 9.81227 6.95893 9.77217 6.74501C9.73202 6.53118 9.57962 6.35148 9.35394 6.25207L5.01733 4.34163C4.90786 4.29344 4.80478 4.26898 4.71095 4.26898C4.55404 4.26898 4.41885 4.33834 4.33997 4.45928C4.27345 4.56129 4.21968 4.74099 4.34149 5.01756L6.25183 9.35412Z" fill="#FFBC00"/>
<path d="M23.7481 20.6459C23.6298 20.3775 23.4036 20.2172 23.1429 20.2172C22.9642 20.2172 22.787 20.2961 22.644 20.4391L20.4391 22.644C20.2646 22.8185 20.1876 23.0413 20.2277 23.2551C20.2678 23.4689 20.4203 23.6486 20.6459 23.748L24.9825 25.6585C25.0919 25.7067 25.195 25.7311 25.2888 25.7311C25.4458 25.7311 25.581 25.6617 25.6598 25.5408C25.7264 25.4387 25.7802 25.2591 25.6584 24.9826L23.7481 20.6459Z" fill="#FFBC00"/>
<path d="M22.6439 9.56097C22.7869 9.704 22.964 9.78283 23.1427 9.78283C23.4034 9.78283 23.6296 9.62258 23.748 9.3541L25.6584 5.01759C25.7802 4.74097 25.7264 4.56132 25.6599 4.45931C25.581 4.33838 25.4458 4.26901 25.2889 4.26901C25.1951 4.26901 25.092 4.29347 24.9825 4.34171L20.6459 6.252C20.4202 6.35146 20.2677 6.53112 20.2277 6.74499C20.1876 6.95886 20.2646 7.18165 20.4391 7.35607L22.6439 9.56097Z" fill="#FFBC00"/>
<path d="M7.35599 20.4391C7.21295 20.2961 7.03579 20.2172 6.85711 20.2172C6.59638 20.2172 6.37015 20.3775 6.25192 20.6459L4.34153 24.9825C4.21967 25.2591 4.27344 25.4387 4.34001 25.5408C4.41888 25.6617 4.55413 25.7311 4.71099 25.7311C4.80481 25.7311 4.9079 25.7066 5.01741 25.6583L9.35397 23.748C9.57966 23.6485 9.73216 23.4688 9.77221 23.255C9.8123 23.0412 9.7353 22.8184 9.56083 22.6439L7.35599 20.4391Z" fill="#FFBC00"/>
<path d="M29.5954 14.5221L25.1782 12.8066C25.083 12.7696 24.9872 12.7509 24.8936 12.7509C24.5214 12.7509 24.2512 13.0411 24.2512 13.441L24.2513 16.5593C24.2513 16.9591 24.5214 17.2494 24.8936 17.2494C24.9873 17.2494 25.0831 17.2306 25.1782 17.1937L29.5955 15.478C29.9475 15.3413 30.0001 15.1199 30.0001 15C30.0001 14.8803 29.9474 14.6588 29.5954 14.5221Z" fill="#FFBC00"/>
<path d="M5.10651 17.2493C5.47877 17.2493 5.74896 16.9591 5.74896 16.5592V13.4409C5.74896 13.0411 5.47881 12.7508 5.10651 12.7508C5.01279 12.7508 4.9171 12.7695 4.82195 12.8065L0.404656 14.5221C0.052598 14.6588 0 14.8802 0 15C0 15.1198 0.0525489 15.3412 0.404656 15.4781L4.82186 17.1936C4.91705 17.2305 5.01279 17.2493 5.10651 17.2493Z" fill="#FFBC00"/>
</g>
<defs>
<clipPath id="clip0_102_29">
<rect width="30" height="30" fill="white"/>
</clipPath>
</defs>
</svg>
