<svg xmlns="http://www.w3.org/2000/svg" xmlns:xlink="http://www.w3.org/1999/xlink" width="1767" height="372" viewBox="0 0 1767 372"><defs><filter id="a" x="0" y="0" width="1767" height="372" filterUnits="userSpaceOnUse"><feOffset dx="1" dy="3" input="SourceAlpha"/><feGaussianBlur stdDeviation="5" result="b"/><feFlood flood-opacity="0.161"/><feComposite operator="in" in2="b"/><feComposite in="SourceGraphic"/></filter><linearGradient id="c" x1="0.5" y1="1" x2="0.5" gradientUnits="objectBoundingBox"><stop offset="0" stop-color="#2e3192"/><stop offset="0.34" stop-color="#2d2f8f"/><stop offset="0.6" stop-color="#292985"/><stop offset="0.83" stop-color="#221f75"/><stop offset="1" stop-color="#1b1464"/></linearGradient></defs><g transform="translate(-78 -358)"><g transform="matrix(1, 0, 0, 1, 78, 358)" filter="url(#a)"><rect width="1737" height="342" rx="15" transform="translate(14 12)" fill="#fff"/></g><text transform="translate(156 559)" fill="#0d0d0d" font-size="50" font-family="SourceSansPro-Bold, Source Sans Pro" font-weight="700"><tspan x="0" y="0">Work With Us</tspan></text><g transform="translate(1354.645 474.097)"><path d="M184.46,37.25H202.4c11.49,0,20.783,4.112,20.783,16.825,0,12.272-9.372,17.705-20.437,17.705h-6.433V89.5H184.46Zm17.587,25.113c6.492,0,9.565-2.89,9.565-8.328s-3.5-7.423-9.9-7.423h-5.443V62.363Z" transform="translate(-93.182 -18.817)"/><path d="M269.78,90.2c0-8.373,6.661-12.91,22.382-14.568-.233-3.464-1.979-5.745-6.284-5.745-3.335,0-6.66,1.405-10.52,3.593l-4.186-7.734a32.493,32.493,0,0,1,16.978-5.23c10.164,0,15.79,5.8,15.79,17.987V101.22h-9.6l-.851-4.073h-.292c-3.345,2.944-7.1,5.033-11.564,5.033C274.377,102.18,269.78,96.876,269.78,90.2Zm22.377-.525V82.743c-8.373,1.133-11.1,3.523-11.1,6.532,0,2.558,1.762,3.815,4.557,3.815C288.282,93.075,290.073,91.754,292.157,89.671Z" transform="translate(-136.282 -30.567)"/><path d="M358.8,61.47h9.6l.851,5.033h.292c3.345-3.212,7.353-5.993,12.772-5.993,8.645,0,12.331,6.1,12.331,16.033V101.22H382.874V78.072c0-5.72-1.539-7.512-4.948-7.512-2.969,0-4.77,1.376-7.358,3.865V101.24H358.8Z" transform="translate(-181.252 -30.567)"/><path d="M449.073,76.971V60.919H443.63V52.13l6.086-.455L451.1,41.12h9.738V51.675h9.531v9.244H460.85V76.833c0,4.5,2.044,6.314,5.146,6.314a11.875,11.875,0,0,0,3.781-.752l1.856,8.551a28.078,28.078,0,0,1-8.833,1.44C452.978,92.385,449.073,86.185,449.073,76.971Z" transform="translate(-224.104 -20.772)"/><path d="M513.41,29.35h11.777V43.062l-.524,7.2c2.969-2.712,6.849-5.493,12.272-5.493,8.64,0,12.326,6.1,12.326,16.033V85.48H537.484V62.331c0-5.72-1.534-7.512-4.948-7.512-2.969,0-4.765,1.376-7.358,3.865V85.5H513.4Z" transform="translate(-259.35 -14.826)"/><path d="M602.18,90.2c0-8.373,6.666-12.91,22.386-14.568-.237-3.464-1.979-5.745-6.289-5.745-3.335,0-6.661,1.405-10.515,3.593l-4.186-7.734a32.478,32.478,0,0,1,16.978-5.23c10.159,0,15.79,5.8,15.79,17.987V101.22h-9.61l-.851-4.073h-.292c-3.345,2.944-7.1,5.033-11.564,5.033C606.782,102.18,602.18,96.876,602.18,90.2Zm22.386-.525V82.743c-8.378,1.133-11.109,3.523-11.109,6.532,0,2.558,1.761,3.815,4.562,3.815C620.687,93.075,622.473,91.754,624.567,89.671Z" transform="translate(-304.198 -30.567)"/><path d="M691.2,61.44h9.61l.846,6.928h.292c2.895-5.3,7.239-7.917,11.292-7.917a11.046,11.046,0,0,1,4.746.8l-1.979,10.164a16.269,16.269,0,0,0-4.285-.638c-3,0-6.636,1.93-8.759,7.348V101.16H691.2Z" transform="translate(-349.167 -30.537)"/><path d="M753.3,76.971V60.919H747.86V52.13l6.092-.455,1.4-10.555h9.739V51.675h9.531v9.244H765.08V76.833c0,4.5,2.049,6.314,5.147,6.314a11.875,11.875,0,0,0,3.78-.752l1.856,8.551a28.076,28.076,0,0,1-8.833,1.44C757.208,92.385,753.3,86.185,753.3,76.971Z" transform="translate(-377.79 -20.772)"/><path d="M59.128,51.726a20.766,20.766,0,0,1-12.673,5.567,20.57,20.57,0,0,1-12.539-3.8A24.6,24.6,0,0,1,23.752,38.652a21.822,21.822,0,0,0,11.876,6.8c9.159,1.786,16.107-3.231,17.255-4.092a18.472,18.472,0,0,1-10.189,1.45A17.968,17.968,0,0,1,33.154,38.3c-2.014-1.87-4.79-4.454-4.523-8.091s3.37-5.869,4.028-6.334l-.465-5.879a2.707,2.707,0,0,1,.559.084A4.383,4.383,0,0,1,35.4,20.551a4.409,4.409,0,0,1,2.736-2.242,4.35,4.35,0,0,1,3.2.421s2.148.841-1.049,7.017a7.769,7.769,0,0,0,.539,1.772,7.472,7.472,0,0,0,1.593,2.375,6.245,6.245,0,0,0,8.749.262l-4.211-1.4a6.826,6.826,0,0,1,1.678-8.091,6.518,6.518,0,0,1,5.127-1.039s5.374.663,6.383,4.948l-3.5,3.231,3.924-.539,1.574,1.188s3.632-1.544,3.84-1.752c0,0,1.094-2.939.435-3.395l-2.924-5.057s-.886-3.82-1.069-4.4a10.887,10.887,0,0,0-3.494-4.493s-4.087-3.37-5.008-3.83L48.593,0s-.757,4.914-.411,5.72c0,0,.208.623-.366.628A39.587,39.587,0,0,0,36.435,2.266,40.339,40.339,0,0,0,18.5,2.9,17.319,17.319,0,0,1,34.362,8.5a26.352,26.352,0,0,0-25.994,5C.455,20.61.045,30.353,0,32.165A19.034,19.034,0,0,1,9.041,20.373a18.512,18.512,0,0,1,11.505-1.979,20.724,20.724,0,0,0-6.893,3.38,22.628,22.628,0,0,0-7.917,12C2.806,43.58,6.918,52.082,7.863,53.908l.119.228a31.8,31.8,0,0,0,22.58,16.211,30.587,30.587,0,0,0,7.032.228A32.279,32.279,0,0,0,49.311,67.7,28.77,28.77,0,0,0,66.388,40.577,24.48,24.48,0,0,1,59.128,51.726Zm.891-37.143,1.039,2.281-2.167.341-2.261-5.8Z" fill="url(#c)"/></g><text transform="translate(1622.719 591.903)" fill="#2e3192" font-size="30" font-family="SourceSansPro-Bold, Source Sans Pro" font-weight="700" letter-spacing="0.05em"><tspan x="0" y="0">CAREERS</tspan></text></g></svg>