<svg width="48" height="48" viewBox="0 0 48 48" fill="none" xmlns="http://www.w3.org/2000/svg">
<path d="M24 0C37.2387 0 48 10.7613 48 24C48 37.2387 37.2387 48 24 48" fill="#4169E1"/>
<path fill-rule="evenodd" clip-rule="evenodd" d="M24 48C37.2387 48 48 37.2387 48 24C48 10.7613 37.2387 0 24 0C10.7613 0 0 10.7613 0 24C0 37.2387 10.7613 48 24 48Z" fill="url(#paint0_linear_111_21)"/>
<path d="M20.3455 34.5883C20.1847 34.5883 19.9434 34.5133 19.7826 34.4383C19.3805 34.2882 19.0588 33.8381 19.0588 33.4629V19.433C19.0588 19.0578 19.3805 18.6077 19.7826 18.4576C20.1847 18.3076 20.6672 18.3076 21.0693 18.5326L31.2822 25.5851C31.6039 25.8102 31.7647 26.1103 31.7647 26.4854C31.7647 26.8606 31.6039 27.1607 31.2822 27.3858L21.0693 34.4383C20.828 34.5133 20.5868 34.5883 20.3455 34.5883Z" fill="#4169E1"/>
<path d="M20.3455 32.4705C20.1847 32.4705 19.9434 32.3922 19.7826 32.3139C19.3805 32.1573 19.0588 31.6876 19.0588 31.2961V16.6562C19.0588 16.2647 19.3805 15.795 19.7826 15.6384C20.1847 15.4818 20.6672 15.4818 21.0693 15.7167L31.2822 23.0758C31.6039 23.3107 31.7647 23.6239 31.7647 24.0153C31.7647 24.4067 31.6039 24.7199 31.2822 24.9548L21.0693 32.3139C20.828 32.3922 20.5868 32.4705 20.3455 32.4705Z" fill="white"/>
<defs>
<linearGradient id="paint0_linear_111_21" x1="-4.62032" y1="18" x2="54.1933" y2="21.1662" gradientUnits="userSpaceOnUse">
<stop offset="0.078125" stop-color="#4169E1"/>
<stop offset="0.453923" stop-color="#2C37AB" stop-opacity="0.9165"/>
<stop offset="0.974096" stop-color="#19097A" stop-opacity="0.84"/>
</linearGradient>
</defs>
</svg>
